G04 Layer: TopSilkscreenLayer*
G04 EasyEDA v6.5.51, 2025-12-28 19:30:40*
G04 7922ceb0231e4a53998ecf01493f2e8b,b0fcb86846164242a958a805a75853bb,10*
G04 Gerber Generator version 0.2*
G04 Scale: 100 percent, Rotated: No, Reflected: No *
G04 Dimensions in millimeters *
G04 leading zeros omitted , absolute positions ,4 integer and 5 decimal *
%FSLAX45Y45*%
%MOMM*%

%ADD10C,0.1524*%
%ADD11C,0.2030*%
%ADD12C,0.2032*%
%ADD13C,0.2540*%
%ADD14C,0.0120*%

%LPD*%
G36*
X355600Y-2882696D02*
G01*
X355600Y-2952699D01*
X768604Y-2952699D01*
X768604Y-3295700D01*
X425602Y-3295700D01*
X425602Y-2952699D01*
X355600Y-2952699D01*
X355600Y-3365703D01*
X838098Y-3365195D01*
X838606Y-2882696D01*
G37*
G36*
X1045616Y-2882696D02*
G01*
X1045616Y-2952699D01*
X1113586Y-2952699D01*
X1113586Y-2882696D01*
G37*
G36*
X1321612Y-2882696D02*
G01*
X1321104Y-2952191D01*
X1183589Y-2952699D01*
X1183589Y-3020669D01*
X1251102Y-3021177D01*
X1251610Y-3088690D01*
X1389075Y-3089198D01*
X1389075Y-3158185D01*
X1251610Y-3158693D01*
X1251102Y-3226206D01*
X1184097Y-3226206D01*
X1183589Y-3158693D01*
X1113586Y-3158693D01*
X1113586Y-3226663D01*
X1183081Y-3227171D01*
X1183081Y-3364179D01*
X1114094Y-3364179D01*
X1113586Y-3296716D01*
X1045616Y-3296716D01*
X1045108Y-3364179D01*
X976121Y-3364179D01*
X975614Y-3158693D01*
X907592Y-3158693D01*
X907592Y-3364687D01*
X975106Y-3365195D01*
X975106Y-3434181D01*
X907643Y-3434740D01*
X907084Y-3502202D01*
X838098Y-3502202D01*
X837590Y-3434689D01*
X769620Y-3434689D01*
X769620Y-3502660D01*
X837082Y-3503218D01*
X837082Y-3572205D01*
X769620Y-3572713D01*
X769112Y-3640175D01*
X562102Y-3640175D01*
X562102Y-3573221D01*
X631596Y-3572662D01*
X632104Y-3503218D01*
X699617Y-3502660D01*
X699617Y-3434689D01*
X631647Y-3434689D01*
X631088Y-3502202D01*
X494080Y-3502202D01*
X493572Y-3434689D01*
X425602Y-3434689D01*
X425094Y-3502202D01*
X355600Y-3502710D01*
X355600Y-3572713D01*
X425551Y-3572713D01*
X426110Y-3503218D01*
X493115Y-3503218D01*
X493115Y-3640175D01*
X355600Y-3640734D01*
X355600Y-3643223D01*
X769569Y-3643223D01*
X770534Y-3640683D01*
X837082Y-3641191D01*
X837082Y-3710178D01*
X770077Y-3710178D01*
X769569Y-3643223D01*
X355600Y-3643223D01*
X355600Y-3778707D01*
X425551Y-3778707D01*
X426110Y-3711194D01*
X561086Y-3711194D01*
X561086Y-3778199D01*
X493572Y-3778707D01*
X493572Y-3781196D01*
X631545Y-3781196D01*
X632561Y-3778656D01*
X699109Y-3779215D01*
X699109Y-3848201D01*
X632104Y-3848201D01*
X631545Y-3781196D01*
X493572Y-3781196D01*
X493572Y-3851198D01*
X561594Y-3851198D01*
X562559Y-3848658D01*
X631088Y-3849217D01*
X631088Y-3916172D01*
X562102Y-3916172D01*
X561594Y-3851198D01*
X493572Y-3851198D01*
X493572Y-3986682D01*
X631088Y-3987190D01*
X631088Y-4054195D01*
X561644Y-4054703D01*
X561086Y-4124198D01*
X494080Y-4124198D01*
X493572Y-4054703D01*
X355600Y-4054703D01*
X355600Y-4124706D01*
X493115Y-4125214D01*
X493115Y-4262170D01*
X355600Y-4262729D01*
X355600Y-4330700D01*
X561594Y-4330700D01*
X562102Y-4193184D01*
X631596Y-4192676D01*
X632104Y-4055211D01*
X907592Y-4054703D01*
X907592Y-3986682D01*
X700074Y-3986174D01*
X700074Y-3917187D01*
X837590Y-3916679D01*
X837590Y-3848709D01*
X770077Y-3848201D01*
X770077Y-3779215D01*
X837590Y-3778656D01*
X838098Y-3711194D01*
X975106Y-3711194D01*
X975106Y-3778199D01*
X907592Y-3778707D01*
X907592Y-3848709D01*
X975563Y-3848709D01*
X976121Y-3779215D01*
X1113586Y-3778656D01*
X1114094Y-3711194D01*
X1183589Y-3710686D01*
X1183589Y-3640683D01*
X1113637Y-3640683D01*
X1113078Y-3710178D01*
X976121Y-3710178D01*
X975563Y-3640734D01*
X908100Y-3640175D01*
X908100Y-3503218D01*
X975106Y-3503218D01*
X975614Y-3572713D01*
X1045565Y-3572713D01*
X1046073Y-3435197D01*
X1113078Y-3435197D01*
X1113637Y-3502710D01*
X1183589Y-3502710D01*
X1184097Y-3365195D01*
X1251102Y-3365195D01*
X1251610Y-3502660D01*
X1321104Y-3503218D01*
X1321612Y-3572713D01*
X1459585Y-3572713D01*
X1459585Y-3434689D01*
X1322070Y-3434181D01*
X1322070Y-3365195D01*
X1389583Y-3364687D01*
X1389583Y-3296716D01*
X1321612Y-3296716D01*
X1321104Y-3364179D01*
X1252118Y-3364179D01*
X1252118Y-3227171D01*
X1389583Y-3226663D01*
X1390091Y-3159201D01*
X1459585Y-3158693D01*
X1460093Y-3089198D01*
X1597101Y-3089198D01*
X1597101Y-3299206D01*
X1665579Y-3299206D01*
X1666544Y-3296665D01*
X1735074Y-3297174D01*
X1735074Y-3364179D01*
X1666087Y-3364179D01*
X1665579Y-3299206D01*
X1597101Y-3299206D01*
X1597101Y-3364179D01*
X1528114Y-3364179D01*
X1527556Y-3296716D01*
X1459585Y-3296716D01*
X1459585Y-3364687D01*
X1527098Y-3365195D01*
X1527606Y-3434689D01*
X1597101Y-3435197D01*
X1597101Y-3502202D01*
X1527606Y-3502710D01*
X1527606Y-3505200D01*
X1597558Y-3505200D01*
X1598523Y-3502660D01*
X1665071Y-3503218D01*
X1665071Y-3505200D01*
X1941575Y-3505200D01*
X1942541Y-3502660D01*
X2011070Y-3503218D01*
X2011070Y-3572205D01*
X1942084Y-3572205D01*
X1941575Y-3505200D01*
X1665071Y-3505200D01*
X1665071Y-3572205D01*
X1598117Y-3572205D01*
X1597558Y-3505200D01*
X1527606Y-3505200D01*
X1527606Y-3572662D01*
X1597101Y-3573221D01*
X1597101Y-3640175D01*
X1459636Y-3640734D01*
X1459077Y-3710178D01*
X1390091Y-3710178D01*
X1389583Y-3640683D01*
X1321612Y-3640683D01*
X1321104Y-3710178D01*
X1251610Y-3710736D01*
X1251601Y-3713226D01*
X1459585Y-3713226D01*
X1460550Y-3710686D01*
X1527098Y-3711194D01*
X1527098Y-3778199D01*
X1460093Y-3778199D01*
X1459585Y-3713226D01*
X1251601Y-3713226D01*
X1251102Y-3848201D01*
X1113637Y-3848709D01*
X1113618Y-3851198D01*
X1251559Y-3851198D01*
X1252524Y-3848658D01*
X1321104Y-3849217D01*
X1321104Y-3916172D01*
X1460093Y-3916172D01*
X1460093Y-3849217D01*
X1597101Y-3849217D01*
X1597609Y-3916679D01*
X1665579Y-3916679D01*
X1666087Y-3779215D01*
X1735582Y-3778656D01*
X1735582Y-3710736D01*
X1666087Y-3710178D01*
X1665579Y-3575202D01*
X1666544Y-3572662D01*
X1735074Y-3573221D01*
X1735632Y-3640683D01*
X1803095Y-3641191D01*
X1803603Y-3710686D01*
X1873554Y-3710686D01*
X1874113Y-3573221D01*
X1941118Y-3573221D01*
X1941626Y-3640683D01*
X2011578Y-3640683D01*
X2012086Y-3573221D01*
X2285085Y-3573221D01*
X2285085Y-3640175D01*
X2217572Y-3640734D01*
X2217572Y-3710686D01*
X2285085Y-3711194D01*
X2285085Y-3778199D01*
X2149602Y-3778707D01*
X2149602Y-3848658D01*
X2217115Y-3849217D01*
X2217623Y-3986682D01*
X2285085Y-3987190D01*
X2285085Y-4192219D01*
X2218080Y-4192219D01*
X2217572Y-4054703D01*
X2149602Y-4054703D01*
X2149094Y-4124198D01*
X2080107Y-4124198D01*
X2079548Y-4054703D01*
X2012086Y-4054195D01*
X2012086Y-3917187D01*
X2079091Y-3917187D01*
X2079599Y-3986682D01*
X2149602Y-3986682D01*
X2149602Y-3916730D01*
X2080107Y-3916172D01*
X2079599Y-3778707D01*
X2012086Y-3778199D01*
X2011578Y-3710686D01*
X1941626Y-3710686D01*
X1941118Y-3778199D01*
X1873605Y-3778707D01*
X1873596Y-3781196D01*
X1941575Y-3781196D01*
X1942541Y-3778656D01*
X2011070Y-3779215D01*
X2011070Y-3916172D01*
X1942084Y-3916172D01*
X1941575Y-3781196D01*
X1873596Y-3781196D01*
X1873097Y-3916172D01*
X1804111Y-3916172D01*
X1803552Y-3848709D01*
X1735582Y-3848709D01*
X1735582Y-3916679D01*
X1803095Y-3917187D01*
X1803095Y-3919169D01*
X1873554Y-3919169D01*
X1874520Y-3916679D01*
X1941118Y-3917187D01*
X1941118Y-4054195D01*
X1874113Y-4054195D01*
X1873554Y-3919169D01*
X1803095Y-3919169D01*
X1803095Y-3986174D01*
X1665630Y-3986682D01*
X1665071Y-4054195D01*
X1528114Y-4054195D01*
X1527606Y-3916730D01*
X1460093Y-3916172D01*
X1252118Y-3916172D01*
X1251559Y-3851198D01*
X1113618Y-3851198D01*
X1113078Y-3916172D01*
X975614Y-3916730D01*
X975614Y-3986682D01*
X1183589Y-3986682D01*
X1184097Y-3917187D01*
X1251102Y-3917187D01*
X1251610Y-3986682D01*
X1321562Y-3986682D01*
X1322070Y-3917187D01*
X1389075Y-3917187D01*
X1389634Y-3986682D01*
X1459077Y-3987190D01*
X1459636Y-4054652D01*
X1527098Y-4055211D01*
X1527113Y-4057192D01*
X1735582Y-4057192D01*
X1736547Y-4054703D01*
X1873097Y-4055211D01*
X1873605Y-4124706D01*
X1941575Y-4124706D01*
X1942084Y-4055211D01*
X2011070Y-4055211D01*
X2011070Y-4192219D01*
X1941626Y-4192727D01*
X1941118Y-4262170D01*
X1804111Y-4262170D01*
X1803552Y-4192727D01*
X1736089Y-4192219D01*
X1735582Y-4057192D01*
X1527113Y-4057192D01*
X1527606Y-4124655D01*
X1597101Y-4125214D01*
X1597101Y-4192219D01*
X1460093Y-4192219D01*
X1459585Y-4124706D01*
X1390091Y-4124198D01*
X1389583Y-4054703D01*
X1321612Y-4054703D01*
X1321104Y-4124198D01*
X1252118Y-4124198D01*
X1251559Y-4054703D01*
X1183640Y-4054703D01*
X1183081Y-4124198D01*
X1114094Y-4124198D01*
X1113586Y-4054703D01*
X975614Y-4054703D01*
X975614Y-4124655D01*
X1045108Y-4125214D01*
X1045108Y-4192219D01*
X975614Y-4192727D01*
X975614Y-4262678D01*
X1045108Y-4263186D01*
X1045108Y-4330192D01*
X908100Y-4330192D01*
X907592Y-4262729D01*
X770077Y-4262170D01*
X770077Y-4193184D01*
X837590Y-4192676D01*
X837590Y-4124706D01*
X699617Y-4124706D01*
X699109Y-4262170D01*
X631596Y-4262729D01*
X631596Y-4330700D01*
X907084Y-4331208D01*
X907643Y-4400651D01*
X975106Y-4401210D01*
X975610Y-4468215D01*
X1114094Y-4468215D01*
X1114094Y-4193184D01*
X1321612Y-4192676D01*
X1321612Y-4126026D01*
X1322933Y-4124655D01*
X1389075Y-4125214D01*
X1389334Y-4195216D01*
X1597558Y-4195216D01*
X1598523Y-4192676D01*
X1665071Y-4193184D01*
X1665630Y-4262678D01*
X1735074Y-4263186D01*
X1735074Y-4333189D01*
X1803603Y-4333189D01*
X1804517Y-4330700D01*
X2011070Y-4331208D01*
X2011070Y-4538167D01*
X1804111Y-4538167D01*
X1803603Y-4333189D01*
X1735074Y-4333189D01*
X1735074Y-4400194D01*
X1666087Y-4400194D01*
X1665579Y-4330700D01*
X1598117Y-4330192D01*
X1597558Y-4195216D01*
X1389334Y-4195216D01*
X1389634Y-4262678D01*
X1527098Y-4263186D01*
X1527606Y-4330649D01*
X1597101Y-4331208D01*
X1597101Y-4400194D01*
X1527606Y-4400702D01*
X1527588Y-4403191D01*
X1597558Y-4403191D01*
X1598523Y-4400651D01*
X1665071Y-4401210D01*
X1665071Y-4468215D01*
X1598117Y-4468215D01*
X1597558Y-4403191D01*
X1527588Y-4403191D01*
X1527098Y-4468215D01*
X1460093Y-4468215D01*
X1459585Y-4330700D01*
X1322070Y-4330192D01*
X1321562Y-4262678D01*
X1251610Y-4262678D01*
X1251102Y-4330192D01*
X1183589Y-4330700D01*
X1183321Y-4403191D01*
X1251559Y-4403191D01*
X1252524Y-4400651D01*
X1321104Y-4401210D01*
X1321104Y-4468215D01*
X1252118Y-4468215D01*
X1251559Y-4403191D01*
X1183321Y-4403191D01*
X1183081Y-4468215D01*
X975610Y-4468215D01*
X975614Y-4468672D01*
X1113078Y-4469180D01*
X1113078Y-4538167D01*
X907592Y-4538675D01*
X907592Y-4606645D01*
X975106Y-4607204D01*
X975614Y-4676698D01*
X1251102Y-4677206D01*
X1251102Y-4744212D01*
X1045616Y-4744720D01*
X1045616Y-4882692D01*
X1113586Y-4882692D01*
X1114094Y-4813198D01*
X1183081Y-4813198D01*
X1183640Y-4882692D01*
X1251559Y-4882692D01*
X1252118Y-4745177D01*
X1389583Y-4744669D01*
X1389583Y-4676698D01*
X1252118Y-4676190D01*
X1251559Y-4606696D01*
X1114094Y-4606188D01*
X1114094Y-4539183D01*
X1183589Y-4538675D01*
X1184097Y-4469180D01*
X1251102Y-4469180D01*
X1251610Y-4538675D01*
X1321562Y-4538675D01*
X1322070Y-4469180D01*
X1459077Y-4469180D01*
X1459636Y-4538675D01*
X1597101Y-4539183D01*
X1597101Y-4606188D01*
X1459585Y-4606696D01*
X1459585Y-4744669D01*
X1527098Y-4745177D01*
X1527098Y-4812182D01*
X1389583Y-4812690D01*
X1389583Y-4882692D01*
X1597558Y-4882692D01*
X1598117Y-4813198D01*
X1665071Y-4813198D01*
X1665630Y-4882692D01*
X1803603Y-4882692D01*
X1803603Y-4812690D01*
X1666087Y-4812182D01*
X1666087Y-4745177D01*
X1873097Y-4745177D01*
X1873605Y-4812690D01*
X2011070Y-4813198D01*
X2011629Y-4882692D01*
X2079599Y-4882692D01*
X2079599Y-4812741D01*
X2012086Y-4812182D01*
X2011578Y-4744720D01*
X1874113Y-4744212D01*
X1873554Y-4676698D01*
X1665630Y-4676698D01*
X1665071Y-4744212D01*
X1598117Y-4744212D01*
X1598117Y-4607204D01*
X1941118Y-4607204D01*
X1941626Y-4676698D01*
X2011578Y-4676698D01*
X2012086Y-4607204D01*
X2079091Y-4607204D01*
X2079599Y-4676648D01*
X2149094Y-4677206D01*
X2149602Y-4744669D01*
X2217115Y-4745177D01*
X2217623Y-4882692D01*
X2285593Y-4882692D01*
X2286101Y-4813198D01*
X2355596Y-4812639D01*
X2355596Y-4676698D01*
X2286101Y-4676190D01*
X2286101Y-4607204D01*
X2355596Y-4606645D01*
X2355596Y-4538675D01*
X2217623Y-4538675D01*
X2217115Y-4606188D01*
X2080107Y-4606188D01*
X2080107Y-4539183D01*
X2149602Y-4538675D01*
X2149602Y-4468723D01*
X2080107Y-4468215D01*
X2079599Y-4262729D01*
X2012086Y-4262170D01*
X2012086Y-4193184D01*
X2217115Y-4193184D01*
X2217623Y-4262678D01*
X2285085Y-4263186D01*
X2285085Y-4330192D01*
X2149602Y-4330700D01*
X2149602Y-4400651D01*
X2217115Y-4401210D01*
X2217623Y-4468672D01*
X2355596Y-4468672D01*
X2355596Y-3502710D01*
X2218080Y-3502202D01*
X2217572Y-3434689D01*
X2149602Y-3434689D01*
X2149094Y-3502202D01*
X2080107Y-3502202D01*
X2079548Y-3434689D01*
X1941626Y-3434689D01*
X1941118Y-3502202D01*
X1874113Y-3502202D01*
X1873554Y-3434689D01*
X1803603Y-3434689D01*
X1803095Y-3502202D01*
X1736089Y-3502202D01*
X1736089Y-3365195D01*
X1803603Y-3364687D01*
X1803603Y-3226714D01*
X1666087Y-3226206D01*
X1666087Y-3159201D01*
X1735582Y-3158693D01*
X1736089Y-3089198D01*
X1803603Y-3088690D01*
X1803603Y-2952699D01*
X1736089Y-2952191D01*
X1735582Y-2882696D01*
X1597609Y-2882696D01*
X1597101Y-2952191D01*
X1527606Y-2952699D01*
X1527587Y-2955239D01*
X1597558Y-2955239D01*
X1598523Y-2952699D01*
X1735074Y-2953207D01*
X1735074Y-3020212D01*
X1598117Y-3020212D01*
X1597558Y-2955239D01*
X1527587Y-2955239D01*
X1527098Y-3020212D01*
X1459636Y-3020720D01*
X1459077Y-3088182D01*
X1390091Y-3088182D01*
X1389583Y-3020720D01*
X1322070Y-3020212D01*
X1322070Y-2953207D01*
X1389583Y-2952648D01*
X1389583Y-2882696D01*
G37*
G36*
X1872589Y-2882696D02*
G01*
X1872663Y-2952699D01*
X2285593Y-2952699D01*
X2285593Y-3295700D01*
X1942592Y-3295700D01*
X1942592Y-2952699D01*
X1872663Y-2952699D01*
X1873097Y-3365195D01*
X2355596Y-3365703D01*
X2355596Y-2882696D01*
G37*
G36*
X493572Y-3020720D02*
G01*
X493572Y-3227679D01*
X700074Y-3227171D01*
X700633Y-3020720D01*
G37*
G36*
X907592Y-3020720D02*
G01*
X907592Y-3088690D01*
X975614Y-3088690D01*
X975614Y-3020720D01*
G37*
G36*
X1045616Y-3020720D02*
G01*
X1045616Y-3088690D01*
X1113586Y-3088690D01*
X1113586Y-3020720D01*
G37*
G36*
X2010562Y-3020720D02*
G01*
X2011070Y-3227171D01*
X2217572Y-3227679D01*
X2217572Y-3020720D01*
G37*
G36*
X355600Y-4399686D02*
G01*
X355600Y-4469688D01*
X768604Y-4469688D01*
X768604Y-4812690D01*
X425602Y-4812690D01*
X425602Y-4469688D01*
X355600Y-4469688D01*
X355600Y-4882692D01*
X838606Y-4882692D01*
X838098Y-4400194D01*
G37*
G36*
X1873605Y-4400702D02*
G01*
X1873605Y-4468672D01*
X1941575Y-4468672D01*
X1941575Y-4400702D01*
G37*
G36*
X493572Y-4537659D02*
G01*
X493572Y-4744669D01*
X700633Y-4744669D01*
X700074Y-4538167D01*
G37*
G36*
X907592Y-4744669D02*
G01*
X907592Y-4812690D01*
X975614Y-4812690D01*
X975614Y-4744669D01*
G37*
D10*
X5423408Y-2592578D02*
G01*
X5433822Y-2587244D01*
X5444236Y-2576829D01*
X5449315Y-2566670D01*
X5449315Y-2545842D01*
X5444236Y-2535428D01*
X5433822Y-2525013D01*
X5423408Y-2519679D01*
X5407659Y-2514600D01*
X5381752Y-2514600D01*
X5366258Y-2519679D01*
X5355843Y-2525013D01*
X5345429Y-2535428D01*
X5340350Y-2545842D01*
X5340350Y-2566670D01*
X5345429Y-2576829D01*
X5355843Y-2587244D01*
X5366258Y-2592578D01*
X5428488Y-2626868D02*
G01*
X5433822Y-2637281D01*
X5449315Y-2652776D01*
X5340350Y-2652776D01*
X5116449Y-2210688D02*
G01*
X5116449Y-2101722D01*
X5116449Y-2101722D02*
G01*
X5054218Y-2101722D01*
X5019929Y-2210688D02*
G01*
X5019929Y-2101722D01*
X5019929Y-2210688D02*
G01*
X4952365Y-2210688D01*
X5019929Y-2158872D02*
G01*
X4978272Y-2158872D01*
X5019929Y-2101722D02*
G01*
X4952365Y-2101722D01*
X4918075Y-2210688D02*
G01*
X4918075Y-2101722D01*
X4918075Y-2210688D02*
G01*
X4881499Y-2210688D01*
X4866004Y-2205609D01*
X4855590Y-2195195D01*
X4850511Y-2184780D01*
X4845177Y-2169032D01*
X4845177Y-2143125D01*
X4850511Y-2127630D01*
X4855590Y-2117217D01*
X4866004Y-2106803D01*
X4881499Y-2101722D01*
X4918075Y-2101722D01*
X4810886Y-2189861D02*
G01*
X4800472Y-2195195D01*
X4784979Y-2210688D01*
X4784979Y-2101722D01*
X5169915Y-2527300D02*
G01*
X5060950Y-2527300D01*
X5169915Y-2527300D02*
G01*
X5169915Y-2574036D01*
X5164836Y-2589529D01*
X5159502Y-2594863D01*
X5149088Y-2599944D01*
X5138674Y-2599944D01*
X5128259Y-2594863D01*
X5123179Y-2589529D01*
X5118100Y-2574036D01*
X5118100Y-2527300D01*
X5118100Y-2563621D02*
G01*
X5060950Y-2599944D01*
X5149088Y-2634234D02*
G01*
X5154422Y-2644647D01*
X5169915Y-2660395D01*
X5060950Y-2660395D01*
X5859696Y-2485240D02*
G01*
X5781718Y-2485240D01*
X5766224Y-2490320D01*
X5755810Y-2500734D01*
X5750730Y-2516482D01*
X5750730Y-2526896D01*
X5755810Y-2542390D01*
X5766224Y-2552804D01*
X5781718Y-2557884D01*
X5859696Y-2557884D01*
X5838868Y-2592174D02*
G01*
X5844202Y-2602588D01*
X5859696Y-2618336D01*
X5750730Y-2618336D01*
X5993384Y-2514600D02*
G01*
X6071361Y-2514600D01*
X6086856Y-2509520D01*
X6097270Y-2499105D01*
X6102350Y-2483357D01*
X6102350Y-2472944D01*
X6097270Y-2457450D01*
X6086856Y-2447036D01*
X6071361Y-2441955D01*
X5993384Y-2441955D01*
X6019291Y-2402331D02*
G01*
X6014211Y-2402331D01*
X6003797Y-2397252D01*
X5998463Y-2391918D01*
X5993384Y-2381504D01*
X5993384Y-2360929D01*
X5998463Y-2350515D01*
X6003797Y-2345181D01*
X6014211Y-2340102D01*
X6024625Y-2340102D01*
X6035040Y-2345181D01*
X6050534Y-2355595D01*
X6102350Y-2407665D01*
X6102350Y-2334768D01*
D11*
X787400Y-722121D02*
G01*
X787400Y-915923D01*
X787400Y-722121D02*
G01*
X870457Y-722121D01*
X898144Y-731265D01*
X907542Y-740410D01*
X916686Y-758952D01*
X916686Y-786637D01*
X907542Y-805179D01*
X898144Y-814323D01*
X870457Y-823721D01*
X787400Y-823721D01*
X1088389Y-786637D02*
G01*
X1088389Y-915923D01*
X1088389Y-814323D02*
G01*
X1070102Y-796036D01*
X1051560Y-786637D01*
X1023873Y-786637D01*
X1005331Y-796036D01*
X986789Y-814323D01*
X977645Y-842010D01*
X977645Y-860552D01*
X986789Y-888237D01*
X1005331Y-906779D01*
X1023873Y-915923D01*
X1051560Y-915923D01*
X1070102Y-906779D01*
X1088389Y-888237D01*
X1149350Y-786637D02*
G01*
X1149350Y-915923D01*
X1149350Y-842010D02*
G01*
X1158747Y-814323D01*
X1177289Y-796036D01*
X1195578Y-786637D01*
X1223263Y-786637D01*
X1284223Y-722121D02*
G01*
X1284223Y-915923D01*
X1376679Y-786637D02*
G01*
X1284223Y-879094D01*
X1321307Y-842010D02*
G01*
X1385823Y-915923D01*
X1446784Y-842010D02*
G01*
X1557781Y-842010D01*
X1557781Y-823721D01*
X1548384Y-805179D01*
X1539239Y-796036D01*
X1520697Y-786637D01*
X1493012Y-786637D01*
X1474470Y-796036D01*
X1456181Y-814323D01*
X1446784Y-842010D01*
X1446784Y-860552D01*
X1456181Y-888237D01*
X1474470Y-906779D01*
X1493012Y-915923D01*
X1520697Y-915923D01*
X1539239Y-906779D01*
X1557781Y-888237D01*
X1618742Y-786637D02*
G01*
X1618742Y-915923D01*
X1618742Y-842010D02*
G01*
X1627886Y-814323D01*
X1646428Y-796036D01*
X1664970Y-786637D01*
X1692655Y-786637D01*
X1895855Y-722121D02*
G01*
X1941829Y-915923D01*
X1988058Y-722121D02*
G01*
X1941829Y-915923D01*
X1988058Y-722121D02*
G01*
X2034286Y-915923D01*
X2080513Y-722121D02*
G01*
X2034286Y-915923D01*
X2252218Y-786637D02*
G01*
X2252218Y-915923D01*
X2252218Y-814323D02*
G01*
X2233929Y-796036D01*
X2215388Y-786637D01*
X2187702Y-786637D01*
X2169159Y-796036D01*
X2150618Y-814323D01*
X2141474Y-842010D01*
X2141474Y-860552D01*
X2150618Y-888237D01*
X2169159Y-906779D01*
X2187702Y-915923D01*
X2215388Y-915923D01*
X2233929Y-906779D01*
X2252218Y-888237D01*
X2414777Y-814323D02*
G01*
X2405634Y-796036D01*
X2377947Y-786637D01*
X2350261Y-786637D01*
X2322575Y-796036D01*
X2313177Y-814323D01*
X2322575Y-832865D01*
X2340863Y-842010D01*
X2387091Y-851407D01*
X2405634Y-860552D01*
X2414777Y-879094D01*
X2414777Y-888237D01*
X2405634Y-906779D01*
X2377947Y-915923D01*
X2350261Y-915923D01*
X2322575Y-906779D01*
X2313177Y-888237D01*
X2475738Y-722121D02*
G01*
X2485136Y-731265D01*
X2494279Y-722121D01*
X2485136Y-712723D01*
X2475738Y-722121D01*
X2485136Y-786637D02*
G01*
X2485136Y-915923D01*
X2555240Y-722121D02*
G01*
X2555240Y-915923D01*
X2616200Y-842010D02*
G01*
X2726943Y-842010D01*
X2726943Y-823721D01*
X2717800Y-805179D01*
X2708656Y-796036D01*
X2690113Y-786637D01*
X2662427Y-786637D01*
X2643886Y-796036D01*
X2625343Y-814323D01*
X2616200Y-842010D01*
X2616200Y-860552D01*
X2625343Y-888237D01*
X2643886Y-906779D01*
X2662427Y-915923D01*
X2690113Y-915923D01*
X2708656Y-906779D01*
X2726943Y-888237D01*
X2889504Y-814323D02*
G01*
X2880359Y-796036D01*
X2852674Y-786637D01*
X2824988Y-786637D01*
X2797302Y-796036D01*
X2787904Y-814323D01*
X2797302Y-832865D01*
X2815590Y-842010D01*
X2861818Y-851407D01*
X2880359Y-860552D01*
X2889504Y-879094D01*
X2889504Y-888237D01*
X2880359Y-906779D01*
X2852674Y-915923D01*
X2824988Y-915923D01*
X2797302Y-906779D01*
X2787904Y-888237D01*
X2950463Y-722121D02*
G01*
X2950463Y-915923D01*
X3042920Y-786637D02*
G01*
X2950463Y-879094D01*
X2987547Y-842010D02*
G01*
X3052063Y-915923D01*
X3113024Y-722121D02*
G01*
X3122422Y-731265D01*
X3131565Y-722121D01*
X3122422Y-712723D01*
X3113024Y-722121D01*
X3122422Y-786637D02*
G01*
X3122422Y-915923D01*
D12*
X872744Y-1180337D02*
G01*
X872744Y-1328165D01*
X863600Y-1355852D01*
X854455Y-1365250D01*
X835913Y-1374394D01*
X808228Y-1374394D01*
X789686Y-1365250D01*
X872744Y-1208023D02*
G01*
X854455Y-1189736D01*
X835913Y-1180337D01*
X808228Y-1180337D01*
X789686Y-1189736D01*
X771144Y-1208023D01*
X762000Y-1235710D01*
X762000Y-1254252D01*
X771144Y-1281937D01*
X789686Y-1300479D01*
X808228Y-1309623D01*
X835913Y-1309623D01*
X854455Y-1300479D01*
X872744Y-1281937D01*
X933704Y-1115821D02*
G01*
X943102Y-1124965D01*
X952245Y-1115821D01*
X943102Y-1106423D01*
X933704Y-1115821D01*
X943102Y-1180337D02*
G01*
X943102Y-1309623D01*
X1040892Y-1115821D02*
G01*
X1040892Y-1272794D01*
X1050289Y-1300479D01*
X1068578Y-1309623D01*
X1087120Y-1309623D01*
X1013205Y-1180337D02*
G01*
X1077976Y-1180337D01*
X1148079Y-1115821D02*
G01*
X1148079Y-1309623D01*
X1148079Y-1217421D02*
G01*
X1175765Y-1189736D01*
X1194307Y-1180337D01*
X1221994Y-1180337D01*
X1240536Y-1189736D01*
X1249679Y-1217421D01*
X1249679Y-1309623D01*
X1310639Y-1180337D02*
G01*
X1310639Y-1272794D01*
X1319784Y-1300479D01*
X1338326Y-1309623D01*
X1366012Y-1309623D01*
X1384554Y-1300479D01*
X1412239Y-1272794D01*
X1412239Y-1180337D02*
G01*
X1412239Y-1309623D01*
X1473200Y-1115821D02*
G01*
X1473200Y-1309623D01*
X1473200Y-1208023D02*
G01*
X1491742Y-1189736D01*
X1510029Y-1180337D01*
X1537970Y-1180337D01*
X1556257Y-1189736D01*
X1574800Y-1208023D01*
X1583944Y-1235710D01*
X1583944Y-1254252D01*
X1574800Y-1281937D01*
X1556257Y-1300479D01*
X1537970Y-1309623D01*
X1510029Y-1309623D01*
X1491742Y-1300479D01*
X1473200Y-1281937D01*
X1654302Y-1263650D02*
G01*
X1644904Y-1272794D01*
X1654302Y-1281937D01*
X1663445Y-1272794D01*
X1654302Y-1263650D01*
X1835150Y-1208023D02*
G01*
X1816862Y-1189736D01*
X1798320Y-1180337D01*
X1770634Y-1180337D01*
X1752092Y-1189736D01*
X1733550Y-1208023D01*
X1724405Y-1235710D01*
X1724405Y-1254252D01*
X1733550Y-1281937D01*
X1752092Y-1300479D01*
X1770634Y-1309623D01*
X1798320Y-1309623D01*
X1816862Y-1300479D01*
X1835150Y-1281937D01*
X1942338Y-1180337D02*
G01*
X1924050Y-1189736D01*
X1905507Y-1208023D01*
X1896110Y-1235710D01*
X1896110Y-1254252D01*
X1905507Y-1281937D01*
X1924050Y-1300479D01*
X1942338Y-1309623D01*
X1970024Y-1309623D01*
X1988565Y-1300479D01*
X2007108Y-1281937D01*
X2016252Y-1254252D01*
X2016252Y-1235710D01*
X2007108Y-1208023D01*
X1988565Y-1189736D01*
X1970024Y-1180337D01*
X1942338Y-1180337D01*
X2077211Y-1180337D02*
G01*
X2077211Y-1309623D01*
X2077211Y-1217421D02*
G01*
X2104897Y-1189736D01*
X2123440Y-1180337D01*
X2151125Y-1180337D01*
X2169668Y-1189736D01*
X2178811Y-1217421D01*
X2178811Y-1309623D01*
X2178811Y-1217421D02*
G01*
X2206497Y-1189736D01*
X2225040Y-1180337D01*
X2252725Y-1180337D01*
X2271268Y-1189736D01*
X2280411Y-1217421D01*
X2280411Y-1309623D01*
X2507741Y-1078737D02*
G01*
X2341372Y-1374394D01*
X2568702Y-1115821D02*
G01*
X2568702Y-1309623D01*
X2568702Y-1115821D02*
G01*
X2651759Y-1115821D01*
X2679445Y-1124965D01*
X2688590Y-1134110D01*
X2697988Y-1152652D01*
X2697988Y-1180337D01*
X2688590Y-1198879D01*
X2679445Y-1208023D01*
X2651759Y-1217421D01*
X2568702Y-1217421D01*
X2869691Y-1180337D02*
G01*
X2869691Y-1309623D01*
X2869691Y-1208023D02*
G01*
X2851150Y-1189736D01*
X2832861Y-1180337D01*
X2805175Y-1180337D01*
X2786634Y-1189736D01*
X2768091Y-1208023D01*
X2758947Y-1235710D01*
X2758947Y-1254252D01*
X2768091Y-1281937D01*
X2786634Y-1300479D01*
X2805175Y-1309623D01*
X2832861Y-1309623D01*
X2851150Y-1300479D01*
X2869691Y-1281937D01*
X2930652Y-1180337D02*
G01*
X2930652Y-1309623D01*
X2930652Y-1235710D02*
G01*
X2940050Y-1208023D01*
X2958338Y-1189736D01*
X2976879Y-1180337D01*
X3004565Y-1180337D01*
X3065525Y-1115821D02*
G01*
X3065525Y-1309623D01*
X3157981Y-1180337D02*
G01*
X3065525Y-1272794D01*
X3102609Y-1235710D02*
G01*
X3167125Y-1309623D01*
X3228086Y-1235710D02*
G01*
X3338829Y-1235710D01*
X3338829Y-1217421D01*
X3329686Y-1198879D01*
X3320541Y-1189736D01*
X3302000Y-1180337D01*
X3274313Y-1180337D01*
X3255772Y-1189736D01*
X3237229Y-1208023D01*
X3228086Y-1235710D01*
X3228086Y-1254252D01*
X3237229Y-1281937D01*
X3255772Y-1300479D01*
X3274313Y-1309623D01*
X3302000Y-1309623D01*
X3320541Y-1300479D01*
X3338829Y-1281937D01*
X3399790Y-1180337D02*
G01*
X3399790Y-1309623D01*
X3399790Y-1235710D02*
G01*
X3409188Y-1208023D01*
X3427729Y-1189736D01*
X3446018Y-1180337D01*
X3473704Y-1180337D01*
X3534663Y-1115821D02*
G01*
X3580891Y-1309623D01*
X3627120Y-1115821D02*
G01*
X3580891Y-1309623D01*
X3627120Y-1115821D02*
G01*
X3673347Y-1309623D01*
X3719575Y-1115821D02*
G01*
X3673347Y-1309623D01*
X3780536Y-1152652D02*
G01*
X3798824Y-1143507D01*
X3826509Y-1115821D01*
X3826509Y-1309623D01*
X3896868Y-1162050D02*
G01*
X3896868Y-1152652D01*
X3906011Y-1134110D01*
X3915409Y-1124965D01*
X3933697Y-1115821D01*
X3970781Y-1115821D01*
X3989070Y-1124965D01*
X3998468Y-1134110D01*
X4007611Y-1152652D01*
X4007611Y-1171194D01*
X3998468Y-1189736D01*
X3979925Y-1217421D01*
X3887470Y-1309623D01*
X4017009Y-1309623D01*
X4096258Y-1115821D02*
G01*
X4197858Y-1115821D01*
X4142486Y-1189736D01*
X4170172Y-1189736D01*
X4188713Y-1198879D01*
X4197858Y-1208023D01*
X4207256Y-1235710D01*
X4207256Y-1254252D01*
X4197858Y-1281937D01*
X4179570Y-1300479D01*
X4151629Y-1309623D01*
X4123943Y-1309623D01*
X4096258Y-1300479D01*
X4087113Y-1291336D01*
X4077970Y-1272794D01*
X4360418Y-1115821D02*
G01*
X4268215Y-1245107D01*
X4406645Y-1245107D01*
X4360418Y-1115821D02*
G01*
X4360418Y-1309623D01*
D13*
X5161442Y-2486581D02*
G01*
X5161442Y-2406583D01*
X5161396Y-2542626D02*
G01*
X5161396Y-2622623D01*
X5303410Y-2486581D02*
G01*
X5303410Y-2406583D01*
X5303362Y-2542626D02*
G01*
X5303362Y-2622623D01*
X5192425Y-2375608D02*
G01*
X5272430Y-2375608D01*
X5272377Y-2653601D02*
G01*
X5192374Y-2653601D01*
X5072700Y-2018499D02*
G01*
X5112699Y-1978499D01*
X5122699Y-1968500D01*
X5112699Y-1958474D01*
X5072700Y-1918474D01*
X5072700Y-2018499D02*
G01*
X5072700Y-1918474D01*
X5048377Y-1866772D02*
G01*
X4893436Y-1866772D01*
X4893436Y-2069972D01*
X5048377Y-2069972D01*
X5127116Y-1864232D02*
G01*
X5274436Y-1864232D01*
X5315077Y-1904872D01*
X5315077Y-2031872D01*
X5276977Y-2069972D01*
X5124577Y-2069972D01*
D10*
X4886939Y-2569921D02*
G01*
X4886939Y-2665808D01*
X5019060Y-2665808D01*
X5019060Y-2569921D01*
X4886939Y-2484678D02*
G01*
X4886939Y-2388791D01*
X5019060Y-2388791D01*
X5019060Y-2484678D01*
D13*
X5527593Y-2627312D02*
G01*
X5513405Y-2627312D01*
X5713407Y-2559819D02*
G01*
X5713407Y-2627312D01*
X5699211Y-2627312D01*
X5699211Y-2427312D02*
G01*
X5713407Y-2427312D01*
X5713407Y-2494810D01*
X5513405Y-2427312D02*
G01*
X5527593Y-2427312D01*
X5513405Y-2494810D02*
G01*
X5513405Y-2427312D01*
X5513405Y-2627312D02*
G01*
X5513405Y-2559819D01*
G75*
G01*
X5303363Y-2622619D02*
G02*
X5272377Y-2653601I-30983J0D01*
G75*
G01*
X5192380Y-2653601D02*
G02*
X5161397Y-2622619I0J30982D01*
G75*
G01*
X5161443Y-2406589D02*
G02*
X5192425Y-2375609I30982J-3D01*
G75*
G01*
X5272423Y-2375609D02*
G02*
X5303411Y-2406589I5J-30983D01*
G75*
G01
X5670517Y-2400303D02*
G03X5670517Y-2400303I-6350J0D01*
M02*
