G04 Layer: TopLayer*
G04 EasyEDA v6.5.51, 2026-01-04 16:33:54*
G04 179cb109973c4d86bd089ae42ce1d13a,b0fcb86846164242a958a805a75853bb,10*
G04 Gerber Generator version 0.2*
G04 Scale: 100 percent, Rotated: No, Reflected: No *
G04 Dimensions in millimeters *
G04 leading zeros omitted , absolute positions ,4 integer and 5 decimal *
%FSLAX45Y45*%
%MOMM*%

%AMMACRO1*21,1,$1,$2,0,0,$3*%
%ADD10C,0.2540*%
%ADD11C,0.3000*%
%ADD12R,0.9000X0.8000*%
%ADD13MACRO1,1X1.3995X0.0000*%
%ADD14R,1.0000X1.3995*%
%ADD15MACRO1,0.864X0.8065X0.0000*%
%ADD16R,0.8640X0.8065*%
%ADD17R,0.0179X0.8065*%
%ADD18R,0.4000X0.2200*%
%ADD19R,0.2200X0.4000*%
%ADD20R,0.2800X0.4000*%
%ADD21R,0.7501X0.3000*%
%ADD22C,0.8080*%
%ADD23C,0.6096*%

%LPD*%
D10*
X5232400Y-2584602D02*
G01*
X5159425Y-2584602D01*
X4953000Y-2602636D02*
G01*
X5141391Y-2602636D01*
X5159425Y-2584602D01*
X5232400Y-2584602D02*
G01*
X5305374Y-2584602D01*
X5663387Y-2587294D02*
G01*
X5663387Y-2635250D01*
X5663387Y-2635250D02*
G01*
X5659475Y-2639161D01*
X5359933Y-2639161D01*
X5305374Y-2584602D01*
X5330774Y-2419197D02*
G01*
X5305374Y-2444597D01*
X5613400Y-2419324D02*
G01*
X5613272Y-2419197D01*
X5330774Y-2419197D01*
X5275706Y-1968500D02*
G01*
X5330774Y-2023567D01*
X5330774Y-2419197D01*
X5197729Y-1968500D02*
G01*
X5275706Y-1968500D01*
X5232400Y-2444597D02*
G01*
X5305374Y-2444597D01*
X5613400Y-2467305D02*
G01*
X5613400Y-2419324D01*
X4953000Y-2451963D02*
G01*
X4953000Y-2383688D01*
X4953000Y-2383688D02*
G01*
X4987670Y-2349017D01*
X4987670Y-1968500D01*
X5673394Y-2527300D02*
G01*
X6178168Y-2527300D01*
X6190995Y-2514472D01*
X6553200Y-2451100D02*
G01*
X6512204Y-2451100D01*
X6495694Y-2434589D01*
X6495694Y-384606D01*
X6495795Y-382143D01*
X6496100Y-379679D01*
X6496608Y-377266D01*
X6497294Y-374904D01*
X6498209Y-372618D01*
X6499275Y-370382D01*
X6500545Y-368274D01*
X6501968Y-366268D01*
X6503543Y-364362D01*
X6505295Y-362610D01*
X6507175Y-361010D01*
X6509156Y-359562D01*
X6511264Y-358292D01*
X6513499Y-357200D01*
X6515785Y-356285D01*
X6518147Y-355574D01*
X6520561Y-355041D01*
X6522999Y-354736D01*
X6525463Y-354609D01*
X6525691Y-354609D01*
X5663438Y-2467355D02*
G01*
X5663438Y-1752600D01*
X4635500Y-1752600D01*
X4635500Y-2654300D01*
X4686300Y-2705100D01*
X6121400Y-2705100D01*
X6172200Y-2654300D01*
X6172200Y-2578100D01*
D11*
X8515705Y-4644593D02*
G01*
X8515705Y-384606D01*
X8575700Y-4644593D02*
G01*
X8575700Y-384606D01*
X8635695Y-4644593D02*
G01*
X8635695Y-384606D01*
X8695690Y-4644593D02*
G01*
X8695690Y-384606D01*
X8755684Y-4644593D02*
G01*
X8755684Y-384606D01*
X6525691Y-4674590D02*
G01*
X8485708Y-4674590D01*
X6525691Y-4734585D02*
G01*
X8485708Y-4734585D01*
X6525691Y-4794605D02*
G01*
X8485708Y-4794605D01*
X6525691Y-4854600D02*
G01*
X8485708Y-4854600D01*
X6525691Y-4914595D02*
G01*
X8485708Y-4914595D01*
X6525691Y-354609D02*
G01*
X8485708Y-354609D01*
X6525691Y-294614D02*
G01*
X8485708Y-294614D01*
X6525691Y-234594D02*
G01*
X8485708Y-234594D01*
X6525691Y-174599D02*
G01*
X8485708Y-174599D01*
X6525691Y-114604D02*
G01*
X8485708Y-114604D01*
X6495694Y-4644593D02*
G01*
X6495694Y-2514600D01*
X6435699Y-2454605D01*
X6435699Y-384606D01*
X6375704Y-4644593D02*
G01*
X6375704Y-2554604D01*
X6315709Y-2494610D01*
X6315709Y-384606D01*
X6435699Y-4644593D02*
G01*
X6435699Y-2534589D01*
X6375704Y-2474595D01*
X6375704Y-384606D01*
X6315709Y-4644593D02*
G01*
X6315709Y-2574594D01*
X6255689Y-2514600D01*
X6255689Y-384606D01*
X6495694Y-384606D02*
G01*
X6495694Y-2434589D01*
X6512204Y-2451100D01*
X6553200Y-2451100D01*
X6159500Y-2578100D02*
G01*
X6172200Y-2578100D01*
X6239205Y-2578100D01*
X6255689Y-2594610D01*
X6255689Y-4644593D01*
D12*
G01*
X5232400Y-2584602D03*
G01*
X5232400Y-2444597D03*
D13*
G01*
X5197729Y-1968500D03*
D14*
G01*
X4987670Y-1968500D03*
D15*
G01*
X4953000Y-2602624D03*
D16*
G01*
X4953000Y-2451963D03*
D18*
G01*
X5673394Y-2527300D03*
D19*
G01*
X5663387Y-2587294D03*
G01*
X5613400Y-2587294D03*
G01*
X5563387Y-2587294D03*
D18*
G01*
X5553405Y-2527300D03*
D19*
G01*
X5563412Y-2467305D03*
G01*
X5613400Y-2467305D03*
D20*
G01*
X5663387Y-2467305D03*
D21*
G01*
X6172200Y-2578100D03*
D11*
G75*
G01*
X6495694Y-384607D02*
G02*
X6525692Y-354609I29998J0D01*
G75*
G01*
X6435700Y-384607D02*
G02*
X6525692Y-294615I89992J0D01*
G75*
G01*
X6375705Y-384607D02*
G02*
X6525692Y-234594I149987J26D01*
G75*
G01*
X6315710Y-384607D02*
G02*
X6525692Y-174600I210007J0D01*
G75*
G01*
X6255690Y-384607D02*
G02*
X6525692Y-114605I270002J0D01*
G75*
G01*
X6495694Y-4644593D02*
G03*
X6525692Y-4674591I29998J0D01*
G75*
G01*
X6435700Y-4644593D02*
G03*
X6525692Y-4734585I89992J0D01*
G75*
G01*
X6375705Y-4644593D02*
G03*
X6525692Y-4794606I149987J-26D01*
G75*
G01*
X6315710Y-4644593D02*
G03*
X6525692Y-4854600I210007J0D01*
G75*
G01*
X6255690Y-4644593D02*
G03*
X6525692Y-4914595I270002J0D01*
G75*
G01*
X8515706Y-4644593D02*
G02*
X8485708Y-4674591I-29998J0D01*
G75*
G01*
X8575700Y-4644593D02*
G02*
X8485708Y-4734585I-89992J0D01*
G75*
G01*
X8635695Y-4644593D02*
G02*
X8485708Y-4794606I-149987J-26D01*
G75*
G01*
X8695690Y-4644593D02*
G02*
X8485708Y-4854600I-210007J0D01*
G75*
G01*
X8755710Y-4644593D02*
G02*
X8485708Y-4914595I-270002J0D01*
G75*
G01*
X8515706Y-384607D02*
G03*
X8485708Y-354609I-29998J0D01*
G75*
G01*
X8575700Y-384607D02*
G03*
X8485708Y-294615I-89992J0D01*
G75*
G01*
X8635695Y-384607D02*
G03*
X8485708Y-234594I-149987J26D01*
G75*
G01*
X8695690Y-384607D02*
G03*
X8485708Y-174600I-210007J0D01*
G75*
G01*
X8755710Y-384607D02*
G03*
X8485708Y-114605I-270002J0D01*
D22*
G01*
X6553200Y-2451100D03*
D23*
G01*
X6190995Y-2514472D03*
M02*
