G04 Layer: TopSilkscreenLayer*
G04 EasyEDA v6.5.51, 2026-01-04 16:33:54*
G04 179cb109973c4d86bd089ae42ce1d13a,b0fcb86846164242a958a805a75853bb,10*
G04 Gerber Generator version 0.2*
G04 Scale: 100 percent, Rotated: No, Reflected: No *
G04 Dimensions in millimeters *
G04 leading zeros omitted , absolute positions ,4 integer and 5 decimal *
%FSLAX45Y45*%
%MOMM*%

%ADD10C,0.1524*%
%ADD11C,0.2540*%
%ADD12C,0.0198*%

%LPD*%
G36*
X254000Y-3917848D02*
G01*
X254000Y-3952849D01*
X460501Y-3952849D01*
X460501Y-4124350D01*
X289001Y-4124350D01*
X289001Y-3952849D01*
X254000Y-3952849D01*
X254000Y-4159351D01*
X495249Y-4159097D01*
X495503Y-3917848D01*
G37*
G36*
X598982Y-3917848D02*
G01*
X598982Y-3952849D01*
X633018Y-3952849D01*
X633018Y-3917848D01*
G37*
G36*
X737006Y-3917848D02*
G01*
X736752Y-3952595D01*
X668020Y-3952849D01*
X668020Y-3986834D01*
X701751Y-3987088D01*
X702005Y-4020820D01*
X770737Y-4021124D01*
X770737Y-4055618D01*
X702005Y-4055872D01*
X701751Y-4089603D01*
X668274Y-4089603D01*
X667969Y-4055872D01*
X633018Y-4055872D01*
X633018Y-4089857D01*
X667766Y-4090111D01*
X667766Y-4158589D01*
X633272Y-4158589D01*
X632968Y-4124858D01*
X599033Y-4124858D01*
X598728Y-4158589D01*
X564235Y-4158589D01*
X563981Y-4055872D01*
X529996Y-4055872D01*
X529996Y-4158843D01*
X563727Y-4159097D01*
X563727Y-4193641D01*
X529996Y-4193844D01*
X529742Y-4227576D01*
X495249Y-4227576D01*
X494995Y-4193844D01*
X461009Y-4193844D01*
X461009Y-4227880D01*
X494741Y-4228084D01*
X494741Y-4262577D01*
X461009Y-4262882D01*
X460756Y-4296613D01*
X357225Y-4296613D01*
X357225Y-4263085D01*
X391972Y-4262882D01*
X392226Y-4228084D01*
X426008Y-4227880D01*
X426008Y-4193844D01*
X392023Y-4193844D01*
X391769Y-4227576D01*
X323240Y-4227576D01*
X322986Y-4193844D01*
X289001Y-4193844D01*
X288747Y-4227576D01*
X254000Y-4227880D01*
X254000Y-4262882D01*
X289001Y-4262882D01*
X289255Y-4228084D01*
X322732Y-4228084D01*
X322732Y-4296613D01*
X254000Y-4296867D01*
X254000Y-4298137D01*
X460959Y-4298137D01*
X461467Y-4296816D01*
X494741Y-4297121D01*
X494741Y-4331614D01*
X461264Y-4331614D01*
X460959Y-4298137D01*
X254000Y-4298137D01*
X254000Y-4365853D01*
X289001Y-4365853D01*
X289255Y-4332071D01*
X356768Y-4332071D01*
X356768Y-4365599D01*
X322986Y-4365904D01*
X322986Y-4367123D01*
X391972Y-4367123D01*
X392480Y-4365853D01*
X425754Y-4366107D01*
X425754Y-4400600D01*
X392226Y-4400600D01*
X391972Y-4367123D01*
X322986Y-4367123D01*
X322986Y-4402124D01*
X356971Y-4402124D01*
X357479Y-4400854D01*
X391769Y-4401108D01*
X391769Y-4434586D01*
X357225Y-4434586D01*
X356971Y-4402124D01*
X322986Y-4402124D01*
X322986Y-4469841D01*
X391769Y-4470095D01*
X391769Y-4503572D01*
X357022Y-4503877D01*
X356768Y-4538573D01*
X323240Y-4538573D01*
X322986Y-4503826D01*
X254000Y-4503826D01*
X254000Y-4538827D01*
X322732Y-4539081D01*
X322732Y-4607610D01*
X254000Y-4607864D01*
X254000Y-4641850D01*
X356971Y-4641850D01*
X357225Y-4573117D01*
X391972Y-4572812D01*
X392226Y-4504080D01*
X529996Y-4503826D01*
X529996Y-4469841D01*
X426262Y-4469587D01*
X426262Y-4435094D01*
X494995Y-4434840D01*
X494995Y-4400854D01*
X461264Y-4400600D01*
X461264Y-4366107D01*
X494995Y-4365853D01*
X495249Y-4332071D01*
X563727Y-4332071D01*
X563727Y-4365599D01*
X529996Y-4365904D01*
X529996Y-4400854D01*
X563981Y-4400854D01*
X564235Y-4366107D01*
X632968Y-4365853D01*
X633272Y-4332071D01*
X668020Y-4331868D01*
X668020Y-4296867D01*
X633018Y-4296867D01*
X632764Y-4331614D01*
X564235Y-4331614D01*
X563981Y-4296867D01*
X530250Y-4296613D01*
X530250Y-4228084D01*
X563727Y-4228084D01*
X564032Y-4262882D01*
X598982Y-4262882D01*
X599236Y-4194098D01*
X632764Y-4194098D01*
X633018Y-4227880D01*
X667969Y-4227880D01*
X668274Y-4159097D01*
X701751Y-4159097D01*
X702005Y-4227880D01*
X736752Y-4228084D01*
X737006Y-4262882D01*
X805992Y-4262882D01*
X805992Y-4193844D01*
X737260Y-4193641D01*
X737260Y-4159097D01*
X770991Y-4158843D01*
X770991Y-4124858D01*
X737006Y-4124858D01*
X736752Y-4158589D01*
X702259Y-4158589D01*
X702259Y-4090111D01*
X770991Y-4089857D01*
X771245Y-4056075D01*
X805992Y-4055872D01*
X806246Y-4021124D01*
X874725Y-4021124D01*
X874725Y-4126128D01*
X908964Y-4126128D01*
X909472Y-4124858D01*
X943762Y-4125112D01*
X943762Y-4158589D01*
X909269Y-4158589D01*
X908964Y-4126128D01*
X874725Y-4126128D01*
X874725Y-4158589D01*
X840232Y-4158589D01*
X839978Y-4124858D01*
X805992Y-4124858D01*
X805992Y-4158843D01*
X839724Y-4159097D01*
X840028Y-4193844D01*
X874725Y-4194098D01*
X874725Y-4227576D01*
X839978Y-4227880D01*
X839978Y-4229150D01*
X874979Y-4229150D01*
X875487Y-4227880D01*
X908761Y-4228084D01*
X908761Y-4229150D01*
X1046987Y-4229150D01*
X1047496Y-4227880D01*
X1081735Y-4228084D01*
X1081735Y-4262577D01*
X1047242Y-4262577D01*
X1046987Y-4229150D01*
X908761Y-4229150D01*
X908761Y-4262577D01*
X875233Y-4262577D01*
X874979Y-4229150D01*
X839978Y-4229150D01*
X839978Y-4262882D01*
X874725Y-4263085D01*
X874725Y-4296613D01*
X805992Y-4296867D01*
X805738Y-4331614D01*
X771245Y-4331614D01*
X770991Y-4296867D01*
X737006Y-4296867D01*
X736752Y-4331614D01*
X702005Y-4331868D01*
X701999Y-4333087D01*
X805992Y-4333087D01*
X806450Y-4331868D01*
X839724Y-4332071D01*
X839724Y-4365599D01*
X806246Y-4365599D01*
X805992Y-4333087D01*
X701999Y-4333087D01*
X701751Y-4400600D01*
X633018Y-4400854D01*
X633007Y-4402124D01*
X702005Y-4402124D01*
X702462Y-4400854D01*
X736752Y-4401108D01*
X736752Y-4434586D01*
X806246Y-4434586D01*
X806246Y-4401108D01*
X874725Y-4401108D01*
X875030Y-4434840D01*
X909015Y-4434840D01*
X909269Y-4366107D01*
X944016Y-4365853D01*
X944016Y-4331868D01*
X909269Y-4331614D01*
X908964Y-4264101D01*
X909472Y-4262882D01*
X943762Y-4263085D01*
X944016Y-4296816D01*
X977747Y-4297121D01*
X978001Y-4331868D01*
X1013002Y-4331868D01*
X1013256Y-4263085D01*
X1046734Y-4263085D01*
X1046987Y-4296867D01*
X1081989Y-4296867D01*
X1082243Y-4263085D01*
X1218742Y-4263085D01*
X1218742Y-4296613D01*
X1185011Y-4296867D01*
X1185011Y-4331868D01*
X1218742Y-4332071D01*
X1218742Y-4365599D01*
X1150975Y-4365904D01*
X1150975Y-4400854D01*
X1184757Y-4401108D01*
X1185011Y-4469841D01*
X1218742Y-4470095D01*
X1218742Y-4572609D01*
X1185265Y-4572609D01*
X1185011Y-4503826D01*
X1151026Y-4503826D01*
X1150721Y-4538573D01*
X1116228Y-4538573D01*
X1115974Y-4503877D01*
X1082243Y-4503572D01*
X1082243Y-4435094D01*
X1115771Y-4435094D01*
X1116025Y-4469841D01*
X1150975Y-4469841D01*
X1150975Y-4434840D01*
X1116228Y-4434586D01*
X1115974Y-4365904D01*
X1082243Y-4365599D01*
X1081989Y-4331868D01*
X1046987Y-4331868D01*
X1046734Y-4365599D01*
X1013002Y-4365904D01*
X1012997Y-4367072D01*
X1046987Y-4367072D01*
X1047496Y-4365853D01*
X1081735Y-4366107D01*
X1081735Y-4434586D01*
X1047242Y-4434586D01*
X1046987Y-4367072D01*
X1012997Y-4367072D01*
X1012748Y-4434586D01*
X978255Y-4434586D01*
X978001Y-4400854D01*
X944016Y-4400854D01*
X944016Y-4434840D01*
X977747Y-4435094D01*
X977747Y-4436110D01*
X1013002Y-4436110D01*
X1013460Y-4434840D01*
X1046734Y-4435094D01*
X1046734Y-4503572D01*
X1013256Y-4503572D01*
X1013002Y-4436110D01*
X977747Y-4436110D01*
X977747Y-4469587D01*
X909015Y-4469841D01*
X908761Y-4503572D01*
X840232Y-4503572D01*
X839978Y-4434840D01*
X806246Y-4434586D01*
X702259Y-4434586D01*
X702005Y-4402124D01*
X633007Y-4402124D01*
X632764Y-4434586D01*
X563981Y-4434840D01*
X563981Y-4469841D01*
X667969Y-4469841D01*
X668274Y-4435094D01*
X701751Y-4435094D01*
X702005Y-4469841D01*
X737006Y-4469841D01*
X737260Y-4435094D01*
X770737Y-4435094D01*
X770991Y-4469841D01*
X805738Y-4470095D01*
X805992Y-4503826D01*
X839724Y-4504080D01*
X839732Y-4505096D01*
X943965Y-4505096D01*
X944473Y-4503826D01*
X1012748Y-4504080D01*
X1013002Y-4538827D01*
X1046987Y-4538827D01*
X1047242Y-4504080D01*
X1081735Y-4504080D01*
X1081735Y-4572609D01*
X1046987Y-4572863D01*
X1046734Y-4607610D01*
X978255Y-4607610D01*
X978001Y-4572863D01*
X944270Y-4572609D01*
X943965Y-4505096D01*
X839732Y-4505096D01*
X840028Y-4538827D01*
X874725Y-4539081D01*
X874725Y-4572609D01*
X806246Y-4572609D01*
X805992Y-4538878D01*
X771245Y-4538573D01*
X770991Y-4503826D01*
X737006Y-4503826D01*
X736752Y-4538573D01*
X702259Y-4538573D01*
X702005Y-4503826D01*
X668020Y-4503826D01*
X667766Y-4538573D01*
X633272Y-4538573D01*
X632968Y-4503826D01*
X563981Y-4503826D01*
X563981Y-4538827D01*
X598728Y-4539081D01*
X598728Y-4572609D01*
X563981Y-4572863D01*
X563981Y-4607814D01*
X598728Y-4608118D01*
X598728Y-4641596D01*
X530250Y-4641596D01*
X529996Y-4607864D01*
X461264Y-4607610D01*
X461264Y-4573117D01*
X494995Y-4572812D01*
X494995Y-4538827D01*
X426008Y-4538827D01*
X425754Y-4607610D01*
X392023Y-4607864D01*
X392023Y-4641850D01*
X529742Y-4642104D01*
X529996Y-4676851D01*
X563727Y-4677105D01*
X564030Y-4710582D01*
X633272Y-4710582D01*
X633272Y-4573117D01*
X737006Y-4572863D01*
X737006Y-4539488D01*
X737666Y-4538827D01*
X770737Y-4539081D01*
X770891Y-4574082D01*
X874979Y-4574082D01*
X875487Y-4572812D01*
X908761Y-4573117D01*
X909015Y-4607814D01*
X943762Y-4608118D01*
X943762Y-4643120D01*
X978001Y-4643120D01*
X978458Y-4641850D01*
X1081735Y-4642104D01*
X1081735Y-4745583D01*
X978255Y-4745583D01*
X978001Y-4643120D01*
X943762Y-4643120D01*
X943762Y-4676597D01*
X909269Y-4676597D01*
X908964Y-4641850D01*
X875233Y-4641596D01*
X874979Y-4574082D01*
X770891Y-4574082D01*
X770991Y-4607864D01*
X839724Y-4608118D01*
X840028Y-4641850D01*
X874725Y-4642104D01*
X874725Y-4676597D01*
X840028Y-4676851D01*
X840017Y-4678121D01*
X874979Y-4678121D01*
X875487Y-4676851D01*
X908761Y-4677105D01*
X908761Y-4710582D01*
X875233Y-4710582D01*
X874979Y-4678121D01*
X840017Y-4678121D01*
X839724Y-4710582D01*
X806246Y-4710582D01*
X805992Y-4641850D01*
X737260Y-4641596D01*
X737006Y-4607864D01*
X702005Y-4607864D01*
X701751Y-4641596D01*
X668020Y-4641850D01*
X667862Y-4678121D01*
X702005Y-4678121D01*
X702462Y-4676851D01*
X736752Y-4677105D01*
X736752Y-4710582D01*
X702259Y-4710582D01*
X702005Y-4678121D01*
X667862Y-4678121D01*
X667766Y-4710582D01*
X564030Y-4710582D01*
X564032Y-4710836D01*
X632764Y-4711090D01*
X632764Y-4745583D01*
X529996Y-4745837D01*
X529996Y-4779822D01*
X563727Y-4780076D01*
X564032Y-4814824D01*
X701751Y-4815078D01*
X701751Y-4848606D01*
X598982Y-4848860D01*
X598982Y-4917846D01*
X632968Y-4917846D01*
X633272Y-4883099D01*
X667766Y-4883099D01*
X668020Y-4917846D01*
X702005Y-4917846D01*
X702259Y-4849114D01*
X770991Y-4848860D01*
X770991Y-4814874D01*
X702259Y-4814620D01*
X702005Y-4779873D01*
X633272Y-4779619D01*
X633272Y-4746091D01*
X667969Y-4745837D01*
X668274Y-4711090D01*
X701751Y-4711090D01*
X702005Y-4745837D01*
X737006Y-4745837D01*
X737260Y-4711090D01*
X805738Y-4711090D01*
X805992Y-4745837D01*
X874725Y-4746091D01*
X874725Y-4779619D01*
X805992Y-4779873D01*
X805992Y-4848809D01*
X839724Y-4849114D01*
X839724Y-4882591D01*
X770991Y-4882845D01*
X770991Y-4917846D01*
X874979Y-4917846D01*
X875233Y-4883099D01*
X908761Y-4883099D01*
X909015Y-4917846D01*
X978001Y-4917846D01*
X978001Y-4882845D01*
X909269Y-4882591D01*
X909269Y-4849114D01*
X1012748Y-4849114D01*
X1013002Y-4882845D01*
X1081735Y-4883099D01*
X1081989Y-4917846D01*
X1115974Y-4917846D01*
X1115974Y-4882845D01*
X1082243Y-4882591D01*
X1081989Y-4848860D01*
X1013256Y-4848606D01*
X1013002Y-4814824D01*
X909015Y-4814824D01*
X908761Y-4848606D01*
X875233Y-4848606D01*
X875233Y-4780076D01*
X1046734Y-4780076D01*
X1046987Y-4814824D01*
X1081989Y-4814824D01*
X1082243Y-4780076D01*
X1115771Y-4780076D01*
X1116025Y-4814824D01*
X1150721Y-4815078D01*
X1151026Y-4848809D01*
X1184757Y-4849114D01*
X1185011Y-4917846D01*
X1218996Y-4917846D01*
X1219250Y-4883099D01*
X1253998Y-4882845D01*
X1253998Y-4814874D01*
X1219250Y-4814620D01*
X1219250Y-4780076D01*
X1253998Y-4779822D01*
X1253998Y-4745837D01*
X1185011Y-4745837D01*
X1184757Y-4779619D01*
X1116228Y-4779619D01*
X1116228Y-4746091D01*
X1150975Y-4745837D01*
X1150975Y-4710836D01*
X1116228Y-4710582D01*
X1115974Y-4607864D01*
X1082243Y-4607610D01*
X1082243Y-4573117D01*
X1184757Y-4573117D01*
X1185011Y-4607814D01*
X1218742Y-4608118D01*
X1218742Y-4641596D01*
X1150975Y-4641850D01*
X1150975Y-4676851D01*
X1184757Y-4677105D01*
X1185011Y-4710836D01*
X1253998Y-4710836D01*
X1253998Y-4227880D01*
X1185265Y-4227576D01*
X1184960Y-4193844D01*
X1151026Y-4193844D01*
X1150721Y-4227576D01*
X1116228Y-4227576D01*
X1115974Y-4193844D01*
X1046987Y-4193844D01*
X1046734Y-4227576D01*
X1013256Y-4227576D01*
X1013002Y-4193844D01*
X978001Y-4193844D01*
X977747Y-4227576D01*
X944270Y-4227576D01*
X944270Y-4159097D01*
X978001Y-4158843D01*
X978001Y-4089857D01*
X909269Y-4089603D01*
X909269Y-4056075D01*
X943965Y-4055872D01*
X944270Y-4021124D01*
X978001Y-4020820D01*
X978001Y-3952849D01*
X944270Y-3952595D01*
X943965Y-3917848D01*
X875030Y-3917848D01*
X874725Y-3952595D01*
X840028Y-3952849D01*
X840017Y-3954119D01*
X874979Y-3954119D01*
X875487Y-3952849D01*
X943762Y-3953103D01*
X943762Y-3986580D01*
X875233Y-3986580D01*
X874979Y-3954119D01*
X840017Y-3954119D01*
X839724Y-3986580D01*
X805992Y-3986885D01*
X805738Y-4020616D01*
X771245Y-4020616D01*
X770991Y-3986885D01*
X737260Y-3986580D01*
X737260Y-3953103D01*
X770991Y-3952849D01*
X770991Y-3917848D01*
G37*
G36*
X1012494Y-3917848D02*
G01*
X1012539Y-3952849D01*
X1218996Y-3952849D01*
X1218996Y-4124350D01*
X1047496Y-4124350D01*
X1047496Y-3952849D01*
X1012539Y-3952849D01*
X1012748Y-4159097D01*
X1253998Y-4159351D01*
X1253998Y-3917848D01*
G37*
G36*
X322986Y-3986885D02*
G01*
X322986Y-4090365D01*
X426262Y-4090111D01*
X426516Y-3986885D01*
G37*
G36*
X529996Y-3986885D02*
G01*
X529996Y-4020870D01*
X563981Y-4020870D01*
X563981Y-3986885D01*
G37*
G36*
X598982Y-3986885D02*
G01*
X598982Y-4020870D01*
X633018Y-4020870D01*
X633018Y-3986885D01*
G37*
G36*
X1081481Y-3986885D02*
G01*
X1081735Y-4090111D01*
X1185011Y-4090365D01*
X1185011Y-3986885D01*
G37*
G36*
X254000Y-4676343D02*
G01*
X254000Y-4711344D01*
X460501Y-4711344D01*
X460501Y-4882845D01*
X289001Y-4882845D01*
X289001Y-4711344D01*
X254000Y-4711344D01*
X254000Y-4917846D01*
X495503Y-4917846D01*
X495249Y-4676597D01*
G37*
G36*
X1013002Y-4676851D02*
G01*
X1013002Y-4710836D01*
X1046987Y-4710836D01*
X1046987Y-4676851D01*
G37*
G36*
X322986Y-4745329D02*
G01*
X322986Y-4848860D01*
X426516Y-4848860D01*
X426262Y-4745583D01*
G37*
G36*
X529996Y-4848860D02*
G01*
X529996Y-4882845D01*
X563981Y-4882845D01*
X563981Y-4848860D01*
G37*
G36*
X1646072Y-383489D02*
G01*
X1644954Y-384556D01*
X547268Y-386232D01*
X416712Y-388061D01*
X399694Y-392684D01*
X383794Y-398272D01*
X368655Y-405231D01*
X346964Y-417779D01*
X327050Y-431901D01*
X309930Y-449021D01*
X291998Y-470560D01*
X281889Y-486156D01*
X271018Y-509270D01*
X262026Y-531876D01*
X255828Y-551180D01*
X253868Y-800862D01*
X397408Y-800862D01*
X397408Y-557987D01*
X403402Y-546608D01*
X414426Y-535686D01*
X429971Y-526542D01*
X442823Y-524154D01*
X1890115Y-522732D01*
X3886860Y-522427D01*
X4072077Y-523900D01*
X4081830Y-530352D01*
X4100677Y-548436D01*
X4108704Y-560222D01*
X4112666Y-573836D01*
X4113479Y-799084D01*
X4105960Y-808532D01*
X4096004Y-816203D01*
X404977Y-816203D01*
X399186Y-809294D01*
X397408Y-800862D01*
X253868Y-800862D01*
X253481Y-974496D01*
X397560Y-974496D01*
X399338Y-962507D01*
X404977Y-958850D01*
X2455468Y-956919D01*
X2488387Y-956310D01*
X4099864Y-955802D01*
X4107789Y-962050D01*
X4111955Y-968857D01*
X4112768Y-3009595D01*
X4108602Y-3023158D01*
X4102912Y-3034385D01*
X4091228Y-3046730D01*
X4082135Y-3052013D01*
X4064457Y-3057753D01*
X3479342Y-3055112D01*
X435152Y-3055569D01*
X418998Y-3047136D01*
X405231Y-3033471D01*
X399694Y-3022092D01*
X398068Y-2772410D01*
X397560Y-974496D01*
X253481Y-974496D01*
X251510Y-1837131D01*
X251764Y-2905201D01*
X253593Y-3035706D01*
X261721Y-3062935D01*
X266649Y-3075432D01*
X279958Y-3101543D01*
X291439Y-3116834D01*
X311759Y-3138982D01*
X330454Y-3155594D01*
X347472Y-3167075D01*
X372414Y-3179064D01*
X392887Y-3186277D01*
X415594Y-3191916D01*
X465531Y-3194354D01*
X3994708Y-3195269D01*
X4078732Y-3192932D01*
X4095343Y-3190494D01*
X4118305Y-3183686D01*
X4142740Y-3172764D01*
X4160012Y-3162046D01*
X4178604Y-3148380D01*
X4204716Y-3121964D01*
X4219498Y-3101035D01*
X4232148Y-3078480D01*
X4240225Y-3057296D01*
X4244949Y-3042107D01*
X4247438Y-3026613D01*
X4249521Y-2986887D01*
X4252010Y-2085695D01*
X4250537Y-838301D01*
X4248556Y-553415D01*
X4243730Y-530707D01*
X4237939Y-513689D01*
X4225391Y-489102D01*
X4211878Y-468477D01*
X4199077Y-452424D01*
X4180738Y-434238D01*
X4162094Y-419506D01*
X4137609Y-404622D01*
X4116171Y-395224D01*
X4087774Y-386842D01*
X4045813Y-384911D01*
G37*
G36*
X839622Y-601675D02*
G01*
X551789Y-601878D01*
X541578Y-604723D01*
X534365Y-608431D01*
X517499Y-621995D01*
X508254Y-634034D01*
X502615Y-645363D01*
X498652Y-658977D01*
X498703Y-677164D01*
X502412Y-691438D01*
X510844Y-708914D01*
X525729Y-723950D01*
X549503Y-735431D01*
X573379Y-738124D01*
X667562Y-738022D01*
X837844Y-736498D01*
X855522Y-727354D01*
X866749Y-717296D01*
X876858Y-700989D01*
X886663Y-680567D01*
X887476Y-663244D01*
X884885Y-650748D01*
X876858Y-634085D01*
X867105Y-620369D01*
X855726Y-609803D01*
G37*
G36*
X7508290Y-2040280D02*
G01*
X7488631Y-2041550D01*
X7465771Y-2043938D01*
X7440168Y-2047595D01*
X7421016Y-2051405D01*
X7394143Y-2058009D01*
X7367270Y-2066289D01*
X7344156Y-2074722D01*
X7317994Y-2085848D01*
X7297115Y-2096007D01*
X7273239Y-2109317D01*
X7253833Y-2121357D01*
X7229652Y-2138273D01*
X7211822Y-2152142D01*
X7189673Y-2171090D01*
X7165238Y-2195017D01*
X7148372Y-2213660D01*
X7133081Y-2232304D01*
X7118603Y-2251710D01*
X7105142Y-2271877D01*
X7095083Y-2288184D01*
X7084161Y-2307844D01*
X7075271Y-2325624D01*
X7067499Y-2342743D01*
X7058812Y-2364486D01*
X7054570Y-2376373D01*
X7437983Y-2376373D01*
X7438186Y-2376119D01*
X7504582Y-2342438D01*
X7510373Y-2353970D01*
X7518552Y-2372614D01*
X7525207Y-2389784D01*
X7531912Y-2409190D01*
X7539228Y-2434844D01*
X7544460Y-2458415D01*
X7548270Y-2481072D01*
X7551115Y-2506218D01*
X7552944Y-2536799D01*
X7552029Y-2576372D01*
X7549743Y-2598724D01*
X7547457Y-2615133D01*
X7543698Y-2635300D01*
X7537145Y-2661513D01*
X7528204Y-2688285D01*
X7519822Y-2709164D01*
X7504734Y-2739542D01*
X7503007Y-2740202D01*
X7439659Y-2704084D01*
X7438948Y-2703474D01*
X7446619Y-2689047D01*
X7453630Y-2673350D01*
X7460996Y-2653944D01*
X7467498Y-2632303D01*
X7472172Y-2610815D01*
X7475778Y-2586075D01*
X7477556Y-2565146D01*
X7477455Y-2526334D01*
X7475829Y-2506929D01*
X7472832Y-2483815D01*
X7468362Y-2461412D01*
X7462367Y-2438298D01*
X7454392Y-2414422D01*
X7447280Y-2396490D01*
X7437983Y-2376373D01*
X7054570Y-2376373D01*
X7050582Y-2387549D01*
X7042861Y-2414422D01*
X7037070Y-2439212D01*
X7035415Y-2448915D01*
X7282484Y-2448915D01*
X7282992Y-2448407D01*
X7350099Y-2417267D01*
X7352131Y-2420975D01*
X7357973Y-2434996D01*
X7364730Y-2454706D01*
X7368286Y-2467406D01*
X7371994Y-2483815D01*
X7374991Y-2503220D01*
X7376922Y-2520391D01*
X7376922Y-2561437D01*
X7374280Y-2583078D01*
X7370673Y-2602484D01*
X7366050Y-2620365D01*
X7358125Y-2644241D01*
X7351014Y-2661412D01*
X7349998Y-2662580D01*
X7282992Y-2631846D01*
X7282535Y-2631389D01*
X7289139Y-2615133D01*
X7293762Y-2601315D01*
X7297521Y-2586431D01*
X7299756Y-2574848D01*
X7301992Y-2556205D01*
X7301992Y-2527858D01*
X7300417Y-2511755D01*
X7297470Y-2494534D01*
X7293102Y-2477109D01*
X7288022Y-2462174D01*
X7282484Y-2448915D01*
X7035415Y-2448915D01*
X7031888Y-2469642D01*
X7029653Y-2488285D01*
X7027722Y-2506929D01*
X7027773Y-2567381D01*
X7029602Y-2589022D01*
X7032650Y-2613660D01*
X7035647Y-2631592D01*
X7039406Y-2650236D01*
X7044588Y-2671114D01*
X7051344Y-2694127D01*
X7059574Y-2717393D01*
X7068566Y-2739593D01*
X7078929Y-2762097D01*
X7085140Y-2773730D01*
X7593482Y-2773730D01*
X7609586Y-2737561D01*
X7618577Y-2715158D01*
X7625943Y-2694279D01*
X7633868Y-2668117D01*
X7639964Y-2644241D01*
X7643723Y-2626817D01*
X7647482Y-2604719D01*
X7651597Y-2568905D01*
X7651597Y-2510688D01*
X7649667Y-2491282D01*
X7647482Y-2474112D01*
X7643672Y-2451709D01*
X7638491Y-2428240D01*
X7631226Y-2401722D01*
X7624165Y-2380081D01*
X7614462Y-2353970D01*
X7604861Y-2331567D01*
X7593533Y-2307285D01*
X7594142Y-2306726D01*
X7660182Y-2273757D01*
X7669682Y-2292756D01*
X7681264Y-2318867D01*
X7690612Y-2342743D01*
X7699095Y-2366670D01*
X7706563Y-2391257D01*
X7713167Y-2417368D01*
X7718348Y-2442006D01*
X7721346Y-2459939D01*
X7724292Y-2483053D01*
X7726629Y-2510688D01*
X7727543Y-2548737D01*
X7725816Y-2580081D01*
X7723581Y-2601722D01*
X7719923Y-2627833D01*
X7714589Y-2655468D01*
X7707122Y-2685846D01*
X7697571Y-2717444D01*
X7689138Y-2741269D01*
X7681112Y-2761640D01*
X7671968Y-2783078D01*
X7660995Y-2806192D01*
X7659065Y-2805684D01*
X7593482Y-2773730D01*
X7085140Y-2773730D01*
X7091730Y-2786024D01*
X7105142Y-2808427D01*
X7120839Y-2831592D01*
X7133894Y-2848813D01*
X7149084Y-2867355D01*
X7165949Y-2886049D01*
X7189673Y-2909214D01*
X7209790Y-2926486D01*
X7224826Y-2938373D01*
X7243368Y-2951835D01*
X7261301Y-2963773D01*
X7281468Y-2975711D01*
X7303008Y-2987395D01*
X7318756Y-2994812D01*
X7341158Y-3004464D01*
X7366660Y-3013964D01*
X7399375Y-3023819D01*
X7427722Y-3030372D01*
X7453833Y-3034842D01*
X7478471Y-3037890D01*
X7501585Y-3039719D01*
X7552334Y-3039719D01*
X7575499Y-3037890D01*
X7604556Y-3034182D01*
X7626197Y-3030423D01*
X7654594Y-3023819D01*
X7682179Y-3015640D01*
X7706055Y-3007207D01*
X7732826Y-2996031D01*
X7752842Y-2986481D01*
X7775498Y-2974187D01*
X7796377Y-2961589D01*
X7815021Y-2948889D01*
X7835188Y-2933954D01*
X7846364Y-2924911D01*
X7862773Y-2910738D01*
X7881467Y-2893212D01*
X7903362Y-2869641D01*
X7920024Y-2849473D01*
X7934553Y-2830068D01*
X7947304Y-2811424D01*
X7959648Y-2791256D01*
X7970520Y-2771698D01*
X7979409Y-2753969D01*
X7990586Y-2728569D01*
X7999577Y-2704693D01*
X8007096Y-2681376D01*
X8013090Y-2659176D01*
X8018322Y-2635300D01*
X8022081Y-2612898D01*
X8024317Y-2595778D01*
X8026552Y-2569616D01*
X8027517Y-2541270D01*
X8025790Y-2503982D01*
X8023606Y-2480818D01*
X8019846Y-2454706D01*
X8014614Y-2428595D01*
X8007299Y-2400198D01*
X7998815Y-2374087D01*
X7992262Y-2356510D01*
X7982661Y-2333802D01*
X7974431Y-2316276D01*
X7962138Y-2293518D01*
X7951012Y-2274874D01*
X7936687Y-2253234D01*
X7919415Y-2230069D01*
X7903311Y-2210663D01*
X7881467Y-2187092D01*
X7862773Y-2169617D01*
X7850835Y-2159101D01*
X7838135Y-2148586D01*
X7817256Y-2132888D01*
X7796377Y-2118715D01*
X7780070Y-2108657D01*
X7758328Y-2096719D01*
X7739634Y-2087372D01*
X7720584Y-2078939D01*
X7701584Y-2071370D01*
X7677708Y-2063242D01*
X7654848Y-2056485D01*
X7626959Y-2049983D01*
X7600086Y-2045411D01*
X7582204Y-2043175D01*
X7557566Y-2040788D01*
G37*
G36*
X2760726Y-4354372D02*
G01*
X2565552Y-4354525D01*
X2551582Y-4355795D01*
X2538018Y-4358182D01*
X2523591Y-4362297D01*
X2513330Y-4366107D01*
X2499156Y-4372914D01*
X2490012Y-4378299D01*
X2479751Y-4385310D01*
X2470861Y-4392371D01*
X2457043Y-4405884D01*
X2449423Y-4415078D01*
X2441956Y-4425492D01*
X2436926Y-4433874D01*
X2431948Y-4443222D01*
X2427224Y-4454245D01*
X2423464Y-4465116D01*
X2420315Y-4477258D01*
X2418384Y-4487519D01*
X2417013Y-4500118D01*
X2417013Y-4510633D01*
X2573274Y-4510633D01*
X2573274Y-4604359D01*
X2760726Y-4604359D01*
X2760726Y-4510836D01*
X2854248Y-4604359D01*
X2916986Y-4604359D01*
X2916986Y-4354372D01*
X2854248Y-4354372D01*
X2760726Y-4447895D01*
G37*
G36*
X2573223Y-4666843D02*
G01*
X2573477Y-4891430D01*
X2576118Y-4898898D01*
X2579370Y-4904282D01*
X2584196Y-4909566D01*
X2591104Y-4914087D01*
X2598674Y-4916627D01*
X2735326Y-4916627D01*
X2742895Y-4914087D01*
X2749804Y-4909566D01*
X2754630Y-4904282D01*
X2757881Y-4898898D01*
X2760522Y-4891430D01*
X2760776Y-4666843D01*
G37*
G36*
X1654403Y-4466996D02*
G01*
X1444396Y-4677003D01*
X1654657Y-4887264D01*
X1703222Y-4838700D01*
X1703222Y-4837633D01*
X1542592Y-4677003D01*
X1703222Y-4516374D01*
X1703222Y-4515307D01*
X1654911Y-4466996D01*
G37*
G36*
X1934413Y-4466996D02*
G01*
X1886102Y-4515307D01*
X1886102Y-4516374D01*
X2046732Y-4677003D01*
X1886102Y-4837633D01*
X1886102Y-4838700D01*
X1934667Y-4887264D01*
X2144928Y-4677003D01*
X1934921Y-4466996D01*
G37*
G36*
X2066543Y-2752852D02*
G01*
X2062276Y-2753360D01*
X2060803Y-2753969D01*
X2059686Y-2754884D01*
X2058162Y-2757170D01*
X2057654Y-2759964D01*
X2057806Y-2763723D01*
X2058162Y-2765044D01*
X2058771Y-2766263D01*
X2059686Y-2767330D01*
X2060803Y-2768193D01*
X2062276Y-2768854D01*
X2066543Y-2769362D01*
X2068779Y-2769260D01*
X2070658Y-2768854D01*
X2072233Y-2768193D01*
X2073402Y-2767330D01*
X2074722Y-2765044D01*
X2075078Y-2763723D01*
X2075078Y-2758490D01*
X2074164Y-2755950D01*
X2073402Y-2754884D01*
X2072233Y-2754020D01*
X2070658Y-2753360D01*
X2068779Y-2752953D01*
G37*
G36*
X774700Y-2753868D02*
G01*
X774700Y-2857500D01*
X785876Y-2857500D01*
X785876Y-2831338D01*
X798322Y-2819908D01*
X826516Y-2857500D01*
X840486Y-2857500D01*
X806958Y-2813558D01*
X836930Y-2785364D01*
X823214Y-2785364D01*
X799084Y-2807462D01*
X786384Y-2819400D01*
X785876Y-2819400D01*
X785876Y-2753868D01*
G37*
G36*
X1362710Y-2753868D02*
G01*
X1362710Y-2857500D01*
X1373886Y-2857500D01*
X1373886Y-2831338D01*
X1386332Y-2819908D01*
X1414526Y-2857500D01*
X1428242Y-2857500D01*
X1394968Y-2813558D01*
X1424940Y-2785364D01*
X1411224Y-2785364D01*
X1387094Y-2807462D01*
X1374394Y-2819400D01*
X1373886Y-2819400D01*
X1373886Y-2753868D01*
G37*
G36*
X1947164Y-2753868D02*
G01*
X1947164Y-2763520D01*
X1972310Y-2763520D01*
X1972310Y-2848102D01*
X1947164Y-2848102D01*
X1947164Y-2857500D01*
X2008886Y-2857500D01*
X2008886Y-2848102D01*
X1983486Y-2848102D01*
X1983486Y-2753868D01*
G37*
G36*
X1054100Y-2758186D02*
G01*
X1050137Y-2758338D01*
X1046429Y-2758897D01*
X1042924Y-2759760D01*
X1039621Y-2760980D01*
X1036675Y-2762656D01*
X1033983Y-2764790D01*
X1031494Y-2767431D01*
X1029208Y-2770632D01*
X1027277Y-2774188D01*
X1025601Y-2778302D01*
X1024128Y-2782976D01*
X1022858Y-2788158D01*
X1021130Y-2800604D01*
X1020571Y-2815590D01*
X1020673Y-2822600D01*
X1021689Y-2835148D01*
X1023670Y-2845968D01*
X1025093Y-2850692D01*
X1026820Y-2854960D01*
X1028953Y-2858770D01*
X1031290Y-2862224D01*
X1033983Y-2865170D01*
X1036980Y-2867660D01*
X1040384Y-2869692D01*
X1044295Y-2871266D01*
X1048562Y-2872384D01*
X1053287Y-2873044D01*
X1058418Y-2873248D01*
X1075436Y-2873248D01*
X1075436Y-2864104D01*
X1054404Y-2863951D01*
X1050798Y-2863392D01*
X1047546Y-2862529D01*
X1044702Y-2861310D01*
X1042162Y-2859633D01*
X1039926Y-2857703D01*
X1037996Y-2855468D01*
X1036319Y-2852928D01*
X1034999Y-2850184D01*
X1033881Y-2847238D01*
X1032256Y-2840736D01*
X1031494Y-2833370D01*
X1031240Y-2825496D01*
X1031240Y-2807462D01*
X1032560Y-2789123D01*
X1036574Y-2776728D01*
X1039672Y-2772511D01*
X1043686Y-2769463D01*
X1048562Y-2767685D01*
X1054354Y-2767076D01*
X1059586Y-2767482D01*
X1064006Y-2768803D01*
X1067663Y-2770936D01*
X1070610Y-2773934D01*
X1072743Y-2777693D01*
X1074216Y-2782062D01*
X1075131Y-2787091D01*
X1075436Y-2796032D01*
X1074928Y-2796032D01*
X1073150Y-2792476D01*
X1071118Y-2790190D01*
X1069441Y-2788818D01*
X1067409Y-2787650D01*
X1065123Y-2786786D01*
X1060958Y-2786380D01*
X1056843Y-2786837D01*
X1053236Y-2788208D01*
X1049985Y-2790545D01*
X1047242Y-2793746D01*
X1045006Y-2797860D01*
X1043432Y-2803042D01*
X1042466Y-2809290D01*
X1042162Y-2816606D01*
X1042333Y-2820670D01*
X1052576Y-2820670D01*
X1052576Y-2812034D01*
X1052779Y-2807665D01*
X1053338Y-2804058D01*
X1054303Y-2801061D01*
X1055624Y-2798826D01*
X1057300Y-2797048D01*
X1059383Y-2795778D01*
X1061770Y-2795016D01*
X1064514Y-2794762D01*
X1066952Y-2794914D01*
X1069086Y-2795473D01*
X1070965Y-2796336D01*
X1072642Y-2797556D01*
X1073861Y-2799130D01*
X1074724Y-2800959D01*
X1075283Y-2803194D01*
X1075436Y-2805684D01*
X1075436Y-2827020D01*
X1075283Y-2829509D01*
X1074724Y-2831693D01*
X1073861Y-2833573D01*
X1072642Y-2835148D01*
X1070965Y-2836367D01*
X1069086Y-2837230D01*
X1066952Y-2837789D01*
X1064514Y-2837942D01*
X1061770Y-2837688D01*
X1059383Y-2836976D01*
X1057300Y-2835808D01*
X1055624Y-2834132D01*
X1054303Y-2831744D01*
X1053338Y-2828747D01*
X1052779Y-2825038D01*
X1052576Y-2820670D01*
X1042333Y-2820670D01*
X1042466Y-2823819D01*
X1043432Y-2830017D01*
X1045006Y-2835148D01*
X1047242Y-2839212D01*
X1049985Y-2842310D01*
X1053185Y-2844546D01*
X1056843Y-2845866D01*
X1060958Y-2846324D01*
X1063853Y-2846171D01*
X1066342Y-2845612D01*
X1068527Y-2844749D01*
X1070356Y-2843530D01*
X1072997Y-2840278D01*
X1074928Y-2836672D01*
X1075436Y-2836672D01*
X1075436Y-2844800D01*
X1085596Y-2844800D01*
X1085494Y-2789123D01*
X1084580Y-2782265D01*
X1083818Y-2779014D01*
X1082802Y-2775966D01*
X1081532Y-2773121D01*
X1080008Y-2770479D01*
X1078230Y-2768092D01*
X1076198Y-2765907D01*
X1073912Y-2763977D01*
X1071372Y-2762250D01*
X1068578Y-2760726D01*
X1065377Y-2759608D01*
X1061923Y-2758846D01*
X1058164Y-2758338D01*
G37*
G36*
X555244Y-2783586D02*
G01*
X542086Y-2786938D01*
X533146Y-2797048D01*
X532384Y-2797048D01*
X532384Y-2785364D01*
X521208Y-2785364D01*
X521208Y-2834386D01*
X532384Y-2834386D01*
X532485Y-2806649D01*
X533247Y-2803347D01*
X533908Y-2801874D01*
X535686Y-2799435D01*
X537972Y-2797302D01*
X540715Y-2795727D01*
X543814Y-2794508D01*
X547268Y-2793746D01*
X550926Y-2793492D01*
X555599Y-2793847D01*
X559714Y-2795016D01*
X563219Y-2796946D01*
X566166Y-2799588D01*
X568502Y-2802737D01*
X570179Y-2806446D01*
X571144Y-2810611D01*
X571500Y-2815336D01*
X571500Y-2827528D01*
X571144Y-2832252D01*
X570179Y-2836418D01*
X568502Y-2840126D01*
X566166Y-2843276D01*
X563219Y-2845816D01*
X559663Y-2847644D01*
X555599Y-2848762D01*
X550926Y-2849118D01*
X547268Y-2848914D01*
X543814Y-2848356D01*
X540715Y-2847086D01*
X537972Y-2845308D01*
X535686Y-2843276D01*
X533908Y-2840736D01*
X532790Y-2837738D01*
X532384Y-2834386D01*
X521208Y-2834386D01*
X521208Y-2885440D01*
X532384Y-2885440D01*
X532384Y-2845816D01*
X533146Y-2845816D01*
X542086Y-2855925D01*
X555244Y-2859278D01*
X567182Y-2856738D01*
X576072Y-2849118D01*
X581812Y-2837230D01*
X583692Y-2821432D01*
X581761Y-2805430D01*
X576072Y-2793492D01*
X567182Y-2786075D01*
G37*
G36*
X631190Y-2783586D02*
G01*
X626059Y-2783890D01*
X621284Y-2784856D01*
X616966Y-2786126D01*
X613156Y-2787904D01*
X610057Y-2790139D01*
X607314Y-2792730D01*
X605231Y-2795320D01*
X603504Y-2798064D01*
X611124Y-2803652D01*
X612648Y-2801366D01*
X614375Y-2799334D01*
X616305Y-2797556D01*
X618490Y-2796032D01*
X621030Y-2794711D01*
X623874Y-2793746D01*
X627024Y-2793187D01*
X630428Y-2792984D01*
X634390Y-2793238D01*
X637794Y-2794000D01*
X640740Y-2795270D01*
X643128Y-2797048D01*
X645109Y-2799334D01*
X646531Y-2802077D01*
X647395Y-2805277D01*
X647700Y-2808986D01*
X647700Y-2816098D01*
X632206Y-2816098D01*
X618185Y-2817520D01*
X608584Y-2821686D01*
X605383Y-2824632D01*
X603046Y-2828239D01*
X601675Y-2832404D01*
X601218Y-2837180D01*
X601324Y-2838450D01*
X612902Y-2838450D01*
X612902Y-2835402D01*
X613206Y-2832963D01*
X614121Y-2830830D01*
X615594Y-2828899D01*
X617728Y-2827274D01*
X620369Y-2826054D01*
X623620Y-2825191D01*
X627583Y-2824632D01*
X647700Y-2824480D01*
X647598Y-2837789D01*
X647344Y-2839161D01*
X646176Y-2841752D01*
X644550Y-2844088D01*
X642112Y-2846070D01*
X639318Y-2847543D01*
X636016Y-2848864D01*
X632104Y-2849626D01*
X627888Y-2849880D01*
X624636Y-2849676D01*
X621741Y-2849118D01*
X619150Y-2848152D01*
X616966Y-2846832D01*
X615188Y-2845257D01*
X613918Y-2843326D01*
X613156Y-2841091D01*
X612902Y-2838450D01*
X601324Y-2838450D01*
X601624Y-2842006D01*
X602945Y-2846273D01*
X605078Y-2849981D01*
X608076Y-2853182D01*
X611682Y-2855874D01*
X615899Y-2857754D01*
X620674Y-2858922D01*
X626110Y-2859278D01*
X630224Y-2859074D01*
X633933Y-2858363D01*
X637184Y-2857296D01*
X640080Y-2855722D01*
X642569Y-2853791D01*
X644652Y-2851454D01*
X646379Y-2848813D01*
X647700Y-2845816D01*
X648462Y-2845816D01*
X648970Y-2848254D01*
X649732Y-2850438D01*
X650748Y-2852420D01*
X652018Y-2854198D01*
X653643Y-2855620D01*
X655777Y-2856687D01*
X658368Y-2857296D01*
X661416Y-2857500D01*
X669036Y-2857500D01*
X669036Y-2847594D01*
X658876Y-2847594D01*
X658876Y-2807970D01*
X658418Y-2802534D01*
X657047Y-2797759D01*
X654710Y-2793542D01*
X651510Y-2789936D01*
X647395Y-2787142D01*
X642620Y-2785160D01*
X637235Y-2783992D01*
G37*
G36*
X886460Y-2783586D02*
G01*
X882853Y-2783738D01*
X879398Y-2784246D01*
X876147Y-2785008D01*
X872998Y-2786126D01*
X870051Y-2787650D01*
X867359Y-2789428D01*
X864869Y-2791460D01*
X862584Y-2793746D01*
X860552Y-2796387D01*
X858723Y-2799334D01*
X857097Y-2802483D01*
X855726Y-2805938D01*
X854710Y-2809494D01*
X853998Y-2813253D01*
X853733Y-2815844D01*
X865124Y-2815844D01*
X865479Y-2810205D01*
X866648Y-2805938D01*
X868680Y-2802331D01*
X871219Y-2799080D01*
X874318Y-2796540D01*
X878078Y-2794508D01*
X882091Y-2793187D01*
X884224Y-2792831D01*
X888695Y-2792831D01*
X892911Y-2793593D01*
X894842Y-2794254D01*
X898144Y-2796184D01*
X900937Y-2798826D01*
X903376Y-2801924D01*
X905002Y-2805684D01*
X906170Y-2809748D01*
X906526Y-2815844D01*
X853733Y-2815844D01*
X853440Y-2821432D01*
X853592Y-2825648D01*
X853998Y-2829610D01*
X854710Y-2833370D01*
X855726Y-2836926D01*
X857097Y-2840329D01*
X858723Y-2843479D01*
X860552Y-2846324D01*
X862584Y-2848864D01*
X864869Y-2851251D01*
X867410Y-2853334D01*
X870203Y-2855061D01*
X876401Y-2857703D01*
X879805Y-2858566D01*
X883412Y-2859125D01*
X887221Y-2859278D01*
X892454Y-2858973D01*
X897280Y-2858058D01*
X901598Y-2856585D01*
X905510Y-2854452D01*
X909015Y-2852013D01*
X911961Y-2849168D01*
X914349Y-2846019D01*
X916178Y-2842514D01*
X908050Y-2836926D01*
X906475Y-2839669D01*
X904595Y-2842107D01*
X902411Y-2844241D01*
X899921Y-2846070D01*
X897128Y-2847644D01*
X894080Y-2848711D01*
X890778Y-2849422D01*
X887221Y-2849626D01*
X884732Y-2849524D01*
X880160Y-2848610D01*
X876096Y-2846984D01*
X874268Y-2845968D01*
X870966Y-2843276D01*
X868476Y-2840177D01*
X866648Y-2836418D01*
X865479Y-2832150D01*
X865124Y-2827528D01*
X865124Y-2824226D01*
X918718Y-2824226D01*
X918565Y-2815132D01*
X918159Y-2811526D01*
X917448Y-2808020D01*
X916432Y-2804668D01*
X915162Y-2801569D01*
X913637Y-2798673D01*
X911860Y-2795981D01*
X909828Y-2793492D01*
X907694Y-2791307D01*
X905256Y-2789377D01*
X902563Y-2787650D01*
X899668Y-2786126D01*
X896670Y-2785008D01*
X893470Y-2784246D01*
X890066Y-2783738D01*
G37*
G36*
X1143254Y-2783586D02*
G01*
X1130096Y-2786938D01*
X1121156Y-2797048D01*
X1120394Y-2797048D01*
X1120394Y-2785364D01*
X1109218Y-2785364D01*
X1109218Y-2834386D01*
X1120394Y-2834386D01*
X1120495Y-2806649D01*
X1121257Y-2803347D01*
X1121918Y-2801874D01*
X1123696Y-2799435D01*
X1125982Y-2797302D01*
X1128725Y-2795727D01*
X1131824Y-2794508D01*
X1135278Y-2793746D01*
X1138936Y-2793492D01*
X1143609Y-2793847D01*
X1147673Y-2795016D01*
X1151229Y-2796946D01*
X1154176Y-2799588D01*
X1156512Y-2802737D01*
X1158189Y-2806446D01*
X1159154Y-2810611D01*
X1159510Y-2815336D01*
X1159510Y-2827528D01*
X1159154Y-2832252D01*
X1158189Y-2836418D01*
X1156512Y-2840126D01*
X1154176Y-2843276D01*
X1151229Y-2845816D01*
X1147673Y-2847644D01*
X1143609Y-2848762D01*
X1138936Y-2849118D01*
X1135278Y-2848914D01*
X1131824Y-2848356D01*
X1128725Y-2847086D01*
X1125982Y-2845308D01*
X1123696Y-2843276D01*
X1121918Y-2840736D01*
X1120800Y-2837738D01*
X1120394Y-2834386D01*
X1109218Y-2834386D01*
X1109218Y-2885440D01*
X1120394Y-2885440D01*
X1120394Y-2845816D01*
X1121156Y-2845816D01*
X1130096Y-2855925D01*
X1143254Y-2859278D01*
X1155192Y-2856738D01*
X1164082Y-2849118D01*
X1169771Y-2837230D01*
X1171702Y-2821432D01*
X1169822Y-2805430D01*
X1164082Y-2793492D01*
X1155192Y-2786075D01*
G37*
G36*
X1219200Y-2783586D02*
G01*
X1213916Y-2783890D01*
X1207058Y-2785414D01*
X1202994Y-2786938D01*
X1199540Y-2788970D01*
X1196644Y-2791358D01*
X1194206Y-2794000D01*
X1191514Y-2798064D01*
X1199134Y-2803652D01*
X1200658Y-2801366D01*
X1202385Y-2799334D01*
X1204315Y-2797556D01*
X1206500Y-2796032D01*
X1209040Y-2794711D01*
X1211884Y-2793746D01*
X1215034Y-2793187D01*
X1218438Y-2792984D01*
X1222400Y-2793238D01*
X1225804Y-2794000D01*
X1228750Y-2795270D01*
X1231138Y-2797048D01*
X1233119Y-2799334D01*
X1234592Y-2802077D01*
X1235405Y-2805277D01*
X1235710Y-2808986D01*
X1235710Y-2816098D01*
X1220216Y-2816098D01*
X1206195Y-2817520D01*
X1196594Y-2821686D01*
X1193393Y-2824632D01*
X1191056Y-2828239D01*
X1189685Y-2832404D01*
X1189228Y-2837180D01*
X1189334Y-2838450D01*
X1200912Y-2838450D01*
X1200912Y-2835402D01*
X1201216Y-2832963D01*
X1202131Y-2830830D01*
X1203604Y-2828899D01*
X1205738Y-2827274D01*
X1208379Y-2826054D01*
X1211630Y-2825191D01*
X1215593Y-2824632D01*
X1235710Y-2824480D01*
X1235608Y-2837789D01*
X1234846Y-2840482D01*
X1233373Y-2842971D01*
X1231341Y-2845155D01*
X1228750Y-2846832D01*
X1225600Y-2848203D01*
X1221943Y-2849321D01*
X1218031Y-2849829D01*
X1212646Y-2849676D01*
X1209751Y-2849118D01*
X1207160Y-2848152D01*
X1204976Y-2846832D01*
X1203198Y-2845257D01*
X1201928Y-2843326D01*
X1201166Y-2841091D01*
X1200912Y-2838450D01*
X1189334Y-2838450D01*
X1189634Y-2842006D01*
X1190904Y-2846273D01*
X1192936Y-2849981D01*
X1195832Y-2853182D01*
X1199540Y-2855874D01*
X1203807Y-2857754D01*
X1208684Y-2858922D01*
X1214120Y-2859278D01*
X1218234Y-2859074D01*
X1221943Y-2858363D01*
X1225194Y-2857296D01*
X1228090Y-2855722D01*
X1230579Y-2853791D01*
X1232662Y-2851454D01*
X1234389Y-2848813D01*
X1235710Y-2845816D01*
X1236472Y-2845816D01*
X1236980Y-2848254D01*
X1237742Y-2850438D01*
X1238758Y-2852420D01*
X1240028Y-2854198D01*
X1241653Y-2855620D01*
X1243685Y-2856687D01*
X1246225Y-2857296D01*
X1249172Y-2857500D01*
X1257046Y-2857500D01*
X1257046Y-2847594D01*
X1246886Y-2847594D01*
X1246886Y-2807970D01*
X1246428Y-2802534D01*
X1245057Y-2797759D01*
X1242720Y-2793542D01*
X1239520Y-2789936D01*
X1235405Y-2787142D01*
X1230630Y-2785160D01*
X1225245Y-2783992D01*
G37*
G36*
X1474470Y-2783586D02*
G01*
X1470863Y-2783738D01*
X1467408Y-2784246D01*
X1464157Y-2785008D01*
X1461008Y-2786126D01*
X1458061Y-2787650D01*
X1455369Y-2789428D01*
X1452880Y-2791460D01*
X1450594Y-2793746D01*
X1448562Y-2796387D01*
X1446733Y-2799334D01*
X1445107Y-2802483D01*
X1443736Y-2805938D01*
X1442720Y-2809494D01*
X1442008Y-2813253D01*
X1441743Y-2815844D01*
X1453134Y-2815844D01*
X1453235Y-2812440D01*
X1453997Y-2808020D01*
X1454658Y-2805938D01*
X1456690Y-2802331D01*
X1459230Y-2799080D01*
X1462328Y-2796540D01*
X1466088Y-2794508D01*
X1470101Y-2793187D01*
X1472234Y-2792831D01*
X1476705Y-2792831D01*
X1480921Y-2793593D01*
X1482852Y-2794254D01*
X1486154Y-2796184D01*
X1488948Y-2798826D01*
X1491386Y-2801924D01*
X1493012Y-2805684D01*
X1494180Y-2809748D01*
X1494536Y-2815844D01*
X1441743Y-2815844D01*
X1441450Y-2821432D01*
X1441602Y-2825648D01*
X1442008Y-2829610D01*
X1442720Y-2833370D01*
X1443736Y-2836926D01*
X1445006Y-2840329D01*
X1446580Y-2843479D01*
X1448460Y-2846324D01*
X1452880Y-2851251D01*
X1455420Y-2853334D01*
X1458214Y-2855061D01*
X1464411Y-2857703D01*
X1467815Y-2858566D01*
X1471422Y-2859125D01*
X1475232Y-2859278D01*
X1480464Y-2858973D01*
X1485239Y-2858058D01*
X1489608Y-2856585D01*
X1493520Y-2854452D01*
X1497025Y-2852013D01*
X1500022Y-2849168D01*
X1502359Y-2846019D01*
X1504188Y-2842514D01*
X1496060Y-2836926D01*
X1494485Y-2839669D01*
X1492605Y-2842107D01*
X1490421Y-2844241D01*
X1487932Y-2846070D01*
X1485138Y-2847644D01*
X1482090Y-2848711D01*
X1478788Y-2849422D01*
X1475232Y-2849626D01*
X1472742Y-2849524D01*
X1468170Y-2848610D01*
X1464106Y-2846984D01*
X1462278Y-2845968D01*
X1458976Y-2843276D01*
X1456486Y-2840177D01*
X1454658Y-2836418D01*
X1453540Y-2832150D01*
X1453134Y-2827528D01*
X1453134Y-2824226D01*
X1506728Y-2824226D01*
X1506575Y-2815132D01*
X1506169Y-2811526D01*
X1505458Y-2808020D01*
X1504442Y-2804668D01*
X1503172Y-2801569D01*
X1501648Y-2798673D01*
X1499870Y-2795981D01*
X1497838Y-2793492D01*
X1495653Y-2791307D01*
X1493266Y-2789377D01*
X1490624Y-2787650D01*
X1487678Y-2786126D01*
X1484680Y-2785008D01*
X1481429Y-2784246D01*
X1478076Y-2783738D01*
G37*
G36*
X1810004Y-2783586D02*
G01*
X1806295Y-2783738D01*
X1802739Y-2784246D01*
X1799437Y-2785008D01*
X1796288Y-2786126D01*
X1793341Y-2787650D01*
X1790649Y-2789428D01*
X1788160Y-2791460D01*
X1785874Y-2793746D01*
X1783943Y-2796387D01*
X1782267Y-2799334D01*
X1780793Y-2802483D01*
X1779524Y-2805938D01*
X1778507Y-2809494D01*
X1777796Y-2813253D01*
X1777390Y-2817215D01*
X1777238Y-2821432D01*
X1777478Y-2826512D01*
X1789175Y-2826512D01*
X1789175Y-2816098D01*
X1789531Y-2810611D01*
X1790598Y-2805938D01*
X1792325Y-2802026D01*
X1794764Y-2798826D01*
X1797913Y-2796387D01*
X1801520Y-2794660D01*
X1805533Y-2793593D01*
X1810004Y-2793238D01*
X1814474Y-2793593D01*
X1818538Y-2794609D01*
X1822094Y-2796387D01*
X1825243Y-2798826D01*
X1827682Y-2801975D01*
X1829460Y-2805938D01*
X1830476Y-2810611D01*
X1830832Y-2816098D01*
X1830832Y-2826512D01*
X1830476Y-2831998D01*
X1829460Y-2836722D01*
X1827682Y-2840736D01*
X1825243Y-2844038D01*
X1822094Y-2846476D01*
X1818538Y-2848203D01*
X1814474Y-2849270D01*
X1810004Y-2849626D01*
X1805533Y-2849270D01*
X1801469Y-2848254D01*
X1797913Y-2846476D01*
X1794764Y-2844038D01*
X1792325Y-2840736D01*
X1790547Y-2836722D01*
X1789531Y-2831998D01*
X1789175Y-2826512D01*
X1777478Y-2826512D01*
X1777796Y-2829610D01*
X1778507Y-2833370D01*
X1779524Y-2836926D01*
X1780793Y-2840329D01*
X1782267Y-2843479D01*
X1783943Y-2846324D01*
X1785874Y-2848864D01*
X1788160Y-2851251D01*
X1790649Y-2853334D01*
X1793341Y-2855061D01*
X1796288Y-2856484D01*
X1799437Y-2857703D01*
X1802739Y-2858566D01*
X1806295Y-2859125D01*
X1810004Y-2859278D01*
X1813712Y-2859125D01*
X1817268Y-2858566D01*
X1820570Y-2857703D01*
X1823720Y-2856484D01*
X1826666Y-2855061D01*
X1829358Y-2853334D01*
X1831848Y-2851251D01*
X1834134Y-2848864D01*
X1836064Y-2846324D01*
X1837740Y-2843479D01*
X1839214Y-2840329D01*
X1840484Y-2836926D01*
X1841500Y-2833370D01*
X1842211Y-2829610D01*
X1842617Y-2825648D01*
X1842770Y-2821432D01*
X1842617Y-2817215D01*
X1842211Y-2813253D01*
X1841500Y-2809494D01*
X1840484Y-2805938D01*
X1839214Y-2802534D01*
X1837740Y-2799334D01*
X1836064Y-2796387D01*
X1834134Y-2793746D01*
X1831848Y-2791460D01*
X1829358Y-2789428D01*
X1826666Y-2787650D01*
X1823720Y-2786126D01*
X1820570Y-2785008D01*
X1817268Y-2784246D01*
X1813712Y-2783738D01*
G37*
G36*
X1898142Y-2783586D02*
G01*
X1893874Y-2783840D01*
X1890268Y-2784602D01*
X1887169Y-2786024D01*
X1884425Y-2787650D01*
X1882139Y-2789631D01*
X1878787Y-2794355D01*
X1877568Y-2797048D01*
X1876806Y-2797048D01*
X1876806Y-2785364D01*
X1865630Y-2785364D01*
X1865630Y-2857500D01*
X1876806Y-2857500D01*
X1876907Y-2805734D01*
X1877822Y-2802534D01*
X1879396Y-2799892D01*
X1881276Y-2797708D01*
X1882393Y-2796794D01*
X1885137Y-2795422D01*
X1888236Y-2794254D01*
X1891538Y-2793695D01*
X1894839Y-2793492D01*
X1898802Y-2793796D01*
X1902206Y-2794711D01*
X1905101Y-2796184D01*
X1907539Y-2798318D01*
X1909419Y-2801061D01*
X1910791Y-2804414D01*
X1911604Y-2808427D01*
X1911857Y-2813050D01*
X1911857Y-2857500D01*
X1923034Y-2857500D01*
X1923034Y-2811272D01*
X1922627Y-2805023D01*
X1921306Y-2799537D01*
X1919173Y-2794762D01*
X1916175Y-2790698D01*
X1912467Y-2787599D01*
X1908251Y-2785364D01*
X1903475Y-2784043D01*
G37*
G36*
X2150110Y-2783586D02*
G01*
X2145842Y-2783840D01*
X2142236Y-2784602D01*
X2139137Y-2786024D01*
X2136394Y-2787650D01*
X2134108Y-2789631D01*
X2130755Y-2794355D01*
X2129536Y-2797048D01*
X2129028Y-2797048D01*
X2129028Y-2785364D01*
X2117598Y-2785364D01*
X2117598Y-2857500D01*
X2129028Y-2857500D01*
X2129129Y-2805734D01*
X2129891Y-2802534D01*
X2131364Y-2799892D01*
X2133396Y-2797708D01*
X2135936Y-2796082D01*
X2138730Y-2794812D01*
X2141880Y-2793898D01*
X2145182Y-2793542D01*
X2150770Y-2793796D01*
X2154174Y-2794711D01*
X2157120Y-2796184D01*
X2159508Y-2798318D01*
X2161387Y-2801061D01*
X2162759Y-2804414D01*
X2163572Y-2808427D01*
X2163826Y-2813050D01*
X2163826Y-2857500D01*
X2175002Y-2857500D01*
X2175002Y-2811272D01*
X2174595Y-2805023D01*
X2173274Y-2799537D01*
X2171141Y-2794762D01*
X2168144Y-2790698D01*
X2164435Y-2787599D01*
X2160219Y-2785364D01*
X2155444Y-2784043D01*
G37*
G36*
X2230628Y-2783586D02*
G01*
X2227021Y-2783738D01*
X2223566Y-2784246D01*
X2220315Y-2785008D01*
X2217166Y-2786126D01*
X2214219Y-2787650D01*
X2211476Y-2789428D01*
X2208885Y-2791460D01*
X2206498Y-2793746D01*
X2204466Y-2796387D01*
X2202688Y-2799334D01*
X2201164Y-2802483D01*
X2198776Y-2809494D01*
X2197963Y-2813253D01*
X2197664Y-2815844D01*
X2209038Y-2815844D01*
X2209139Y-2812440D01*
X2210054Y-2808020D01*
X2211679Y-2804058D01*
X2213813Y-2800654D01*
X2215134Y-2799080D01*
X2218385Y-2796540D01*
X2221992Y-2794508D01*
X2226208Y-2793187D01*
X2228392Y-2792831D01*
X2232761Y-2792831D01*
X2236825Y-2793593D01*
X2240584Y-2795117D01*
X2243734Y-2797403D01*
X2246325Y-2800299D01*
X2248357Y-2803753D01*
X2249830Y-2807665D01*
X2250592Y-2811983D01*
X2250694Y-2815844D01*
X2197664Y-2815844D01*
X2197354Y-2821432D01*
X2197506Y-2825648D01*
X2197912Y-2829610D01*
X2198624Y-2833370D01*
X2199640Y-2836926D01*
X2201011Y-2840329D01*
X2202637Y-2843479D01*
X2204466Y-2846324D01*
X2206498Y-2848864D01*
X2208885Y-2851251D01*
X2211425Y-2853334D01*
X2214219Y-2855061D01*
X2217166Y-2856484D01*
X2220417Y-2857703D01*
X2223820Y-2858566D01*
X2227427Y-2859125D01*
X2231136Y-2859278D01*
X2236368Y-2858973D01*
X2241194Y-2858058D01*
X2245512Y-2856585D01*
X2249424Y-2854452D01*
X2252980Y-2852013D01*
X2255977Y-2849168D01*
X2258415Y-2846019D01*
X2260346Y-2842514D01*
X2251964Y-2836926D01*
X2250389Y-2839669D01*
X2248509Y-2842107D01*
X2246325Y-2844241D01*
X2243836Y-2846070D01*
X2241042Y-2847644D01*
X2237994Y-2848711D01*
X2234692Y-2849422D01*
X2231136Y-2849626D01*
X2228748Y-2849524D01*
X2224176Y-2848610D01*
X2220061Y-2846984D01*
X2218232Y-2845968D01*
X2215134Y-2843276D01*
X2212594Y-2840177D01*
X2210562Y-2836418D01*
X2209393Y-2832150D01*
X2209038Y-2827528D01*
X2209038Y-2824226D01*
X2262632Y-2824226D01*
X2262479Y-2815132D01*
X2262073Y-2811526D01*
X2261362Y-2808020D01*
X2260346Y-2804668D01*
X2259076Y-2801569D01*
X2257602Y-2798673D01*
X2255926Y-2795981D01*
X2253996Y-2793492D01*
X2251760Y-2791307D01*
X2249322Y-2789377D01*
X2246680Y-2787650D01*
X2243836Y-2786126D01*
X2240737Y-2785008D01*
X2237486Y-2784246D01*
X2234133Y-2783738D01*
G37*
G36*
X686816Y-2785364D02*
G01*
X686816Y-2794762D01*
X707898Y-2794762D01*
X707898Y-2848102D01*
X686816Y-2848102D01*
X686816Y-2857500D01*
X747014Y-2857500D01*
X747014Y-2848102D01*
X719074Y-2848102D01*
X719074Y-2816860D01*
X719429Y-2812491D01*
X720598Y-2808579D01*
X722528Y-2805125D01*
X725170Y-2802128D01*
X728319Y-2799689D01*
X731977Y-2797911D01*
X736092Y-2796895D01*
X740664Y-2796540D01*
X754380Y-2796540D01*
X754380Y-2785364D01*
X744220Y-2785364D01*
X739597Y-2785668D01*
X735380Y-2786583D01*
X731621Y-2788056D01*
X728218Y-2790190D01*
X725424Y-2792831D01*
X723087Y-2795930D01*
X721207Y-2799435D01*
X719836Y-2803398D01*
X719074Y-2803398D01*
X719074Y-2785364D01*
G37*
G36*
X938784Y-2785364D02*
G01*
X938784Y-2794762D01*
X959866Y-2794762D01*
X959866Y-2848102D01*
X938784Y-2848102D01*
X938784Y-2857500D01*
X999236Y-2857500D01*
X999236Y-2848102D01*
X971042Y-2848102D01*
X971042Y-2816860D01*
X971397Y-2812491D01*
X972566Y-2808579D01*
X974496Y-2805125D01*
X977137Y-2802128D01*
X980287Y-2799689D01*
X983945Y-2797911D01*
X988060Y-2796895D01*
X992632Y-2796540D01*
X1006348Y-2796540D01*
X1006348Y-2785364D01*
X996187Y-2785364D01*
X991565Y-2785668D01*
X987348Y-2786583D01*
X983589Y-2788056D01*
X980186Y-2790190D01*
X977392Y-2792831D01*
X975055Y-2795930D01*
X973175Y-2799435D01*
X971803Y-2803398D01*
X971042Y-2803398D01*
X971042Y-2785364D01*
G37*
G36*
X1274826Y-2785364D02*
G01*
X1274826Y-2794762D01*
X1295908Y-2794762D01*
X1295908Y-2848102D01*
X1274826Y-2848102D01*
X1274826Y-2857500D01*
X1335024Y-2857500D01*
X1335024Y-2848102D01*
X1307084Y-2848102D01*
X1307084Y-2816860D01*
X1307490Y-2812491D01*
X1308608Y-2808579D01*
X1310487Y-2805125D01*
X1313180Y-2802128D01*
X1316329Y-2799689D01*
X1319987Y-2797911D01*
X1324102Y-2796895D01*
X1328674Y-2796540D01*
X1342136Y-2796540D01*
X1342136Y-2785364D01*
X1332230Y-2785364D01*
X1327607Y-2785668D01*
X1323390Y-2786583D01*
X1319631Y-2788056D01*
X1316228Y-2790190D01*
X1313434Y-2792831D01*
X1311097Y-2795930D01*
X1309217Y-2799435D01*
X1307846Y-2803398D01*
X1307084Y-2803398D01*
X1307084Y-2785364D01*
G37*
G36*
X1526794Y-2785364D02*
G01*
X1526794Y-2794762D01*
X1547876Y-2794762D01*
X1547876Y-2848102D01*
X1526794Y-2848102D01*
X1526794Y-2857500D01*
X1586992Y-2857500D01*
X1586992Y-2848102D01*
X1559052Y-2848102D01*
X1559052Y-2816860D01*
X1559407Y-2812491D01*
X1560576Y-2808579D01*
X1562455Y-2805125D01*
X1565148Y-2802128D01*
X1568297Y-2799689D01*
X1571955Y-2797911D01*
X1576070Y-2796895D01*
X1580642Y-2796540D01*
X1594358Y-2796540D01*
X1594358Y-2785364D01*
X1584198Y-2785364D01*
X1579575Y-2785668D01*
X1575358Y-2786583D01*
X1571599Y-2788056D01*
X1568196Y-2790190D01*
X1565402Y-2792831D01*
X1563065Y-2795930D01*
X1561185Y-2799435D01*
X1559814Y-2803398D01*
X1559052Y-2803398D01*
X1559052Y-2785364D01*
G37*
G36*
X1604264Y-2785364D02*
G01*
X1615186Y-2857500D01*
X1629918Y-2857500D01*
X1641602Y-2797048D01*
X1642618Y-2797048D01*
X1654302Y-2857500D01*
X1668780Y-2857500D01*
X1679702Y-2785364D01*
X1670050Y-2785364D01*
X1661922Y-2847594D01*
X1660652Y-2847594D01*
X1648206Y-2785364D01*
X1636014Y-2785364D01*
X1623568Y-2847594D01*
X1622298Y-2847594D01*
X1614170Y-2785364D01*
G37*
G36*
X2034793Y-2785364D02*
G01*
X2034793Y-2794762D01*
X2060956Y-2794762D01*
X2060956Y-2848102D01*
X2034793Y-2848102D01*
X2034793Y-2857500D01*
X2096516Y-2857500D01*
X2096516Y-2848102D01*
X2072132Y-2848102D01*
X2072132Y-2785364D01*
G37*
G36*
X1725930Y-2839466D02*
G01*
X1723339Y-2839618D01*
X1721154Y-2840024D01*
X1719427Y-2840736D01*
X1718056Y-2841752D01*
X1716938Y-2843072D01*
X1716125Y-2844546D01*
X1715668Y-2846120D01*
X1715516Y-2850388D01*
X1715668Y-2852115D01*
X1716125Y-2853690D01*
X1716938Y-2855163D01*
X1718056Y-2856484D01*
X1719427Y-2857500D01*
X1721154Y-2858211D01*
X1723339Y-2858617D01*
X1725930Y-2858770D01*
X1728622Y-2858617D01*
X1730857Y-2858211D01*
X1732686Y-2857500D01*
X1734057Y-2856484D01*
X1735074Y-2855163D01*
X1735785Y-2853690D01*
X1736191Y-2852115D01*
X1736343Y-2847848D01*
X1736191Y-2846120D01*
X1735785Y-2844546D01*
X1735074Y-2843072D01*
X1734057Y-2841752D01*
X1732686Y-2840736D01*
X1730857Y-2840024D01*
X1728622Y-2839618D01*
G37*
G36*
X1478534Y-2435352D02*
G01*
X1474266Y-2435860D01*
X1472793Y-2436469D01*
X1470761Y-2438450D01*
X1469745Y-2440990D01*
X1469745Y-2446223D01*
X1470761Y-2448763D01*
X1471676Y-2449830D01*
X1472793Y-2450693D01*
X1474266Y-2451354D01*
X1478534Y-2451862D01*
X1480769Y-2451760D01*
X1482648Y-2451354D01*
X1484223Y-2450693D01*
X1485392Y-2449830D01*
X1486306Y-2448763D01*
X1487322Y-2446223D01*
X1487322Y-2440990D01*
X1486916Y-2439670D01*
X1485392Y-2437384D01*
X1484223Y-2436520D01*
X1482648Y-2435860D01*
X1480769Y-2435453D01*
G37*
G36*
X774700Y-2436368D02*
G01*
X774700Y-2540000D01*
X785876Y-2540000D01*
X785876Y-2513838D01*
X798322Y-2502408D01*
X826516Y-2540000D01*
X840486Y-2540000D01*
X806958Y-2496058D01*
X836930Y-2467864D01*
X823214Y-2467864D01*
X799084Y-2489962D01*
X786384Y-2501900D01*
X785876Y-2501900D01*
X785876Y-2436368D01*
G37*
G36*
X1359154Y-2436368D02*
G01*
X1359154Y-2446020D01*
X1384300Y-2446020D01*
X1384300Y-2530602D01*
X1359154Y-2530602D01*
X1359154Y-2540000D01*
X1420876Y-2540000D01*
X1420876Y-2530602D01*
X1395476Y-2530602D01*
X1395476Y-2436368D01*
G37*
G36*
X555244Y-2466086D02*
G01*
X542086Y-2469438D01*
X533146Y-2479548D01*
X532384Y-2479548D01*
X532384Y-2467864D01*
X521208Y-2467864D01*
X521208Y-2516886D01*
X532384Y-2516886D01*
X532485Y-2489149D01*
X533247Y-2485847D01*
X533908Y-2484374D01*
X535686Y-2481935D01*
X537972Y-2479802D01*
X540715Y-2478227D01*
X543814Y-2477008D01*
X547268Y-2476246D01*
X550926Y-2475992D01*
X555599Y-2476347D01*
X559714Y-2477516D01*
X563219Y-2479446D01*
X566166Y-2482088D01*
X568502Y-2485237D01*
X570179Y-2488946D01*
X571144Y-2493111D01*
X571500Y-2497836D01*
X571500Y-2510028D01*
X571144Y-2514752D01*
X570179Y-2518918D01*
X568502Y-2522626D01*
X566166Y-2525776D01*
X563219Y-2528316D01*
X559663Y-2530144D01*
X555599Y-2531262D01*
X550926Y-2531618D01*
X547268Y-2531414D01*
X543814Y-2530856D01*
X540715Y-2529586D01*
X537972Y-2527808D01*
X535686Y-2525776D01*
X533908Y-2523236D01*
X532790Y-2520238D01*
X532384Y-2516886D01*
X521208Y-2516886D01*
X521208Y-2567940D01*
X532384Y-2567940D01*
X532384Y-2528316D01*
X533146Y-2528316D01*
X542086Y-2538425D01*
X555244Y-2541778D01*
X567182Y-2539238D01*
X576072Y-2531618D01*
X581812Y-2519730D01*
X583692Y-2503932D01*
X581761Y-2487930D01*
X576072Y-2475992D01*
X567182Y-2468575D01*
G37*
G36*
X631190Y-2466086D02*
G01*
X626059Y-2466390D01*
X621284Y-2467356D01*
X616966Y-2468626D01*
X613156Y-2470404D01*
X610057Y-2472639D01*
X607314Y-2475230D01*
X605231Y-2477820D01*
X603504Y-2480564D01*
X611124Y-2486152D01*
X612648Y-2483866D01*
X614375Y-2481834D01*
X616305Y-2480056D01*
X618490Y-2478532D01*
X621030Y-2477211D01*
X623874Y-2476246D01*
X627024Y-2475687D01*
X630428Y-2475484D01*
X634390Y-2475738D01*
X637794Y-2476500D01*
X640740Y-2477770D01*
X643128Y-2479548D01*
X645109Y-2481834D01*
X646531Y-2484577D01*
X647395Y-2487777D01*
X647700Y-2491486D01*
X647700Y-2498598D01*
X632206Y-2498598D01*
X618185Y-2500020D01*
X608584Y-2504186D01*
X605383Y-2507132D01*
X603046Y-2510739D01*
X601675Y-2514904D01*
X601218Y-2519680D01*
X601324Y-2520950D01*
X612902Y-2520950D01*
X612902Y-2517902D01*
X613206Y-2515463D01*
X614121Y-2513330D01*
X615594Y-2511399D01*
X617728Y-2509774D01*
X620369Y-2508554D01*
X623620Y-2507691D01*
X627583Y-2507132D01*
X647700Y-2506980D01*
X647598Y-2520289D01*
X647344Y-2521661D01*
X646176Y-2524252D01*
X644550Y-2526588D01*
X642112Y-2528570D01*
X639318Y-2530043D01*
X636016Y-2531364D01*
X632104Y-2532126D01*
X627888Y-2532380D01*
X624636Y-2532176D01*
X621741Y-2531618D01*
X619150Y-2530652D01*
X616966Y-2529332D01*
X615188Y-2527757D01*
X613918Y-2525826D01*
X613156Y-2523591D01*
X612902Y-2520950D01*
X601324Y-2520950D01*
X601624Y-2524506D01*
X602945Y-2528773D01*
X605078Y-2532481D01*
X608076Y-2535682D01*
X611682Y-2538374D01*
X615899Y-2540254D01*
X620674Y-2541422D01*
X626110Y-2541778D01*
X630224Y-2541574D01*
X633933Y-2540863D01*
X637184Y-2539796D01*
X640080Y-2538222D01*
X642569Y-2536291D01*
X644652Y-2533954D01*
X646379Y-2531313D01*
X647700Y-2528316D01*
X648462Y-2528316D01*
X648970Y-2530754D01*
X649732Y-2532938D01*
X650748Y-2534920D01*
X652018Y-2536698D01*
X653643Y-2538120D01*
X655777Y-2539187D01*
X658368Y-2539796D01*
X661416Y-2540000D01*
X669036Y-2540000D01*
X669036Y-2530094D01*
X658876Y-2530094D01*
X658876Y-2490470D01*
X658418Y-2485034D01*
X657047Y-2480259D01*
X654710Y-2476042D01*
X651510Y-2472436D01*
X647395Y-2469642D01*
X642620Y-2467660D01*
X637235Y-2466492D01*
G37*
G36*
X886460Y-2466086D02*
G01*
X882853Y-2466238D01*
X879398Y-2466746D01*
X876147Y-2467508D01*
X872998Y-2468626D01*
X870051Y-2470150D01*
X867359Y-2471928D01*
X864869Y-2473960D01*
X862584Y-2476246D01*
X860552Y-2478887D01*
X858723Y-2481834D01*
X857097Y-2484983D01*
X855726Y-2488438D01*
X854710Y-2491994D01*
X853998Y-2495753D01*
X853733Y-2498344D01*
X865124Y-2498344D01*
X865479Y-2492705D01*
X866648Y-2488438D01*
X868680Y-2484831D01*
X871219Y-2481580D01*
X874318Y-2479040D01*
X878078Y-2477008D01*
X882091Y-2475687D01*
X884224Y-2475331D01*
X888695Y-2475331D01*
X892911Y-2476093D01*
X894842Y-2476754D01*
X898144Y-2478684D01*
X900937Y-2481326D01*
X903376Y-2484424D01*
X905002Y-2488184D01*
X906170Y-2492248D01*
X906526Y-2498344D01*
X853733Y-2498344D01*
X853440Y-2503932D01*
X853592Y-2508148D01*
X853998Y-2512110D01*
X854710Y-2515870D01*
X855726Y-2519426D01*
X857097Y-2522829D01*
X858723Y-2525979D01*
X860552Y-2528824D01*
X862584Y-2531364D01*
X864869Y-2533751D01*
X867410Y-2535834D01*
X870203Y-2537561D01*
X876401Y-2540203D01*
X879805Y-2541066D01*
X883412Y-2541625D01*
X887221Y-2541778D01*
X892454Y-2541473D01*
X897280Y-2540558D01*
X901598Y-2539085D01*
X905510Y-2536952D01*
X909015Y-2534513D01*
X911961Y-2531668D01*
X914349Y-2528519D01*
X916178Y-2525014D01*
X908050Y-2519426D01*
X906475Y-2522169D01*
X904595Y-2524607D01*
X902411Y-2526741D01*
X899921Y-2528570D01*
X897128Y-2530144D01*
X894080Y-2531211D01*
X890778Y-2531922D01*
X887221Y-2532126D01*
X884732Y-2532024D01*
X880160Y-2531110D01*
X876096Y-2529484D01*
X874268Y-2528468D01*
X870966Y-2525776D01*
X868476Y-2522677D01*
X866648Y-2518918D01*
X865479Y-2514650D01*
X865124Y-2510028D01*
X865124Y-2506726D01*
X918718Y-2506726D01*
X918565Y-2497632D01*
X918159Y-2494026D01*
X917448Y-2490520D01*
X916432Y-2487168D01*
X915162Y-2484069D01*
X913637Y-2481173D01*
X911860Y-2478481D01*
X909828Y-2475992D01*
X907694Y-2473807D01*
X905256Y-2471877D01*
X902563Y-2470150D01*
X899668Y-2468626D01*
X896670Y-2467508D01*
X893470Y-2466746D01*
X890066Y-2466238D01*
G37*
G36*
X1221994Y-2466086D02*
G01*
X1218285Y-2466238D01*
X1214780Y-2466746D01*
X1211427Y-2467508D01*
X1208278Y-2468626D01*
X1205331Y-2470150D01*
X1202639Y-2471928D01*
X1200150Y-2473960D01*
X1197864Y-2476246D01*
X1195933Y-2478887D01*
X1194257Y-2481834D01*
X1192784Y-2484983D01*
X1191514Y-2488438D01*
X1190498Y-2491994D01*
X1189786Y-2495753D01*
X1189380Y-2499715D01*
X1189228Y-2503932D01*
X1189468Y-2509012D01*
X1201166Y-2509012D01*
X1201166Y-2498598D01*
X1201521Y-2493111D01*
X1202588Y-2488438D01*
X1204315Y-2484526D01*
X1206754Y-2481326D01*
X1209903Y-2478887D01*
X1213510Y-2477160D01*
X1217523Y-2476093D01*
X1221994Y-2475738D01*
X1226464Y-2476093D01*
X1230528Y-2477109D01*
X1234084Y-2478887D01*
X1237234Y-2481326D01*
X1239672Y-2484475D01*
X1241450Y-2488438D01*
X1242466Y-2493111D01*
X1242822Y-2498598D01*
X1242822Y-2509012D01*
X1242466Y-2514498D01*
X1241450Y-2519222D01*
X1239672Y-2523236D01*
X1237234Y-2526538D01*
X1234084Y-2528976D01*
X1230477Y-2530703D01*
X1226464Y-2531770D01*
X1221994Y-2532126D01*
X1217523Y-2531770D01*
X1213510Y-2530754D01*
X1209903Y-2528976D01*
X1206754Y-2526538D01*
X1204315Y-2523236D01*
X1202537Y-2519222D01*
X1201521Y-2514498D01*
X1201166Y-2509012D01*
X1189468Y-2509012D01*
X1189786Y-2512110D01*
X1190498Y-2515870D01*
X1191514Y-2519426D01*
X1192784Y-2522829D01*
X1194257Y-2525979D01*
X1195933Y-2528824D01*
X1197864Y-2531364D01*
X1200150Y-2533751D01*
X1202639Y-2535834D01*
X1205331Y-2537561D01*
X1208278Y-2538984D01*
X1211427Y-2540203D01*
X1214729Y-2541066D01*
X1218285Y-2541625D01*
X1221994Y-2541778D01*
X1225702Y-2541625D01*
X1229207Y-2541066D01*
X1232560Y-2540203D01*
X1235710Y-2538984D01*
X1238656Y-2537561D01*
X1241348Y-2535834D01*
X1243838Y-2533751D01*
X1246124Y-2531364D01*
X1248054Y-2528824D01*
X1249730Y-2525979D01*
X1251204Y-2522829D01*
X1252474Y-2519426D01*
X1253490Y-2515870D01*
X1254201Y-2512110D01*
X1254607Y-2508148D01*
X1254760Y-2503932D01*
X1254607Y-2499715D01*
X1254201Y-2495753D01*
X1253490Y-2491994D01*
X1252474Y-2488438D01*
X1251204Y-2485034D01*
X1249730Y-2481834D01*
X1248054Y-2478887D01*
X1246124Y-2476246D01*
X1243838Y-2473960D01*
X1241348Y-2471928D01*
X1238656Y-2470150D01*
X1235710Y-2468626D01*
X1232560Y-2467508D01*
X1229207Y-2466746D01*
X1225702Y-2466238D01*
G37*
G36*
X1310132Y-2466086D02*
G01*
X1305864Y-2466340D01*
X1302258Y-2467102D01*
X1299159Y-2468524D01*
X1296416Y-2470150D01*
X1294130Y-2472131D01*
X1290777Y-2476855D01*
X1289558Y-2479548D01*
X1288796Y-2479548D01*
X1288796Y-2467864D01*
X1277620Y-2467864D01*
X1277620Y-2540000D01*
X1288796Y-2540000D01*
X1288897Y-2488234D01*
X1289812Y-2485034D01*
X1291386Y-2482392D01*
X1293418Y-2480208D01*
X1295857Y-2478582D01*
X1298651Y-2477312D01*
X1301902Y-2476398D01*
X1305204Y-2476042D01*
X1310741Y-2476296D01*
X1314196Y-2477211D01*
X1317091Y-2478684D01*
X1319530Y-2480818D01*
X1321409Y-2483561D01*
X1322781Y-2486914D01*
X1323594Y-2490927D01*
X1323848Y-2495550D01*
X1323848Y-2540000D01*
X1335024Y-2540000D01*
X1335024Y-2493772D01*
X1334617Y-2487523D01*
X1333296Y-2482037D01*
X1331163Y-2477262D01*
X1328166Y-2473198D01*
X1324457Y-2470099D01*
X1320241Y-2467864D01*
X1315466Y-2466543D01*
G37*
G36*
X1562100Y-2466086D02*
G01*
X1557832Y-2466340D01*
X1554226Y-2467102D01*
X1551127Y-2468524D01*
X1548384Y-2470150D01*
X1546098Y-2472131D01*
X1542745Y-2476855D01*
X1541526Y-2479548D01*
X1541018Y-2479548D01*
X1541018Y-2467864D01*
X1529842Y-2467864D01*
X1529842Y-2540000D01*
X1541018Y-2540000D01*
X1541119Y-2488234D01*
X1541373Y-2486609D01*
X1542542Y-2483612D01*
X1544320Y-2481275D01*
X1546606Y-2479294D01*
X1549247Y-2477922D01*
X1552194Y-2476754D01*
X1555496Y-2476195D01*
X1558798Y-2475992D01*
X1562709Y-2476296D01*
X1566164Y-2477211D01*
X1569110Y-2478684D01*
X1571498Y-2480818D01*
X1573377Y-2483561D01*
X1574749Y-2486914D01*
X1575562Y-2490927D01*
X1575816Y-2495550D01*
X1575816Y-2540000D01*
X1586992Y-2540000D01*
X1586992Y-2493772D01*
X1586585Y-2487523D01*
X1585264Y-2482037D01*
X1583131Y-2477262D01*
X1580134Y-2473198D01*
X1576425Y-2470099D01*
X1572209Y-2467864D01*
X1567434Y-2466543D01*
G37*
G36*
X1642618Y-2466086D02*
G01*
X1639011Y-2466238D01*
X1635556Y-2466746D01*
X1632305Y-2467508D01*
X1629156Y-2468626D01*
X1626209Y-2470150D01*
X1623517Y-2471928D01*
X1621028Y-2473960D01*
X1618742Y-2476246D01*
X1616608Y-2478887D01*
X1614728Y-2481834D01*
X1613154Y-2484983D01*
X1610766Y-2491994D01*
X1609672Y-2498344D01*
X1621028Y-2498344D01*
X1621129Y-2494940D01*
X1622044Y-2490520D01*
X1623669Y-2486558D01*
X1625803Y-2483154D01*
X1627124Y-2481580D01*
X1630375Y-2479040D01*
X1633982Y-2477008D01*
X1638147Y-2475687D01*
X1642618Y-2475230D01*
X1646834Y-2475636D01*
X1650746Y-2476754D01*
X1654251Y-2478684D01*
X1657096Y-2481326D01*
X1659382Y-2484424D01*
X1661160Y-2488184D01*
X1662328Y-2492248D01*
X1662684Y-2498344D01*
X1609672Y-2498344D01*
X1609344Y-2503932D01*
X1609496Y-2508148D01*
X1610004Y-2512110D01*
X1610766Y-2515870D01*
X1613154Y-2522829D01*
X1614678Y-2525979D01*
X1616456Y-2528824D01*
X1618488Y-2531364D01*
X1620875Y-2533751D01*
X1623415Y-2535834D01*
X1626209Y-2537561D01*
X1629156Y-2538984D01*
X1632407Y-2540203D01*
X1635861Y-2541066D01*
X1639519Y-2541625D01*
X1643380Y-2541778D01*
X1648510Y-2541473D01*
X1653235Y-2540558D01*
X1657502Y-2539085D01*
X1661414Y-2536952D01*
X1664970Y-2534513D01*
X1667967Y-2531668D01*
X1670405Y-2528519D01*
X1672336Y-2525014D01*
X1663954Y-2519426D01*
X1662379Y-2522169D01*
X1660550Y-2524607D01*
X1658315Y-2526741D01*
X1655825Y-2528570D01*
X1653032Y-2530144D01*
X1650034Y-2531211D01*
X1646834Y-2531922D01*
X1643380Y-2532126D01*
X1640890Y-2532024D01*
X1636166Y-2531110D01*
X1632051Y-2529484D01*
X1630222Y-2528468D01*
X1627124Y-2525776D01*
X1624584Y-2522677D01*
X1622552Y-2518918D01*
X1621434Y-2514650D01*
X1621028Y-2510028D01*
X1621028Y-2506726D01*
X1674622Y-2506726D01*
X1674469Y-2497632D01*
X1674063Y-2494026D01*
X1673352Y-2490520D01*
X1672336Y-2487168D01*
X1671066Y-2484069D01*
X1669592Y-2481173D01*
X1667916Y-2478481D01*
X1665986Y-2475992D01*
X1663750Y-2473807D01*
X1661312Y-2471877D01*
X1658670Y-2470150D01*
X1655825Y-2468626D01*
X1652727Y-2467508D01*
X1649475Y-2466746D01*
X1646123Y-2466238D01*
G37*
G36*
X686816Y-2467864D02*
G01*
X686816Y-2477262D01*
X707898Y-2477262D01*
X707898Y-2530602D01*
X686816Y-2530602D01*
X686816Y-2540000D01*
X747014Y-2540000D01*
X747014Y-2530602D01*
X719074Y-2530602D01*
X719074Y-2499360D01*
X719429Y-2494991D01*
X720598Y-2491079D01*
X722528Y-2487625D01*
X725170Y-2484628D01*
X728319Y-2482189D01*
X731977Y-2480411D01*
X736092Y-2479395D01*
X740664Y-2479040D01*
X754380Y-2479040D01*
X754380Y-2467864D01*
X744220Y-2467864D01*
X739597Y-2468168D01*
X735380Y-2469083D01*
X731621Y-2470556D01*
X728218Y-2472690D01*
X725424Y-2475331D01*
X723087Y-2478430D01*
X721207Y-2481935D01*
X719836Y-2485898D01*
X719074Y-2485898D01*
X719074Y-2467864D01*
G37*
G36*
X938784Y-2467864D02*
G01*
X938784Y-2477262D01*
X959866Y-2477262D01*
X959866Y-2530602D01*
X938784Y-2530602D01*
X938784Y-2540000D01*
X999236Y-2540000D01*
X999236Y-2530602D01*
X971042Y-2530602D01*
X971042Y-2499360D01*
X971397Y-2494991D01*
X972566Y-2491079D01*
X974496Y-2487625D01*
X977137Y-2484628D01*
X980287Y-2482189D01*
X983945Y-2480411D01*
X988060Y-2479395D01*
X992632Y-2479040D01*
X1006348Y-2479040D01*
X1006348Y-2467864D01*
X996187Y-2467864D01*
X991565Y-2468168D01*
X987348Y-2469083D01*
X983589Y-2470556D01*
X980186Y-2472690D01*
X977392Y-2475331D01*
X975055Y-2478430D01*
X973175Y-2481935D01*
X971803Y-2485898D01*
X971042Y-2485898D01*
X971042Y-2467864D01*
G37*
G36*
X1016253Y-2467864D02*
G01*
X1027176Y-2540000D01*
X1041908Y-2540000D01*
X1053592Y-2479548D01*
X1054608Y-2479548D01*
X1066292Y-2540000D01*
X1080770Y-2540000D01*
X1091692Y-2467864D01*
X1082040Y-2467864D01*
X1073912Y-2530094D01*
X1072642Y-2530094D01*
X1060196Y-2467864D01*
X1048003Y-2467864D01*
X1035558Y-2530094D01*
X1034287Y-2530094D01*
X1026160Y-2467864D01*
G37*
G36*
X1446784Y-2467864D02*
G01*
X1446784Y-2477262D01*
X1472946Y-2477262D01*
X1472946Y-2530602D01*
X1446784Y-2530602D01*
X1446784Y-2540000D01*
X1508506Y-2540000D01*
X1508506Y-2530602D01*
X1484122Y-2530602D01*
X1484122Y-2467864D01*
G37*
G36*
X1137920Y-2521966D02*
G01*
X1135329Y-2522118D01*
X1133144Y-2522524D01*
X1131417Y-2523236D01*
X1130046Y-2524252D01*
X1129030Y-2525572D01*
X1128318Y-2527046D01*
X1127912Y-2528620D01*
X1127760Y-2532888D01*
X1127912Y-2534615D01*
X1128318Y-2536190D01*
X1129030Y-2537663D01*
X1130046Y-2538984D01*
X1131417Y-2540000D01*
X1133144Y-2540711D01*
X1135329Y-2541117D01*
X1137920Y-2541270D01*
X1140612Y-2541117D01*
X1142847Y-2540711D01*
X1144676Y-2540000D01*
X1146048Y-2538984D01*
X1147064Y-2537663D01*
X1147775Y-2536190D01*
X1148181Y-2534615D01*
X1148334Y-2530348D01*
X1148181Y-2528620D01*
X1147775Y-2527046D01*
X1147064Y-2525572D01*
X1146048Y-2524252D01*
X1144676Y-2523236D01*
X1142847Y-2522524D01*
X1140612Y-2522118D01*
G37*
G36*
X1567688Y-1753362D02*
G01*
X1567688Y-1767586D01*
X1561439Y-1768449D01*
X1555851Y-1770075D01*
X1551025Y-1772412D01*
X1546860Y-1775460D01*
X1543507Y-1779168D01*
X1541119Y-1783537D01*
X1539697Y-1788464D01*
X1539240Y-1794002D01*
X1550416Y-1794002D01*
X1550720Y-1790598D01*
X1551584Y-1787601D01*
X1553006Y-1784908D01*
X1554988Y-1782572D01*
X1557528Y-1780743D01*
X1560525Y-1779320D01*
X1563979Y-1778355D01*
X1567942Y-1777746D01*
X1567942Y-1810766D01*
X1563573Y-1809648D01*
X1559864Y-1808276D01*
X1556867Y-1806702D01*
X1554480Y-1804924D01*
X1552702Y-1802739D01*
X1551432Y-1800148D01*
X1550670Y-1797253D01*
X1550416Y-1794002D01*
X1539240Y-1794002D01*
X1539544Y-1798726D01*
X1540510Y-1803146D01*
X1542135Y-1807464D01*
X1544574Y-1811274D01*
X1546199Y-1813001D01*
X1550162Y-1816049D01*
X1552448Y-1817370D01*
X1557934Y-1819605D01*
X1567942Y-1821942D01*
X1567942Y-1823212D01*
X1576324Y-1823212D01*
X1580794Y-1824228D01*
X1584655Y-1825498D01*
X1587804Y-1827022D01*
X1590294Y-1828800D01*
X1592173Y-1831035D01*
X1593545Y-1833676D01*
X1594358Y-1836775D01*
X1594612Y-1840230D01*
X1594307Y-1843938D01*
X1593392Y-1847291D01*
X1591919Y-1850186D01*
X1589786Y-1852675D01*
X1587246Y-1854758D01*
X1584147Y-1856384D01*
X1580489Y-1857552D01*
X1576324Y-1858264D01*
X1576324Y-1823212D01*
X1567942Y-1823212D01*
X1567942Y-1858264D01*
X1564386Y-1857806D01*
X1561033Y-1856993D01*
X1557883Y-1855774D01*
X1554988Y-1854200D01*
X1552244Y-1852269D01*
X1549501Y-1849932D01*
X1544320Y-1844293D01*
X1535684Y-1851406D01*
X1538376Y-1854707D01*
X1541373Y-1857756D01*
X1544726Y-1860550D01*
X1548384Y-1863089D01*
X1552549Y-1865122D01*
X1557172Y-1866696D01*
X1562201Y-1867814D01*
X1567688Y-1868424D01*
X1567688Y-1882648D01*
X1576324Y-1882648D01*
X1576324Y-1868424D01*
X1583131Y-1867509D01*
X1589074Y-1865731D01*
X1594205Y-1863191D01*
X1598422Y-1859788D01*
X1601774Y-1855825D01*
X1604162Y-1851202D01*
X1605584Y-1846021D01*
X1606042Y-1840230D01*
X1605737Y-1835353D01*
X1604772Y-1830832D01*
X1603044Y-1826514D01*
X1601876Y-1824532D01*
X1598828Y-1820976D01*
X1594866Y-1817928D01*
X1592580Y-1816607D01*
X1587093Y-1814372D01*
X1576324Y-1812036D01*
X1576324Y-1777746D01*
X1579626Y-1778254D01*
X1582674Y-1779066D01*
X1585468Y-1780184D01*
X1588008Y-1781556D01*
X1590344Y-1783181D01*
X1594662Y-1787245D01*
X1596644Y-1789684D01*
X1605534Y-1783334D01*
X1602740Y-1779981D01*
X1599742Y-1777034D01*
X1596542Y-1774545D01*
X1593088Y-1772412D01*
X1589379Y-1770583D01*
X1585315Y-1769160D01*
X1580997Y-1768195D01*
X1576324Y-1767586D01*
X1576324Y-1753362D01*
G37*
G36*
X1827275Y-1762252D02*
G01*
X1823008Y-1762760D01*
X1821535Y-1763369D01*
X1820418Y-1764284D01*
X1818893Y-1766570D01*
X1818487Y-1767890D01*
X1818487Y-1773123D01*
X1818893Y-1774443D01*
X1820418Y-1776730D01*
X1821535Y-1777593D01*
X1823008Y-1778254D01*
X1827275Y-1778762D01*
X1829511Y-1778660D01*
X1831390Y-1778254D01*
X1832965Y-1777593D01*
X1834134Y-1776730D01*
X1835454Y-1774443D01*
X1835810Y-1773123D01*
X1835810Y-1767890D01*
X1834896Y-1765350D01*
X1834134Y-1764284D01*
X1832965Y-1763420D01*
X1831390Y-1762760D01*
X1829511Y-1762353D01*
G37*
G36*
X787400Y-1763268D02*
G01*
X787400Y-1866900D01*
X798576Y-1866900D01*
X798576Y-1840738D01*
X811022Y-1829307D01*
X839216Y-1866900D01*
X853186Y-1866900D01*
X819658Y-1822957D01*
X849630Y-1794764D01*
X835914Y-1794764D01*
X811784Y-1816862D01*
X799084Y-1828800D01*
X798576Y-1828800D01*
X798576Y-1763268D01*
G37*
G36*
X1290066Y-1763268D02*
G01*
X1290066Y-1843786D01*
X1301242Y-1843786D01*
X1301343Y-1816049D01*
X1301597Y-1814322D01*
X1302766Y-1811274D01*
X1304340Y-1808835D01*
X1306576Y-1806702D01*
X1309319Y-1805127D01*
X1312418Y-1803907D01*
X1316024Y-1803146D01*
X1319784Y-1802892D01*
X1324356Y-1803247D01*
X1328369Y-1804416D01*
X1331823Y-1806346D01*
X1334770Y-1808988D01*
X1337208Y-1812137D01*
X1338986Y-1815846D01*
X1340002Y-1820011D01*
X1340358Y-1824736D01*
X1340358Y-1836928D01*
X1340002Y-1841652D01*
X1338986Y-1845818D01*
X1337208Y-1849526D01*
X1334770Y-1852675D01*
X1331823Y-1855216D01*
X1328369Y-1857044D01*
X1324356Y-1858162D01*
X1319784Y-1858518D01*
X1316024Y-1858314D01*
X1312418Y-1857756D01*
X1309319Y-1856486D01*
X1306576Y-1854707D01*
X1304340Y-1852675D01*
X1302766Y-1850136D01*
X1301597Y-1847138D01*
X1301242Y-1843786D01*
X1290066Y-1843786D01*
X1290066Y-1866900D01*
X1301242Y-1866900D01*
X1301242Y-1855216D01*
X1301750Y-1855216D01*
X1310894Y-1865325D01*
X1324102Y-1868678D01*
X1335938Y-1866138D01*
X1344930Y-1858518D01*
X1350467Y-1846630D01*
X1352296Y-1830832D01*
X1350467Y-1814830D01*
X1344930Y-1802892D01*
X1335938Y-1795475D01*
X1324102Y-1792986D01*
X1310894Y-1796338D01*
X1301750Y-1806448D01*
X1301242Y-1806448D01*
X1301242Y-1763268D01*
G37*
G36*
X1707896Y-1763268D02*
G01*
X1707896Y-1772920D01*
X1733042Y-1772920D01*
X1733042Y-1857502D01*
X1707896Y-1857502D01*
X1707896Y-1866900D01*
X1769618Y-1866900D01*
X1769618Y-1857502D01*
X1744218Y-1857502D01*
X1744218Y-1763268D01*
G37*
G36*
X1963420Y-1763268D02*
G01*
X1963420Y-1866900D01*
X1974596Y-1866900D01*
X1974596Y-1840738D01*
X1987042Y-1829307D01*
X2015236Y-1866900D01*
X2028952Y-1866900D01*
X1995678Y-1822957D01*
X2025650Y-1794764D01*
X2011934Y-1794764D01*
X1987804Y-1816862D01*
X1975104Y-1828800D01*
X1974596Y-1828800D01*
X1974596Y-1763268D01*
G37*
G36*
X1066800Y-1767586D02*
G01*
X1062837Y-1767738D01*
X1059129Y-1768297D01*
X1055624Y-1769160D01*
X1052322Y-1770380D01*
X1049375Y-1772056D01*
X1046683Y-1774189D01*
X1044194Y-1776831D01*
X1041908Y-1780032D01*
X1039977Y-1783588D01*
X1038301Y-1787702D01*
X1036828Y-1792376D01*
X1035558Y-1797557D01*
X1033830Y-1810004D01*
X1033271Y-1824989D01*
X1033373Y-1832000D01*
X1034389Y-1844548D01*
X1036370Y-1855368D01*
X1037793Y-1860092D01*
X1039520Y-1864360D01*
X1041653Y-1868170D01*
X1043990Y-1871624D01*
X1046683Y-1874570D01*
X1049680Y-1877060D01*
X1053084Y-1879092D01*
X1056995Y-1880666D01*
X1061262Y-1881784D01*
X1065987Y-1882444D01*
X1071118Y-1882648D01*
X1088136Y-1882648D01*
X1088136Y-1873504D01*
X1067104Y-1873351D01*
X1063498Y-1872792D01*
X1060246Y-1871929D01*
X1057402Y-1870710D01*
X1054862Y-1869033D01*
X1052626Y-1867103D01*
X1050696Y-1864868D01*
X1049020Y-1862328D01*
X1047699Y-1859584D01*
X1046581Y-1856638D01*
X1044956Y-1850136D01*
X1044194Y-1842770D01*
X1043940Y-1834896D01*
X1043940Y-1816862D01*
X1045260Y-1798523D01*
X1049274Y-1786128D01*
X1052372Y-1781911D01*
X1056386Y-1778863D01*
X1061262Y-1777085D01*
X1067054Y-1776475D01*
X1072286Y-1776882D01*
X1076706Y-1778203D01*
X1080363Y-1780336D01*
X1083310Y-1783334D01*
X1085443Y-1787093D01*
X1086916Y-1791462D01*
X1087831Y-1796491D01*
X1088136Y-1805432D01*
X1087628Y-1805432D01*
X1085850Y-1801875D01*
X1083818Y-1799589D01*
X1082141Y-1798218D01*
X1080109Y-1797050D01*
X1077823Y-1796186D01*
X1073658Y-1795780D01*
X1069543Y-1796237D01*
X1065936Y-1797608D01*
X1062685Y-1799945D01*
X1059942Y-1803146D01*
X1057706Y-1807260D01*
X1056132Y-1812442D01*
X1055166Y-1818690D01*
X1054862Y-1826006D01*
X1055033Y-1830070D01*
X1065276Y-1830070D01*
X1065276Y-1821434D01*
X1065479Y-1817065D01*
X1066038Y-1813458D01*
X1067003Y-1810461D01*
X1068324Y-1808225D01*
X1070000Y-1806448D01*
X1072083Y-1805178D01*
X1074470Y-1804416D01*
X1077214Y-1804162D01*
X1079652Y-1804314D01*
X1081786Y-1804873D01*
X1083665Y-1805736D01*
X1085342Y-1806956D01*
X1086561Y-1808530D01*
X1087424Y-1810359D01*
X1087983Y-1812594D01*
X1088136Y-1815084D01*
X1088136Y-1836420D01*
X1087983Y-1838909D01*
X1087424Y-1841093D01*
X1086561Y-1842973D01*
X1085342Y-1844548D01*
X1083665Y-1845767D01*
X1081786Y-1846630D01*
X1079652Y-1847189D01*
X1077214Y-1847342D01*
X1074470Y-1847088D01*
X1072083Y-1846376D01*
X1070000Y-1845208D01*
X1068324Y-1843532D01*
X1067003Y-1841144D01*
X1066038Y-1838147D01*
X1065479Y-1834438D01*
X1065276Y-1830070D01*
X1055033Y-1830070D01*
X1055166Y-1833219D01*
X1056132Y-1839417D01*
X1057706Y-1844548D01*
X1059942Y-1848612D01*
X1062685Y-1851710D01*
X1065885Y-1853946D01*
X1069543Y-1855266D01*
X1073658Y-1855724D01*
X1076553Y-1855571D01*
X1079042Y-1855012D01*
X1081227Y-1854149D01*
X1083056Y-1852930D01*
X1085697Y-1849678D01*
X1087628Y-1846072D01*
X1088136Y-1846072D01*
X1088136Y-1854200D01*
X1098296Y-1854200D01*
X1098194Y-1798523D01*
X1097280Y-1791665D01*
X1096518Y-1788414D01*
X1095502Y-1785366D01*
X1094232Y-1782521D01*
X1092708Y-1779879D01*
X1090930Y-1777492D01*
X1088898Y-1775307D01*
X1086612Y-1773377D01*
X1084072Y-1771650D01*
X1081278Y-1770125D01*
X1078077Y-1769008D01*
X1074623Y-1768246D01*
X1070864Y-1767738D01*
G37*
G36*
X567944Y-1792986D02*
G01*
X554786Y-1796338D01*
X545846Y-1806448D01*
X545084Y-1806448D01*
X545084Y-1794764D01*
X533908Y-1794764D01*
X533908Y-1843786D01*
X545084Y-1843786D01*
X545185Y-1816049D01*
X545947Y-1812747D01*
X546608Y-1811274D01*
X548386Y-1808835D01*
X550672Y-1806702D01*
X553415Y-1805127D01*
X556514Y-1803907D01*
X559968Y-1803146D01*
X563626Y-1802892D01*
X568299Y-1803247D01*
X572414Y-1804416D01*
X575919Y-1806346D01*
X578866Y-1808988D01*
X581202Y-1812137D01*
X582879Y-1815846D01*
X583844Y-1820011D01*
X584200Y-1824736D01*
X584200Y-1836928D01*
X583844Y-1841652D01*
X582879Y-1845818D01*
X581202Y-1849526D01*
X578866Y-1852675D01*
X575919Y-1855216D01*
X572363Y-1857044D01*
X568299Y-1858162D01*
X563626Y-1858518D01*
X559968Y-1858314D01*
X556514Y-1857756D01*
X553415Y-1856486D01*
X550672Y-1854707D01*
X548386Y-1852675D01*
X546608Y-1850136D01*
X545490Y-1847138D01*
X545084Y-1843786D01*
X533908Y-1843786D01*
X533908Y-1894839D01*
X545084Y-1894839D01*
X545084Y-1855216D01*
X545846Y-1855216D01*
X554786Y-1865325D01*
X567944Y-1868678D01*
X579882Y-1866138D01*
X588772Y-1858518D01*
X594512Y-1846630D01*
X596392Y-1830832D01*
X594461Y-1814830D01*
X588772Y-1802892D01*
X579882Y-1795475D01*
G37*
G36*
X643890Y-1792986D02*
G01*
X638759Y-1793290D01*
X633984Y-1794256D01*
X629666Y-1795525D01*
X625856Y-1797304D01*
X622757Y-1799539D01*
X620014Y-1802130D01*
X617931Y-1804720D01*
X616204Y-1807464D01*
X623824Y-1813052D01*
X625348Y-1810766D01*
X627075Y-1808734D01*
X629005Y-1806956D01*
X631190Y-1805432D01*
X633730Y-1804111D01*
X636574Y-1803146D01*
X639724Y-1802587D01*
X643128Y-1802384D01*
X647090Y-1802638D01*
X650494Y-1803400D01*
X653440Y-1804670D01*
X655828Y-1806448D01*
X657809Y-1808734D01*
X659231Y-1811477D01*
X660095Y-1814677D01*
X660400Y-1818386D01*
X660400Y-1825498D01*
X644906Y-1825498D01*
X630885Y-1826920D01*
X621284Y-1831086D01*
X618083Y-1834032D01*
X615746Y-1837639D01*
X614375Y-1841804D01*
X613918Y-1846580D01*
X614024Y-1847850D01*
X625602Y-1847850D01*
X625602Y-1844802D01*
X625906Y-1842363D01*
X626821Y-1840230D01*
X628294Y-1838299D01*
X630428Y-1836674D01*
X633069Y-1835454D01*
X636320Y-1834591D01*
X640283Y-1834032D01*
X660400Y-1833880D01*
X660298Y-1847189D01*
X660044Y-1848561D01*
X658876Y-1851152D01*
X657250Y-1853488D01*
X654812Y-1855470D01*
X652018Y-1856943D01*
X648716Y-1858264D01*
X644804Y-1859025D01*
X640588Y-1859280D01*
X637336Y-1859076D01*
X634441Y-1858518D01*
X631850Y-1857552D01*
X629666Y-1856232D01*
X627888Y-1854657D01*
X626618Y-1852726D01*
X625856Y-1850491D01*
X625602Y-1847850D01*
X614024Y-1847850D01*
X614324Y-1851406D01*
X615645Y-1855673D01*
X617778Y-1859381D01*
X620776Y-1862582D01*
X624382Y-1865274D01*
X628599Y-1867154D01*
X633374Y-1868322D01*
X638810Y-1868678D01*
X642924Y-1868474D01*
X646633Y-1867763D01*
X649884Y-1866696D01*
X652780Y-1865122D01*
X655269Y-1863191D01*
X657352Y-1860854D01*
X659079Y-1858213D01*
X660400Y-1855216D01*
X661162Y-1855216D01*
X661670Y-1857654D01*
X662432Y-1859838D01*
X663448Y-1861820D01*
X664718Y-1863598D01*
X666343Y-1865020D01*
X668477Y-1866087D01*
X671068Y-1866696D01*
X674116Y-1866900D01*
X681736Y-1866900D01*
X681736Y-1856993D01*
X671576Y-1856993D01*
X671576Y-1817370D01*
X671118Y-1811934D01*
X669747Y-1807159D01*
X667410Y-1802942D01*
X664210Y-1799336D01*
X660095Y-1796542D01*
X655320Y-1794560D01*
X649935Y-1793392D01*
G37*
G36*
X899160Y-1792986D02*
G01*
X895553Y-1793138D01*
X892098Y-1793646D01*
X888847Y-1794408D01*
X885698Y-1795525D01*
X882751Y-1797050D01*
X880059Y-1798828D01*
X877569Y-1800860D01*
X875284Y-1803146D01*
X873252Y-1805787D01*
X871423Y-1808734D01*
X869797Y-1811883D01*
X868426Y-1815338D01*
X867410Y-1818893D01*
X866698Y-1822653D01*
X866433Y-1825243D01*
X877824Y-1825243D01*
X878179Y-1819605D01*
X879348Y-1815338D01*
X881380Y-1811731D01*
X883919Y-1808480D01*
X887018Y-1805939D01*
X890778Y-1803907D01*
X894791Y-1802587D01*
X896924Y-1802231D01*
X901395Y-1802231D01*
X905611Y-1802993D01*
X907542Y-1803654D01*
X910844Y-1805584D01*
X913637Y-1808225D01*
X916076Y-1811324D01*
X917702Y-1815084D01*
X918870Y-1819148D01*
X919226Y-1825243D01*
X866433Y-1825243D01*
X866140Y-1830832D01*
X866292Y-1835048D01*
X866698Y-1839010D01*
X867410Y-1842770D01*
X868426Y-1846325D01*
X869797Y-1849729D01*
X871423Y-1852879D01*
X873252Y-1855724D01*
X875284Y-1858264D01*
X877569Y-1860651D01*
X880110Y-1862734D01*
X882903Y-1864461D01*
X889101Y-1867103D01*
X892505Y-1867966D01*
X896112Y-1868525D01*
X899921Y-1868678D01*
X905154Y-1868373D01*
X909980Y-1867458D01*
X914298Y-1865985D01*
X918210Y-1863852D01*
X921715Y-1861413D01*
X924661Y-1858568D01*
X927049Y-1855419D01*
X928878Y-1851914D01*
X920750Y-1846325D01*
X919175Y-1849069D01*
X917295Y-1851507D01*
X915111Y-1853641D01*
X912621Y-1855470D01*
X909828Y-1857044D01*
X906780Y-1858111D01*
X903478Y-1858822D01*
X899921Y-1859025D01*
X897432Y-1858924D01*
X892860Y-1858010D01*
X888796Y-1856384D01*
X886968Y-1855368D01*
X883666Y-1852675D01*
X881176Y-1849577D01*
X879348Y-1845818D01*
X878179Y-1841550D01*
X877824Y-1836928D01*
X877824Y-1833625D01*
X931418Y-1833625D01*
X931265Y-1824532D01*
X930859Y-1820925D01*
X930148Y-1817420D01*
X929132Y-1814068D01*
X927862Y-1810969D01*
X926337Y-1808073D01*
X924560Y-1805381D01*
X922528Y-1802892D01*
X920394Y-1800707D01*
X917956Y-1798777D01*
X915263Y-1797050D01*
X912368Y-1795525D01*
X909370Y-1794408D01*
X906170Y-1793646D01*
X902766Y-1793138D01*
G37*
G36*
X1155954Y-1792986D02*
G01*
X1142796Y-1796338D01*
X1133856Y-1806448D01*
X1133094Y-1806448D01*
X1133094Y-1794764D01*
X1121918Y-1794764D01*
X1121918Y-1843786D01*
X1133094Y-1843786D01*
X1133195Y-1816049D01*
X1133957Y-1812747D01*
X1134618Y-1811274D01*
X1136396Y-1808835D01*
X1138682Y-1806702D01*
X1141425Y-1805127D01*
X1144524Y-1803907D01*
X1147978Y-1803146D01*
X1151636Y-1802892D01*
X1156309Y-1803247D01*
X1160373Y-1804416D01*
X1163929Y-1806346D01*
X1166876Y-1808988D01*
X1169212Y-1812137D01*
X1170889Y-1815846D01*
X1171854Y-1820011D01*
X1172210Y-1824736D01*
X1172210Y-1836928D01*
X1171854Y-1841652D01*
X1170889Y-1845818D01*
X1169212Y-1849526D01*
X1166876Y-1852675D01*
X1163929Y-1855216D01*
X1160373Y-1857044D01*
X1156309Y-1858162D01*
X1151636Y-1858518D01*
X1147978Y-1858314D01*
X1144524Y-1857756D01*
X1141425Y-1856486D01*
X1138682Y-1854707D01*
X1136396Y-1852675D01*
X1134618Y-1850136D01*
X1133500Y-1847138D01*
X1133094Y-1843786D01*
X1121918Y-1843786D01*
X1121918Y-1894839D01*
X1133094Y-1894839D01*
X1133094Y-1855216D01*
X1133856Y-1855216D01*
X1142796Y-1865325D01*
X1155954Y-1868678D01*
X1167892Y-1866138D01*
X1176782Y-1858518D01*
X1182471Y-1846630D01*
X1184402Y-1830832D01*
X1182522Y-1814830D01*
X1176782Y-1802892D01*
X1167892Y-1795475D01*
G37*
G36*
X1236980Y-1792986D02*
G01*
X1233271Y-1793138D01*
X1229715Y-1793646D01*
X1226413Y-1794408D01*
X1223264Y-1795525D01*
X1220419Y-1797050D01*
X1217777Y-1798828D01*
X1215339Y-1800860D01*
X1213104Y-1803146D01*
X1211173Y-1805787D01*
X1209497Y-1808734D01*
X1208024Y-1811883D01*
X1206754Y-1815338D01*
X1205738Y-1818893D01*
X1205026Y-1822653D01*
X1204620Y-1826615D01*
X1204468Y-1830832D01*
X1204620Y-1834946D01*
X1205026Y-1838909D01*
X1205738Y-1842668D01*
X1207922Y-1849729D01*
X1209344Y-1852879D01*
X1211072Y-1855724D01*
X1213104Y-1858264D01*
X1215288Y-1860550D01*
X1217676Y-1862582D01*
X1220368Y-1864360D01*
X1223264Y-1865884D01*
X1226413Y-1867103D01*
X1229817Y-1867966D01*
X1233424Y-1868525D01*
X1237234Y-1868678D01*
X1242415Y-1868373D01*
X1247140Y-1867458D01*
X1251305Y-1865985D01*
X1255014Y-1863852D01*
X1258112Y-1861261D01*
X1260805Y-1858365D01*
X1263040Y-1855165D01*
X1264920Y-1851660D01*
X1257046Y-1846325D01*
X1255522Y-1849069D01*
X1253744Y-1851507D01*
X1251712Y-1853641D01*
X1249426Y-1855470D01*
X1246835Y-1857044D01*
X1243939Y-1858111D01*
X1240739Y-1858822D01*
X1237234Y-1859025D01*
X1234846Y-1858924D01*
X1230426Y-1858010D01*
X1226515Y-1856384D01*
X1224788Y-1855368D01*
X1221740Y-1852675D01*
X1219504Y-1849577D01*
X1217930Y-1845818D01*
X1216761Y-1841550D01*
X1216406Y-1836928D01*
X1216507Y-1822348D01*
X1216761Y-1820113D01*
X1217930Y-1815846D01*
X1219504Y-1812036D01*
X1221740Y-1808734D01*
X1224788Y-1806193D01*
X1228344Y-1804162D01*
X1232408Y-1803044D01*
X1236980Y-1802638D01*
X1240282Y-1802841D01*
X1243279Y-1803400D01*
X1245971Y-1804365D01*
X1248410Y-1805686D01*
X1250543Y-1807362D01*
X1252270Y-1809394D01*
X1253693Y-1811680D01*
X1254760Y-1814322D01*
X1263904Y-1809750D01*
X1262176Y-1806143D01*
X1259992Y-1802892D01*
X1257350Y-1800047D01*
X1254252Y-1797557D01*
X1250696Y-1795576D01*
X1246632Y-1794154D01*
X1242060Y-1793290D01*
G37*
G36*
X1910842Y-1792986D02*
G01*
X1906574Y-1793239D01*
X1902968Y-1794002D01*
X1899869Y-1795424D01*
X1897125Y-1797050D01*
X1894839Y-1799031D01*
X1891487Y-1803755D01*
X1890268Y-1806448D01*
X1889506Y-1806448D01*
X1889506Y-1794764D01*
X1878330Y-1794764D01*
X1878330Y-1866900D01*
X1889506Y-1866900D01*
X1889607Y-1815134D01*
X1890522Y-1811934D01*
X1892096Y-1809292D01*
X1893976Y-1807108D01*
X1895093Y-1806193D01*
X1897837Y-1804822D01*
X1900936Y-1803654D01*
X1904238Y-1803095D01*
X1907539Y-1802892D01*
X1911502Y-1803196D01*
X1914906Y-1804111D01*
X1917801Y-1805584D01*
X1920239Y-1807718D01*
X1922119Y-1810461D01*
X1923491Y-1813814D01*
X1924304Y-1817827D01*
X1924557Y-1822450D01*
X1924557Y-1866900D01*
X1935734Y-1866900D01*
X1935734Y-1820672D01*
X1935327Y-1814423D01*
X1934006Y-1808937D01*
X1931873Y-1804162D01*
X1928875Y-1800098D01*
X1925167Y-1796999D01*
X1920951Y-1794764D01*
X1916175Y-1793443D01*
G37*
G36*
X2075180Y-1792986D02*
G01*
X2069134Y-1793290D01*
X2063750Y-1794256D01*
X2058720Y-1795881D01*
X2054352Y-1798320D01*
X2050897Y-1801418D01*
X2048256Y-1805178D01*
X2047392Y-1807210D01*
X2046732Y-1809445D01*
X2046224Y-1814575D01*
X2046376Y-1817370D01*
X2046782Y-1819859D01*
X2047493Y-1822043D01*
X2048510Y-1823974D01*
X2051304Y-1827326D01*
X2052878Y-1828698D01*
X2056536Y-1830882D01*
X2060600Y-1832508D01*
X2068931Y-1834235D01*
X2084781Y-1836674D01*
X2087118Y-1837182D01*
X2090166Y-1838452D01*
X2092045Y-1839620D01*
X2093417Y-1841144D01*
X2094433Y-1843074D01*
X2094941Y-1845462D01*
X2094992Y-1846834D01*
X2094636Y-1849780D01*
X2093671Y-1852371D01*
X2091994Y-1854504D01*
X2089657Y-1856232D01*
X2086813Y-1857552D01*
X2083562Y-1858518D01*
X2079955Y-1859076D01*
X2075942Y-1859280D01*
X2071674Y-1859076D01*
X2067763Y-1858518D01*
X2064156Y-1857552D01*
X2060956Y-1856232D01*
X2057958Y-1854657D01*
X2055063Y-1852726D01*
X2052218Y-1850491D01*
X2049525Y-1847850D01*
X2042160Y-1854454D01*
X2045106Y-1857451D01*
X2048459Y-1860194D01*
X2052116Y-1862531D01*
X2056130Y-1864614D01*
X2060397Y-1866392D01*
X2065020Y-1867662D01*
X2070049Y-1868424D01*
X2075434Y-1868678D01*
X2082088Y-1868322D01*
X2087981Y-1867154D01*
X2093264Y-1865223D01*
X2097786Y-1862582D01*
X2101443Y-1859381D01*
X2104085Y-1855520D01*
X2105660Y-1851101D01*
X2106168Y-1846072D01*
X2106015Y-1843278D01*
X2105558Y-1840738D01*
X2104745Y-1838452D01*
X2103628Y-1836420D01*
X2100834Y-1833270D01*
X2097532Y-1830832D01*
X2093772Y-1828850D01*
X2089657Y-1827530D01*
X2081275Y-1826006D01*
X2068677Y-1824075D01*
X2063140Y-1822500D01*
X2059432Y-1820214D01*
X2058162Y-1818639D01*
X2057400Y-1816404D01*
X2057146Y-1813814D01*
X2057450Y-1811172D01*
X2058263Y-1808886D01*
X2059736Y-1806854D01*
X2061718Y-1805178D01*
X2064257Y-1803958D01*
X2067306Y-1803095D01*
X2070862Y-1802536D01*
X2077161Y-1802434D01*
X2081377Y-1802790D01*
X2085035Y-1803654D01*
X2088235Y-1804822D01*
X2090978Y-1806092D01*
X2093264Y-1807464D01*
X2097278Y-1811528D01*
X2104644Y-1804670D01*
X2101951Y-1802028D01*
X2099005Y-1799691D01*
X2095754Y-1797710D01*
X2092198Y-1796034D01*
X2088489Y-1794713D01*
X2084374Y-1793748D01*
X2079955Y-1793189D01*
G37*
G36*
X1402588Y-1793493D02*
G01*
X1399997Y-1793646D01*
X1397812Y-1794052D01*
X1396085Y-1794764D01*
X1394714Y-1795780D01*
X1393698Y-1796999D01*
X1392986Y-1798472D01*
X1392580Y-1800047D01*
X1392428Y-1804416D01*
X1392580Y-1806092D01*
X1392986Y-1807667D01*
X1393698Y-1809038D01*
X1394714Y-1810257D01*
X1396085Y-1811375D01*
X1397812Y-1812188D01*
X1399997Y-1812645D01*
X1402588Y-1812798D01*
X1405280Y-1812645D01*
X1407515Y-1812188D01*
X1409344Y-1811375D01*
X1410716Y-1810257D01*
X1411732Y-1809038D01*
X1412443Y-1807667D01*
X1412849Y-1806092D01*
X1413002Y-1801875D01*
X1412849Y-1800047D01*
X1412443Y-1798421D01*
X1411732Y-1796999D01*
X1410716Y-1795780D01*
X1409344Y-1794764D01*
X1407515Y-1794052D01*
X1405280Y-1793646D01*
G37*
G36*
X699516Y-1794764D02*
G01*
X699516Y-1804162D01*
X720598Y-1804162D01*
X720598Y-1857502D01*
X699516Y-1857502D01*
X699516Y-1866900D01*
X759714Y-1866900D01*
X759714Y-1857502D01*
X731774Y-1857502D01*
X731774Y-1826260D01*
X732129Y-1821891D01*
X733298Y-1817979D01*
X735228Y-1814525D01*
X737870Y-1811528D01*
X741019Y-1809089D01*
X744677Y-1807311D01*
X748792Y-1806295D01*
X753364Y-1805939D01*
X767080Y-1805939D01*
X767080Y-1794764D01*
X756920Y-1794764D01*
X752297Y-1795068D01*
X748080Y-1795983D01*
X744321Y-1797456D01*
X740918Y-1799589D01*
X738124Y-1802231D01*
X735787Y-1805330D01*
X733907Y-1808835D01*
X732536Y-1812798D01*
X731774Y-1812798D01*
X731774Y-1794764D01*
G37*
G36*
X951484Y-1794764D02*
G01*
X951484Y-1804162D01*
X972566Y-1804162D01*
X972566Y-1857502D01*
X951484Y-1857502D01*
X951484Y-1866900D01*
X1011936Y-1866900D01*
X1011936Y-1857502D01*
X983742Y-1857502D01*
X983742Y-1826260D01*
X984097Y-1821891D01*
X985266Y-1817979D01*
X987196Y-1814525D01*
X989837Y-1811528D01*
X992987Y-1809089D01*
X996645Y-1807311D01*
X1000760Y-1806295D01*
X1005332Y-1805939D01*
X1019048Y-1805939D01*
X1019048Y-1794764D01*
X1008887Y-1794764D01*
X1004265Y-1795068D01*
X1000048Y-1795983D01*
X996289Y-1797456D01*
X992886Y-1799589D01*
X990092Y-1802231D01*
X987755Y-1805330D01*
X985875Y-1808835D01*
X984503Y-1812798D01*
X983742Y-1812798D01*
X983742Y-1794764D01*
G37*
G36*
X1795525Y-1794764D02*
G01*
X1795525Y-1804162D01*
X1821688Y-1804162D01*
X1821688Y-1857502D01*
X1795525Y-1857502D01*
X1795525Y-1866900D01*
X1857248Y-1866900D01*
X1857248Y-1857502D01*
X1832864Y-1857502D01*
X1832864Y-1794764D01*
G37*
G36*
X1472438Y-1808988D02*
G01*
X1468475Y-1809445D01*
X1464919Y-1810766D01*
X1461871Y-1813001D01*
X1459230Y-1816100D01*
X1456944Y-1819910D01*
X1454962Y-1824482D01*
X1453286Y-1829816D01*
X1451864Y-1835912D01*
X1460500Y-1837943D01*
X1461668Y-1832914D01*
X1462938Y-1828647D01*
X1464208Y-1825294D01*
X1465580Y-1822704D01*
X1466951Y-1820824D01*
X1468526Y-1819452D01*
X1470253Y-1818639D01*
X1472184Y-1818386D01*
X1473606Y-1818538D01*
X1474978Y-1819097D01*
X1476349Y-1819960D01*
X1479194Y-1822602D01*
X1486154Y-1830832D01*
X1490065Y-1834794D01*
X1491996Y-1836420D01*
X1493875Y-1837639D01*
X1496009Y-1838502D01*
X1498346Y-1839061D01*
X1500886Y-1839214D01*
X1504442Y-1838858D01*
X1507693Y-1837740D01*
X1510639Y-1835912D01*
X1513332Y-1833372D01*
X1515770Y-1829866D01*
X1517904Y-1825243D01*
X1519834Y-1819452D01*
X1521460Y-1812543D01*
X1512824Y-1810512D01*
X1511909Y-1814728D01*
X1509725Y-1821688D01*
X1508506Y-1824482D01*
X1506982Y-1826818D01*
X1505254Y-1828495D01*
X1503324Y-1829460D01*
X1501140Y-1829816D01*
X1499768Y-1829663D01*
X1498346Y-1829206D01*
X1496923Y-1828393D01*
X1494078Y-1825853D01*
X1487068Y-1817471D01*
X1483258Y-1813661D01*
X1479448Y-1810715D01*
X1477314Y-1809750D01*
X1474978Y-1809191D01*
G37*
G36*
X1402588Y-1848866D02*
G01*
X1399997Y-1849018D01*
X1397812Y-1849424D01*
X1396085Y-1850136D01*
X1394714Y-1851152D01*
X1393698Y-1852472D01*
X1392986Y-1853946D01*
X1392580Y-1855520D01*
X1392428Y-1859788D01*
X1392580Y-1861515D01*
X1392986Y-1863089D01*
X1393698Y-1864563D01*
X1394714Y-1865884D01*
X1396085Y-1866900D01*
X1397812Y-1867611D01*
X1399997Y-1868017D01*
X1402588Y-1868170D01*
X1405280Y-1868017D01*
X1407515Y-1867611D01*
X1409344Y-1866900D01*
X1410716Y-1865884D01*
X1411732Y-1864563D01*
X1412443Y-1863089D01*
X1412849Y-1861515D01*
X1413002Y-1857248D01*
X1412849Y-1855520D01*
X1412443Y-1853946D01*
X1411732Y-1852472D01*
X1410716Y-1851152D01*
X1409344Y-1850136D01*
X1407515Y-1849424D01*
X1405280Y-1849018D01*
G37*
G36*
X1409192Y-2141474D02*
G01*
X1360678Y-2267204D01*
X1370584Y-2267204D01*
X1419352Y-2141474D01*
G37*
G36*
X638556Y-2143252D02*
G01*
X634288Y-2143760D01*
X632815Y-2144369D01*
X631698Y-2145284D01*
X630174Y-2147570D01*
X629666Y-2150364D01*
X629818Y-2154123D01*
X630174Y-2155444D01*
X631698Y-2157730D01*
X632815Y-2158593D01*
X634288Y-2159254D01*
X638556Y-2159762D01*
X640791Y-2159660D01*
X642670Y-2159254D01*
X644245Y-2158593D01*
X645414Y-2157730D01*
X646734Y-2155444D01*
X647090Y-2154123D01*
X647090Y-2148890D01*
X646176Y-2146350D01*
X645414Y-2145284D01*
X644245Y-2144420D01*
X642670Y-2143760D01*
X640791Y-2143353D01*
G37*
G36*
X773684Y-2144268D02*
G01*
X773684Y-2247900D01*
X784860Y-2247900D01*
X784961Y-2196134D01*
X785215Y-2194509D01*
X786384Y-2191512D01*
X788162Y-2189175D01*
X790448Y-2187194D01*
X793191Y-2185822D01*
X796290Y-2184654D01*
X799592Y-2184095D01*
X802894Y-2183892D01*
X806805Y-2184196D01*
X810260Y-2185111D01*
X813155Y-2186584D01*
X815594Y-2188718D01*
X817473Y-2191461D01*
X818845Y-2194814D01*
X819658Y-2198827D01*
X819912Y-2203450D01*
X819912Y-2247900D01*
X831087Y-2247900D01*
X831087Y-2201672D01*
X830681Y-2195423D01*
X829360Y-2189937D01*
X827227Y-2185162D01*
X824230Y-2181098D01*
X820521Y-2177999D01*
X816254Y-2175764D01*
X811377Y-2174443D01*
X805942Y-2173986D01*
X801878Y-2174240D01*
X798322Y-2175002D01*
X795070Y-2176424D01*
X792480Y-2178050D01*
X790143Y-2180031D01*
X788162Y-2182368D01*
X786688Y-2184755D01*
X785368Y-2187448D01*
X784860Y-2187448D01*
X784860Y-2144268D01*
G37*
G36*
X941324Y-2144268D02*
G01*
X941324Y-2224786D01*
X952500Y-2224786D01*
X952601Y-2197049D01*
X952855Y-2195322D01*
X954024Y-2192274D01*
X955751Y-2189835D01*
X957834Y-2187702D01*
X960628Y-2186127D01*
X963930Y-2184908D01*
X967384Y-2184146D01*
X971042Y-2183892D01*
X975614Y-2184247D01*
X979678Y-2185416D01*
X983234Y-2187346D01*
X986282Y-2189988D01*
X988618Y-2193137D01*
X990295Y-2196846D01*
X991260Y-2201011D01*
X991616Y-2205736D01*
X991616Y-2217928D01*
X991260Y-2222652D01*
X990295Y-2226818D01*
X988618Y-2230526D01*
X986282Y-2233676D01*
X983234Y-2236216D01*
X979678Y-2238044D01*
X975614Y-2239162D01*
X971042Y-2239518D01*
X967384Y-2239314D01*
X963930Y-2238756D01*
X960628Y-2237486D01*
X957834Y-2235708D01*
X955751Y-2233676D01*
X954024Y-2231136D01*
X952855Y-2228138D01*
X952500Y-2224786D01*
X941324Y-2224786D01*
X941324Y-2247900D01*
X952500Y-2247900D01*
X952500Y-2236216D01*
X953008Y-2236216D01*
X962152Y-2246325D01*
X975360Y-2249678D01*
X987145Y-2247138D01*
X996187Y-2239518D01*
X1001725Y-2227630D01*
X1003553Y-2211832D01*
X1001725Y-2195830D01*
X996187Y-2183892D01*
X987145Y-2176475D01*
X975360Y-2173986D01*
X962152Y-2177338D01*
X953008Y-2187448D01*
X952500Y-2187448D01*
X952500Y-2144268D01*
G37*
G36*
X1698752Y-2144268D02*
G01*
X1698752Y-2247900D01*
X1709928Y-2247900D01*
X1709928Y-2221738D01*
X1722374Y-2210308D01*
X1750568Y-2247900D01*
X1764284Y-2247900D01*
X1731010Y-2203958D01*
X1760982Y-2175764D01*
X1747012Y-2175764D01*
X1710436Y-2209800D01*
X1709928Y-2209800D01*
X1709928Y-2144268D01*
G37*
G36*
X2144776Y-2148586D02*
G01*
X2141321Y-2148687D01*
X2135124Y-2149602D01*
X2132330Y-2150364D01*
X2127402Y-2152700D01*
X2125167Y-2154123D01*
X2121357Y-2157323D01*
X2119680Y-2159050D01*
X2116836Y-2163064D01*
X2114753Y-2167178D01*
X2113026Y-2171446D01*
X2123694Y-2175256D01*
X2125014Y-2171750D01*
X2126640Y-2168601D01*
X2128570Y-2165756D01*
X2130806Y-2163318D01*
X2133447Y-2161336D01*
X2136648Y-2159863D01*
X2140356Y-2159050D01*
X2144522Y-2158746D01*
X2148789Y-2159050D01*
X2152497Y-2159965D01*
X2155647Y-2161438D01*
X2158238Y-2163572D01*
X2160219Y-2166213D01*
X2161641Y-2169414D01*
X2162505Y-2173071D01*
X2162810Y-2178812D01*
X2162505Y-2182571D01*
X2161641Y-2186228D01*
X2160219Y-2189835D01*
X2158238Y-2193290D01*
X2153056Y-2199894D01*
X2146554Y-2206498D01*
X2114042Y-2235962D01*
X2114042Y-2247900D01*
X2179066Y-2247900D01*
X2179066Y-2237740D01*
X2126234Y-2237740D01*
X2155799Y-2211832D01*
X2160219Y-2207615D01*
X2164232Y-2203297D01*
X2167686Y-2198878D01*
X2170480Y-2194407D01*
X2172766Y-2189683D01*
X2173732Y-2187194D01*
X2174900Y-2182164D01*
X2175256Y-2176780D01*
X2175154Y-2173782D01*
X2174138Y-2168042D01*
X2173224Y-2165350D01*
X2172106Y-2162911D01*
X2170734Y-2160574D01*
X2167382Y-2156460D01*
X2165350Y-2154682D01*
X2163064Y-2153107D01*
X2160524Y-2151735D01*
X2157730Y-2150618D01*
X2154834Y-2149754D01*
X2151684Y-2149094D01*
G37*
G36*
X2228596Y-2148586D02*
G01*
X2222855Y-2148890D01*
X2217928Y-2149856D01*
X2213406Y-2151583D01*
X2209546Y-2153666D01*
X2206244Y-2155952D01*
X2200910Y-2161540D01*
X2198878Y-2164334D01*
X2207768Y-2171192D01*
X2209393Y-2168499D01*
X2211273Y-2166112D01*
X2213356Y-2163978D01*
X2215642Y-2162048D01*
X2218232Y-2160625D01*
X2221230Y-2159558D01*
X2224582Y-2158949D01*
X2228342Y-2158746D01*
X2232101Y-2159000D01*
X2235504Y-2159711D01*
X2238603Y-2160879D01*
X2241296Y-2162556D01*
X2243429Y-2164842D01*
X2244902Y-2167585D01*
X2245817Y-2170785D01*
X2246122Y-2175256D01*
X2245817Y-2178761D01*
X2244852Y-2181910D01*
X2243277Y-2184755D01*
X2241042Y-2187194D01*
X2238197Y-2189073D01*
X2234692Y-2190445D01*
X2230577Y-2191258D01*
X2225802Y-2191512D01*
X2215134Y-2191512D01*
X2215134Y-2201672D01*
X2226564Y-2201672D01*
X2231694Y-2201976D01*
X2236063Y-2202891D01*
X2239822Y-2204364D01*
X2242820Y-2206498D01*
X2245156Y-2209139D01*
X2246833Y-2212289D01*
X2247798Y-2215896D01*
X2248154Y-2220976D01*
X2247798Y-2225141D01*
X2246731Y-2228850D01*
X2245004Y-2231999D01*
X2242566Y-2234692D01*
X2239568Y-2236673D01*
X2235962Y-2238095D01*
X2231694Y-2238959D01*
X2226818Y-2239264D01*
X2222500Y-2239060D01*
X2218690Y-2238502D01*
X2215337Y-2237282D01*
X2212340Y-2235708D01*
X2209850Y-2233828D01*
X2207514Y-2231644D01*
X2203450Y-2226310D01*
X2194814Y-2232914D01*
X2197100Y-2236063D01*
X2202942Y-2241854D01*
X2206498Y-2244344D01*
X2210612Y-2246579D01*
X2215388Y-2248154D01*
X2220671Y-2249322D01*
X2226818Y-2249678D01*
X2230526Y-2249525D01*
X2234031Y-2249119D01*
X2237384Y-2248408D01*
X2243582Y-2246274D01*
X2246376Y-2244902D01*
X2248916Y-2243328D01*
X2253234Y-2239670D01*
X2255062Y-2237536D01*
X2256688Y-2235200D01*
X2258060Y-2232660D01*
X2259177Y-2230018D01*
X2259990Y-2227275D01*
X2260447Y-2224328D01*
X2260498Y-2218537D01*
X2259584Y-2213559D01*
X2258822Y-2211324D01*
X2256739Y-2207514D01*
X2253996Y-2204212D01*
X2250948Y-2201418D01*
X2247392Y-2199132D01*
X2243531Y-2197608D01*
X2239518Y-2196592D01*
X2239518Y-2196084D01*
X2243277Y-2194814D01*
X2246884Y-2193036D01*
X2250186Y-2190800D01*
X2252980Y-2188210D01*
X2255266Y-2185162D01*
X2257044Y-2181606D01*
X2258161Y-2177592D01*
X2258568Y-2173224D01*
X2258415Y-2170379D01*
X2258009Y-2167636D01*
X2257298Y-2165045D01*
X2256282Y-2162556D01*
X2253538Y-2158339D01*
X2251862Y-2156561D01*
X2247798Y-2153412D01*
X2245512Y-2152091D01*
X2242972Y-2150973D01*
X2237536Y-2149449D01*
X2231694Y-2148687D01*
G37*
G36*
X705866Y-2150110D02*
G01*
X705764Y-2170836D01*
X705154Y-2173376D01*
X704596Y-2174240D01*
X703681Y-2174900D01*
X701040Y-2175662D01*
X681482Y-2175764D01*
X681482Y-2185162D01*
X705612Y-2185162D01*
X705612Y-2231390D01*
X705866Y-2234895D01*
X706577Y-2238044D01*
X707745Y-2240889D01*
X709422Y-2243328D01*
X711606Y-2245309D01*
X714400Y-2246731D01*
X717702Y-2247595D01*
X721614Y-2247900D01*
X749554Y-2247900D01*
X749554Y-2238502D01*
X716788Y-2238502D01*
X716788Y-2185162D01*
X749554Y-2185162D01*
X749554Y-2175764D01*
X716788Y-2175764D01*
X716788Y-2150110D01*
G37*
G36*
X2053336Y-2150110D02*
G01*
X2027428Y-2174494D01*
X2034286Y-2181860D01*
X2058924Y-2158746D01*
X2059939Y-2158746D01*
X2059939Y-2237740D01*
X2032000Y-2237740D01*
X2032000Y-2247900D01*
X2097532Y-2247900D01*
X2097532Y-2237740D01*
X2071624Y-2237740D01*
X2071624Y-2150110D01*
G37*
G36*
X2319020Y-2150110D02*
G01*
X2276856Y-2218436D01*
X2276856Y-2218944D01*
X2287270Y-2218944D01*
X2324354Y-2159254D01*
X2324862Y-2159254D01*
X2324862Y-2218944D01*
X2276856Y-2218944D01*
X2276856Y-2228596D01*
X2324862Y-2228596D01*
X2324862Y-2247900D01*
X2336038Y-2247900D01*
X2336038Y-2228596D01*
X2350770Y-2228596D01*
X2350770Y-2218944D01*
X2336038Y-2218944D01*
X2336038Y-2150110D01*
G37*
G36*
X572516Y-2165858D02*
G01*
X570280Y-2166010D01*
X568452Y-2166569D01*
X566978Y-2167432D01*
X565912Y-2168652D01*
X564997Y-2170125D01*
X563981Y-2173681D01*
X563880Y-2177034D01*
X560679Y-2175713D01*
X557276Y-2174748D01*
X553618Y-2174189D01*
X549656Y-2173986D01*
X546557Y-2174087D01*
X540867Y-2175002D01*
X535686Y-2176729D01*
X533349Y-2177897D01*
X531215Y-2179269D01*
X527558Y-2182571D01*
X525983Y-2184450D01*
X524611Y-2186533D01*
X523493Y-2188718D01*
X522579Y-2191156D01*
X521614Y-2196236D01*
X521462Y-2198878D01*
X521601Y-2200910D01*
X533400Y-2200910D01*
X533400Y-2196846D01*
X533654Y-2193696D01*
X534365Y-2190953D01*
X535533Y-2188514D01*
X537210Y-2186432D01*
X539496Y-2184755D01*
X542340Y-2183587D01*
X545744Y-2182876D01*
X549656Y-2182622D01*
X553567Y-2182876D01*
X556869Y-2183587D01*
X559663Y-2184755D01*
X561848Y-2186432D01*
X563626Y-2188514D01*
X564896Y-2190953D01*
X565658Y-2193696D01*
X565912Y-2196846D01*
X565912Y-2200910D01*
X565658Y-2203958D01*
X564896Y-2206701D01*
X563626Y-2209139D01*
X561848Y-2211324D01*
X559663Y-2213000D01*
X556920Y-2214168D01*
X553567Y-2214880D01*
X549656Y-2215134D01*
X545744Y-2214880D01*
X542340Y-2214168D01*
X539496Y-2213000D01*
X537210Y-2211324D01*
X535533Y-2209139D01*
X534365Y-2206701D01*
X533654Y-2203958D01*
X533400Y-2200910D01*
X521601Y-2200910D01*
X521716Y-2202586D01*
X522427Y-2206040D01*
X523595Y-2209292D01*
X525272Y-2212340D01*
X527354Y-2215083D01*
X529793Y-2217420D01*
X532536Y-2219401D01*
X535686Y-2220976D01*
X535686Y-2221484D01*
X530555Y-2223312D01*
X526288Y-2225802D01*
X524713Y-2227376D01*
X523595Y-2229307D01*
X522935Y-2231542D01*
X522732Y-2234184D01*
X523087Y-2237486D01*
X524256Y-2240280D01*
X526338Y-2242362D01*
X529082Y-2244090D01*
X529082Y-2245868D01*
X524103Y-2247747D01*
X522122Y-2249017D01*
X520446Y-2250440D01*
X519125Y-2252268D01*
X518159Y-2254402D01*
X517586Y-2257044D01*
X528066Y-2257044D01*
X528523Y-2253843D01*
X529844Y-2251151D01*
X532079Y-2248916D01*
X535178Y-2247138D01*
X560324Y-2247138D01*
X564337Y-2247290D01*
X567690Y-2247747D01*
X570433Y-2248560D01*
X572516Y-2249678D01*
X574090Y-2251151D01*
X575157Y-2252827D01*
X575868Y-2254707D01*
X576072Y-2256790D01*
X575716Y-2259533D01*
X574700Y-2261920D01*
X572922Y-2264003D01*
X570484Y-2265680D01*
X567537Y-2267000D01*
X563981Y-2267966D01*
X559917Y-2268524D01*
X555244Y-2268728D01*
X544322Y-2268728D01*
X540308Y-2268524D01*
X536905Y-2267813D01*
X534060Y-2266746D01*
X531876Y-2265172D01*
X530199Y-2263444D01*
X529031Y-2261514D01*
X528320Y-2259380D01*
X528066Y-2257044D01*
X517586Y-2257044D01*
X517398Y-2259584D01*
X517855Y-2263648D01*
X519277Y-2267254D01*
X521665Y-2270404D01*
X525018Y-2273046D01*
X535127Y-2276449D01*
X550164Y-2277618D01*
X566115Y-2276297D01*
X577342Y-2272284D01*
X581355Y-2269388D01*
X584200Y-2265730D01*
X585927Y-2261362D01*
X586486Y-2256282D01*
X586079Y-2252065D01*
X584911Y-2248255D01*
X582930Y-2244953D01*
X580136Y-2242058D01*
X576580Y-2239721D01*
X572008Y-2238044D01*
X566420Y-2237079D01*
X559816Y-2236724D01*
X541528Y-2236673D01*
X537362Y-2236165D01*
X535686Y-2235708D01*
X534263Y-2235047D01*
X533196Y-2234184D01*
X532587Y-2233015D01*
X532434Y-2230678D01*
X532942Y-2229002D01*
X533958Y-2227630D01*
X535228Y-2226360D01*
X536702Y-2225344D01*
X540156Y-2223922D01*
X541934Y-2223414D01*
X543560Y-2223363D01*
X545236Y-2223668D01*
X552754Y-2223668D01*
X558444Y-2222754D01*
X563626Y-2221026D01*
X568096Y-2218486D01*
X571754Y-2215184D01*
X573278Y-2213305D01*
X574548Y-2211222D01*
X576478Y-2206701D01*
X577088Y-2204212D01*
X577596Y-2198878D01*
X577088Y-2193340D01*
X576478Y-2190851D01*
X575564Y-2188464D01*
X574446Y-2186279D01*
X573074Y-2184196D01*
X569722Y-2180590D01*
X569722Y-2175764D01*
X585724Y-2175764D01*
X585724Y-2165858D01*
G37*
G36*
X1140460Y-2173986D02*
G01*
X1136650Y-2174138D01*
X1133094Y-2174646D01*
X1129792Y-2175408D01*
X1126744Y-2176526D01*
X1123797Y-2178050D01*
X1121105Y-2179828D01*
X1118616Y-2181860D01*
X1116330Y-2184146D01*
X1114399Y-2186787D01*
X1112723Y-2189734D01*
X1111250Y-2192883D01*
X1109980Y-2196338D01*
X1108964Y-2199894D01*
X1108252Y-2203653D01*
X1107846Y-2207615D01*
X1107694Y-2211832D01*
X1107846Y-2215946D01*
X1108252Y-2219909D01*
X1108964Y-2223668D01*
X1111148Y-2230729D01*
X1112570Y-2233879D01*
X1114298Y-2236724D01*
X1118463Y-2241550D01*
X1120902Y-2243582D01*
X1123543Y-2245360D01*
X1126490Y-2246884D01*
X1129639Y-2248103D01*
X1133043Y-2248966D01*
X1136650Y-2249525D01*
X1140460Y-2249678D01*
X1145641Y-2249373D01*
X1150366Y-2248458D01*
X1154582Y-2246985D01*
X1158240Y-2244852D01*
X1161440Y-2242261D01*
X1164132Y-2239365D01*
X1166368Y-2236165D01*
X1168146Y-2232660D01*
X1160272Y-2227326D01*
X1158748Y-2230069D01*
X1156970Y-2232507D01*
X1154938Y-2234641D01*
X1152652Y-2236470D01*
X1150112Y-2238044D01*
X1147267Y-2239111D01*
X1144117Y-2239822D01*
X1140714Y-2240026D01*
X1138275Y-2239924D01*
X1133805Y-2239010D01*
X1129893Y-2237384D01*
X1128115Y-2236368D01*
X1125220Y-2233676D01*
X1122781Y-2230577D01*
X1121156Y-2226818D01*
X1120190Y-2222550D01*
X1119886Y-2217928D01*
X1119987Y-2203348D01*
X1120597Y-2198928D01*
X1121867Y-2194864D01*
X1123899Y-2191308D01*
X1126591Y-2188413D01*
X1129741Y-2186127D01*
X1131570Y-2185162D01*
X1135684Y-2184044D01*
X1140460Y-2183638D01*
X1143609Y-2183841D01*
X1146556Y-2184400D01*
X1149197Y-2185365D01*
X1151636Y-2186686D01*
X1153769Y-2188362D01*
X1155547Y-2190394D01*
X1157071Y-2192680D01*
X1158240Y-2195322D01*
X1167130Y-2190750D01*
X1165402Y-2187143D01*
X1163218Y-2183892D01*
X1160576Y-2181047D01*
X1157478Y-2178558D01*
X1153922Y-2176576D01*
X1149908Y-2175154D01*
X1145438Y-2174290D01*
G37*
G36*
X1221994Y-2173986D02*
G01*
X1218285Y-2174138D01*
X1214780Y-2174646D01*
X1211427Y-2175408D01*
X1208278Y-2176526D01*
X1205331Y-2178050D01*
X1202639Y-2179828D01*
X1200150Y-2181860D01*
X1197864Y-2184146D01*
X1195933Y-2186787D01*
X1194257Y-2189734D01*
X1192784Y-2192883D01*
X1191514Y-2196338D01*
X1190498Y-2199894D01*
X1189786Y-2203653D01*
X1189380Y-2207615D01*
X1189228Y-2211832D01*
X1189468Y-2216912D01*
X1201166Y-2216912D01*
X1201166Y-2206498D01*
X1201521Y-2201011D01*
X1202588Y-2196338D01*
X1204315Y-2192426D01*
X1206754Y-2189226D01*
X1209903Y-2186787D01*
X1213510Y-2185060D01*
X1217523Y-2183993D01*
X1221994Y-2183638D01*
X1226464Y-2183993D01*
X1230528Y-2185009D01*
X1234084Y-2186787D01*
X1237234Y-2189226D01*
X1239672Y-2192375D01*
X1241450Y-2196338D01*
X1242466Y-2201011D01*
X1242822Y-2206498D01*
X1242822Y-2216912D01*
X1242466Y-2222398D01*
X1241450Y-2227122D01*
X1239672Y-2231136D01*
X1237234Y-2234438D01*
X1234084Y-2236876D01*
X1230477Y-2238603D01*
X1226464Y-2239670D01*
X1221994Y-2240026D01*
X1217523Y-2239670D01*
X1213510Y-2238654D01*
X1209903Y-2236876D01*
X1206754Y-2234438D01*
X1204315Y-2231136D01*
X1202537Y-2227122D01*
X1201521Y-2222398D01*
X1201166Y-2216912D01*
X1189468Y-2216912D01*
X1189786Y-2220010D01*
X1190498Y-2223770D01*
X1191514Y-2227326D01*
X1192784Y-2230729D01*
X1194257Y-2233879D01*
X1195933Y-2236724D01*
X1197864Y-2239264D01*
X1200150Y-2241651D01*
X1202639Y-2243734D01*
X1205331Y-2245461D01*
X1208278Y-2246884D01*
X1211427Y-2248103D01*
X1214729Y-2248966D01*
X1218285Y-2249525D01*
X1221994Y-2249678D01*
X1225702Y-2249525D01*
X1229207Y-2248966D01*
X1232560Y-2248103D01*
X1235710Y-2246884D01*
X1238656Y-2245461D01*
X1241348Y-2243734D01*
X1243838Y-2241651D01*
X1246124Y-2239264D01*
X1248054Y-2236724D01*
X1249730Y-2233879D01*
X1251204Y-2230729D01*
X1252474Y-2227326D01*
X1253490Y-2223770D01*
X1254201Y-2220010D01*
X1254607Y-2216048D01*
X1254760Y-2211832D01*
X1254607Y-2207615D01*
X1254201Y-2203653D01*
X1253490Y-2199894D01*
X1252474Y-2196338D01*
X1251204Y-2192934D01*
X1249730Y-2189734D01*
X1248054Y-2186787D01*
X1246124Y-2184146D01*
X1243838Y-2181860D01*
X1241348Y-2179828D01*
X1238656Y-2178050D01*
X1235710Y-2176526D01*
X1232560Y-2175408D01*
X1229207Y-2174646D01*
X1225702Y-2174138D01*
G37*
G36*
X1296416Y-2173986D02*
G01*
X1293571Y-2174189D01*
X1291082Y-2174748D01*
X1288999Y-2175713D01*
X1287272Y-2177034D01*
X1284528Y-2180234D01*
X1282446Y-2184146D01*
X1281938Y-2184146D01*
X1281938Y-2175764D01*
X1271524Y-2175764D01*
X1271524Y-2247900D01*
X1281938Y-2247900D01*
X1281938Y-2194814D01*
X1282090Y-2192070D01*
X1282649Y-2189734D01*
X1283512Y-2187752D01*
X1284732Y-2186178D01*
X1286357Y-2184857D01*
X1288084Y-2183892D01*
X1290015Y-2183333D01*
X1292098Y-2183130D01*
X1294333Y-2183333D01*
X1296212Y-2183993D01*
X1297787Y-2185111D01*
X1298956Y-2186686D01*
X1299718Y-2188819D01*
X1300276Y-2191715D01*
X1300632Y-2195322D01*
X1300734Y-2247900D01*
X1311148Y-2247900D01*
X1311148Y-2194814D01*
X1311300Y-2192070D01*
X1311859Y-2189734D01*
X1312722Y-2187752D01*
X1313942Y-2186178D01*
X1315466Y-2184857D01*
X1317193Y-2183892D01*
X1319123Y-2183333D01*
X1321308Y-2183130D01*
X1323644Y-2183333D01*
X1325575Y-2183993D01*
X1327048Y-2185111D01*
X1328166Y-2186686D01*
X1329029Y-2188819D01*
X1329690Y-2191715D01*
X1330096Y-2195322D01*
X1330198Y-2247900D01*
X1340358Y-2247900D01*
X1340358Y-2197862D01*
X1340154Y-2192375D01*
X1339596Y-2187600D01*
X1338630Y-2183485D01*
X1337310Y-2180082D01*
X1335532Y-2177440D01*
X1332992Y-2175510D01*
X1329690Y-2174392D01*
X1325626Y-2173986D01*
X1322628Y-2174189D01*
X1319936Y-2174798D01*
X1317548Y-2175865D01*
X1315466Y-2177288D01*
X1313789Y-2178913D01*
X1312265Y-2180844D01*
X1309878Y-2185416D01*
X1309624Y-2185416D01*
X1309116Y-2182977D01*
X1308303Y-2180793D01*
X1307185Y-2178812D01*
X1305814Y-2177034D01*
X1303985Y-2175713D01*
X1301800Y-2174748D01*
X1299311Y-2174189D01*
G37*
G36*
X1479296Y-2173986D02*
G01*
X1466088Y-2177338D01*
X1456944Y-2187448D01*
X1456436Y-2187448D01*
X1456436Y-2175764D01*
X1445260Y-2175764D01*
X1445260Y-2224786D01*
X1456436Y-2224786D01*
X1456537Y-2197049D01*
X1457299Y-2193747D01*
X1457960Y-2192274D01*
X1459738Y-2189835D01*
X1462024Y-2187702D01*
X1464767Y-2186127D01*
X1467866Y-2184908D01*
X1471320Y-2184146D01*
X1474978Y-2183892D01*
X1479651Y-2184247D01*
X1483715Y-2185416D01*
X1487271Y-2187346D01*
X1490218Y-2189988D01*
X1492554Y-2193137D01*
X1494231Y-2196846D01*
X1495196Y-2201011D01*
X1495552Y-2205736D01*
X1495552Y-2217928D01*
X1495196Y-2222652D01*
X1494231Y-2226818D01*
X1492554Y-2230526D01*
X1490218Y-2233676D01*
X1487271Y-2236216D01*
X1483715Y-2238044D01*
X1479651Y-2239162D01*
X1474978Y-2239518D01*
X1471320Y-2239314D01*
X1467866Y-2238756D01*
X1464767Y-2237486D01*
X1462024Y-2235708D01*
X1459738Y-2233676D01*
X1457960Y-2231136D01*
X1456842Y-2228138D01*
X1456436Y-2224786D01*
X1445260Y-2224786D01*
X1445260Y-2275840D01*
X1456436Y-2275840D01*
X1456436Y-2236216D01*
X1456944Y-2236216D01*
X1466088Y-2246325D01*
X1479296Y-2249678D01*
X1491081Y-2247138D01*
X1500124Y-2239518D01*
X1505661Y-2227630D01*
X1507490Y-2211832D01*
X1505661Y-2195830D01*
X1500124Y-2183892D01*
X1491081Y-2176475D01*
G37*
G36*
X1555242Y-2173986D02*
G01*
X1549958Y-2174290D01*
X1543100Y-2175814D01*
X1539036Y-2177338D01*
X1535531Y-2179370D01*
X1532585Y-2181758D01*
X1530248Y-2184400D01*
X1527556Y-2188464D01*
X1535176Y-2194052D01*
X1536700Y-2191766D01*
X1538427Y-2189734D01*
X1540357Y-2187956D01*
X1542542Y-2186432D01*
X1544980Y-2185111D01*
X1547825Y-2184146D01*
X1550974Y-2183587D01*
X1554480Y-2183384D01*
X1558391Y-2183638D01*
X1561846Y-2184400D01*
X1564741Y-2185670D01*
X1567180Y-2187448D01*
X1569161Y-2189734D01*
X1570634Y-2192477D01*
X1571447Y-2195677D01*
X1571752Y-2199386D01*
X1571752Y-2206498D01*
X1556258Y-2206498D01*
X1542237Y-2207920D01*
X1532636Y-2212086D01*
X1529435Y-2215032D01*
X1527098Y-2218639D01*
X1525727Y-2222804D01*
X1525270Y-2227580D01*
X1525376Y-2228850D01*
X1536954Y-2228850D01*
X1536954Y-2225802D01*
X1537258Y-2223363D01*
X1538122Y-2221230D01*
X1539544Y-2219299D01*
X1541526Y-2217674D01*
X1544269Y-2216454D01*
X1547622Y-2215591D01*
X1551635Y-2215032D01*
X1571752Y-2214880D01*
X1571650Y-2228189D01*
X1570888Y-2230882D01*
X1569415Y-2233371D01*
X1567383Y-2235555D01*
X1564741Y-2237232D01*
X1561541Y-2238603D01*
X1557985Y-2239721D01*
X1554073Y-2240229D01*
X1548688Y-2240076D01*
X1545793Y-2239518D01*
X1543202Y-2238552D01*
X1541018Y-2237232D01*
X1539240Y-2235657D01*
X1537970Y-2233726D01*
X1537208Y-2231491D01*
X1536954Y-2228850D01*
X1525376Y-2228850D01*
X1525676Y-2232406D01*
X1526895Y-2236673D01*
X1528978Y-2240381D01*
X1531874Y-2243582D01*
X1535582Y-2246274D01*
X1539798Y-2248154D01*
X1544574Y-2249322D01*
X1549908Y-2249678D01*
X1554124Y-2249474D01*
X1557934Y-2248763D01*
X1561236Y-2247696D01*
X1564132Y-2246122D01*
X1566519Y-2244191D01*
X1568602Y-2241854D01*
X1570329Y-2239213D01*
X1571752Y-2236216D01*
X1572514Y-2236216D01*
X1572920Y-2238654D01*
X1573580Y-2240838D01*
X1574546Y-2242820D01*
X1575816Y-2244598D01*
X1577441Y-2246020D01*
X1579575Y-2247087D01*
X1582166Y-2247696D01*
X1585214Y-2247900D01*
X1593088Y-2247900D01*
X1593088Y-2237994D01*
X1582928Y-2237994D01*
X1582928Y-2198370D01*
X1582470Y-2192934D01*
X1580997Y-2188159D01*
X1578660Y-2183942D01*
X1575308Y-2180336D01*
X1571294Y-2177542D01*
X1566621Y-2175560D01*
X1561236Y-2174392D01*
G37*
G36*
X1810512Y-2173986D02*
G01*
X1806905Y-2174138D01*
X1803450Y-2174646D01*
X1800199Y-2175408D01*
X1797050Y-2176526D01*
X1794103Y-2178050D01*
X1791411Y-2179828D01*
X1788922Y-2181860D01*
X1786636Y-2184146D01*
X1784604Y-2186787D01*
X1782775Y-2189734D01*
X1781149Y-2192883D01*
X1779778Y-2196338D01*
X1778762Y-2199894D01*
X1778050Y-2203653D01*
X1777785Y-2206244D01*
X1789175Y-2206244D01*
X1789277Y-2202840D01*
X1790039Y-2198420D01*
X1790700Y-2196338D01*
X1792732Y-2192731D01*
X1795272Y-2189480D01*
X1798370Y-2186940D01*
X1802130Y-2184908D01*
X1806143Y-2183587D01*
X1808276Y-2183231D01*
X1812747Y-2183231D01*
X1816811Y-2183993D01*
X1820468Y-2185517D01*
X1823618Y-2187803D01*
X1826209Y-2190699D01*
X1828241Y-2194153D01*
X1829714Y-2198065D01*
X1830222Y-2200148D01*
X1830578Y-2206244D01*
X1777785Y-2206244D01*
X1777492Y-2211832D01*
X1777644Y-2216048D01*
X1778050Y-2220010D01*
X1778762Y-2223770D01*
X1779778Y-2227326D01*
X1781048Y-2230729D01*
X1782622Y-2233879D01*
X1784502Y-2236724D01*
X1788922Y-2241651D01*
X1791462Y-2243734D01*
X1794256Y-2245461D01*
X1800453Y-2248103D01*
X1803857Y-2248966D01*
X1807464Y-2249525D01*
X1811274Y-2249678D01*
X1816404Y-2249373D01*
X1821180Y-2248458D01*
X1825548Y-2246985D01*
X1829562Y-2244852D01*
X1833016Y-2242413D01*
X1835912Y-2239568D01*
X1838350Y-2236419D01*
X1840230Y-2232914D01*
X1832102Y-2227326D01*
X1830476Y-2230069D01*
X1828546Y-2232507D01*
X1826412Y-2234641D01*
X1823974Y-2236470D01*
X1821180Y-2238044D01*
X1818132Y-2239111D01*
X1814830Y-2239822D01*
X1811274Y-2240026D01*
X1808784Y-2239924D01*
X1804212Y-2239010D01*
X1800148Y-2237384D01*
X1798320Y-2236368D01*
X1795018Y-2233676D01*
X1792528Y-2230577D01*
X1790700Y-2226818D01*
X1789531Y-2222550D01*
X1789175Y-2217928D01*
X1789175Y-2214626D01*
X1842516Y-2214626D01*
X1842363Y-2205532D01*
X1842007Y-2201926D01*
X1840484Y-2195068D01*
X1839214Y-2191969D01*
X1837689Y-2189073D01*
X1835912Y-2186381D01*
X1833880Y-2183892D01*
X1831695Y-2181707D01*
X1829307Y-2179777D01*
X1826615Y-2178050D01*
X1823720Y-2176526D01*
X1820722Y-2175408D01*
X1817522Y-2174646D01*
X1814118Y-2174138D01*
G37*
G36*
X606806Y-2175764D02*
G01*
X606806Y-2185162D01*
X632968Y-2185162D01*
X632968Y-2238502D01*
X606806Y-2238502D01*
X606806Y-2247900D01*
X668528Y-2247900D01*
X668528Y-2238502D01*
X644144Y-2238502D01*
X644144Y-2175764D01*
G37*
G36*
X856996Y-2175764D02*
G01*
X856996Y-2221992D01*
X857402Y-2228189D01*
X858723Y-2233676D01*
X860856Y-2238400D01*
X863853Y-2242312D01*
X867562Y-2245512D01*
X871778Y-2247849D01*
X876553Y-2249220D01*
X881887Y-2249678D01*
X886155Y-2249373D01*
X889762Y-2248408D01*
X892860Y-2247188D01*
X895603Y-2245614D01*
X897890Y-2243531D01*
X899668Y-2241296D01*
X901242Y-2238756D01*
X902462Y-2236216D01*
X902969Y-2236216D01*
X902969Y-2247900D01*
X914400Y-2247900D01*
X914400Y-2175764D01*
X902969Y-2175764D01*
X902868Y-2227529D01*
X902106Y-2230577D01*
X900633Y-2233218D01*
X898601Y-2235352D01*
X896061Y-2237028D01*
X893267Y-2238298D01*
X890168Y-2239111D01*
X886815Y-2239467D01*
X881227Y-2239213D01*
X877824Y-2238298D01*
X874928Y-2236825D01*
X872490Y-2234692D01*
X870610Y-2231948D01*
X869238Y-2228596D01*
X868426Y-2224582D01*
X868171Y-2219960D01*
X868171Y-2175764D01*
G37*
G36*
X1610868Y-2175764D02*
G01*
X1610868Y-2185162D01*
X1631950Y-2185162D01*
X1631950Y-2238502D01*
X1610868Y-2238502D01*
X1610868Y-2247900D01*
X1671066Y-2247900D01*
X1671066Y-2238502D01*
X1643125Y-2238502D01*
X1643125Y-2207260D01*
X1643481Y-2202891D01*
X1644599Y-2198979D01*
X1646428Y-2195525D01*
X1648968Y-2192528D01*
X1652219Y-2190089D01*
X1655978Y-2188311D01*
X1660093Y-2187295D01*
X1664716Y-2186940D01*
X1678178Y-2186940D01*
X1678178Y-2175764D01*
X1668272Y-2175764D01*
X1663649Y-2176068D01*
X1659432Y-2176983D01*
X1655673Y-2178456D01*
X1652270Y-2180590D01*
X1649475Y-2183231D01*
X1647139Y-2186330D01*
X1645259Y-2189835D01*
X1643888Y-2193798D01*
X1643125Y-2193798D01*
X1643125Y-2175764D01*
G37*
G36*
X1862836Y-2175764D02*
G01*
X1862836Y-2185162D01*
X1883918Y-2185162D01*
X1883918Y-2238502D01*
X1862836Y-2238502D01*
X1862836Y-2247900D01*
X1923034Y-2247900D01*
X1923034Y-2238502D01*
X1895093Y-2238502D01*
X1895093Y-2207260D01*
X1895500Y-2202891D01*
X1896618Y-2198979D01*
X1898497Y-2195525D01*
X1901189Y-2192528D01*
X1904339Y-2190089D01*
X1907997Y-2188311D01*
X1912112Y-2187295D01*
X1916684Y-2186940D01*
X1930146Y-2186940D01*
X1930146Y-2175764D01*
X1920239Y-2175764D01*
X1915617Y-2176068D01*
X1911400Y-2176983D01*
X1907641Y-2178456D01*
X1904238Y-2180590D01*
X1901443Y-2183231D01*
X1899107Y-2186330D01*
X1897227Y-2189835D01*
X1895856Y-2193798D01*
X1895093Y-2193798D01*
X1895093Y-2175764D01*
G37*
G36*
X1940306Y-2175764D02*
G01*
X1951228Y-2247900D01*
X1965706Y-2247900D01*
X1977643Y-2187448D01*
X1978660Y-2187448D01*
X1990089Y-2247900D01*
X2004822Y-2247900D01*
X2015743Y-2175764D01*
X2006092Y-2175764D01*
X1997964Y-2237994D01*
X1996693Y-2237994D01*
X1984248Y-2175764D01*
X1972056Y-2175764D01*
X1959610Y-2237994D01*
X1958339Y-2237994D01*
X1950212Y-2175764D01*
G37*
G36*
X1054100Y-2229866D02*
G01*
X1051407Y-2230018D01*
X1049121Y-2230424D01*
X1047343Y-2231136D01*
X1045971Y-2232152D01*
X1044956Y-2233472D01*
X1044244Y-2234946D01*
X1043838Y-2236520D01*
X1043686Y-2240788D01*
X1043838Y-2242515D01*
X1044244Y-2244090D01*
X1044956Y-2245563D01*
X1045971Y-2246884D01*
X1047343Y-2247900D01*
X1049172Y-2248611D01*
X1051407Y-2249017D01*
X1054100Y-2249170D01*
X1056690Y-2249017D01*
X1058875Y-2248611D01*
X1060602Y-2247900D01*
X1061974Y-2246884D01*
X1062990Y-2245563D01*
X1063701Y-2244090D01*
X1064107Y-2242515D01*
X1064260Y-2238248D01*
X1064107Y-2236520D01*
X1063701Y-2234946D01*
X1062990Y-2233472D01*
X1061974Y-2232152D01*
X1060602Y-2231136D01*
X1058875Y-2230424D01*
X1056690Y-2230018D01*
G37*
G36*
X1407160Y-1432052D02*
G01*
X1403045Y-1432560D01*
X1401470Y-1433169D01*
X1400302Y-1434084D01*
X1398778Y-1436370D01*
X1398270Y-1439164D01*
X1398422Y-1442923D01*
X1398778Y-1444244D01*
X1400302Y-1446530D01*
X1401470Y-1447393D01*
X1403045Y-1448054D01*
X1407160Y-1448562D01*
X1409395Y-1448460D01*
X1411274Y-1448054D01*
X1412849Y-1447393D01*
X1414018Y-1446530D01*
X1415542Y-1444244D01*
X1416050Y-1441450D01*
X1415897Y-1437690D01*
X1415542Y-1436370D01*
X1414018Y-1434084D01*
X1412849Y-1433220D01*
X1411274Y-1432560D01*
X1409395Y-1432153D01*
G37*
G36*
X1827275Y-1432052D02*
G01*
X1823008Y-1432560D01*
X1821535Y-1433169D01*
X1820418Y-1434084D01*
X1818893Y-1436370D01*
X1818487Y-1437690D01*
X1818487Y-1442923D01*
X1818893Y-1444244D01*
X1820418Y-1446530D01*
X1821535Y-1447393D01*
X1823008Y-1448054D01*
X1827275Y-1448562D01*
X1829511Y-1448460D01*
X1831390Y-1448054D01*
X1832965Y-1447393D01*
X1834134Y-1446530D01*
X1835454Y-1444244D01*
X1835810Y-1442923D01*
X1835810Y-1437690D01*
X1834896Y-1435150D01*
X1834134Y-1434084D01*
X1832965Y-1433220D01*
X1831390Y-1432560D01*
X1829511Y-1432153D01*
G37*
G36*
X787400Y-1433068D02*
G01*
X787400Y-1536700D01*
X798576Y-1536700D01*
X798576Y-1510538D01*
X811022Y-1499108D01*
X839216Y-1536700D01*
X853186Y-1536700D01*
X819658Y-1492758D01*
X849630Y-1464564D01*
X835914Y-1464564D01*
X811784Y-1486662D01*
X799084Y-1498600D01*
X798576Y-1498600D01*
X798576Y-1433068D01*
G37*
G36*
X1455928Y-1433068D02*
G01*
X1455928Y-1442720D01*
X1481074Y-1442720D01*
X1481074Y-1527302D01*
X1455928Y-1527302D01*
X1455928Y-1536700D01*
X1517396Y-1536700D01*
X1517396Y-1527302D01*
X1492250Y-1527302D01*
X1492250Y-1433068D01*
G37*
G36*
X1711452Y-1433068D02*
G01*
X1711452Y-1536700D01*
X1722628Y-1536700D01*
X1722628Y-1510538D01*
X1735074Y-1499108D01*
X1763268Y-1536700D01*
X1776984Y-1536700D01*
X1743710Y-1492758D01*
X1773682Y-1464564D01*
X1759712Y-1464564D01*
X1723136Y-1498600D01*
X1722628Y-1498600D01*
X1722628Y-1433068D01*
G37*
G36*
X533400Y-1438910D02*
G01*
X533400Y-1449324D01*
X568706Y-1449324D01*
X572160Y-1449527D01*
X575259Y-1450187D01*
X577900Y-1451305D01*
X580136Y-1452880D01*
X581914Y-1454962D01*
X583184Y-1457452D01*
X583946Y-1460296D01*
X584200Y-1463548D01*
X584200Y-1470660D01*
X583946Y-1473911D01*
X583184Y-1476756D01*
X581914Y-1479245D01*
X580136Y-1481328D01*
X577900Y-1483004D01*
X575259Y-1484172D01*
X572160Y-1484884D01*
X568706Y-1485138D01*
X545084Y-1485138D01*
X545084Y-1449324D01*
X533400Y-1449324D01*
X533400Y-1536700D01*
X545084Y-1536700D01*
X545084Y-1495298D01*
X568960Y-1495298D01*
X575310Y-1494840D01*
X580847Y-1493469D01*
X585571Y-1491132D01*
X589534Y-1487932D01*
X592632Y-1483766D01*
X594868Y-1478889D01*
X596188Y-1473352D01*
X596646Y-1467104D01*
X596188Y-1460855D01*
X594868Y-1455318D01*
X592632Y-1450441D01*
X589534Y-1446276D01*
X585571Y-1443075D01*
X580847Y-1440738D01*
X575310Y-1439367D01*
X568960Y-1438910D01*
G37*
G36*
X1113536Y-1438910D02*
G01*
X1121410Y-1536700D01*
X1138174Y-1536700D01*
X1150112Y-1478280D01*
X1151382Y-1478280D01*
X1163066Y-1536700D01*
X1180084Y-1536700D01*
X1187704Y-1438910D01*
X1177544Y-1438910D01*
X1171448Y-1524508D01*
X1170178Y-1524508D01*
X1157478Y-1464564D01*
X1144270Y-1464564D01*
X1131316Y-1524508D01*
X1130300Y-1524508D01*
X1124204Y-1438910D01*
G37*
G36*
X643890Y-1462786D02*
G01*
X638759Y-1463090D01*
X633984Y-1464056D01*
X629666Y-1465326D01*
X625856Y-1467104D01*
X622757Y-1469339D01*
X620014Y-1471930D01*
X617931Y-1474520D01*
X616204Y-1477264D01*
X623824Y-1482852D01*
X625348Y-1480566D01*
X627075Y-1478534D01*
X629005Y-1476756D01*
X631190Y-1475232D01*
X633730Y-1473911D01*
X636574Y-1472946D01*
X639724Y-1472387D01*
X643128Y-1472184D01*
X647090Y-1472438D01*
X650494Y-1473200D01*
X653440Y-1474470D01*
X655828Y-1476248D01*
X657809Y-1478534D01*
X659231Y-1481277D01*
X660095Y-1484477D01*
X660400Y-1488186D01*
X660400Y-1495298D01*
X644906Y-1495298D01*
X630885Y-1496720D01*
X621284Y-1500886D01*
X618083Y-1503832D01*
X615746Y-1507439D01*
X614375Y-1511604D01*
X613918Y-1516380D01*
X614024Y-1517650D01*
X625602Y-1517650D01*
X625602Y-1514602D01*
X625906Y-1512163D01*
X626821Y-1510030D01*
X628294Y-1508099D01*
X630428Y-1506474D01*
X633069Y-1505254D01*
X636320Y-1504391D01*
X640283Y-1503832D01*
X660400Y-1503680D01*
X660298Y-1516989D01*
X660044Y-1518361D01*
X658876Y-1520952D01*
X657250Y-1523288D01*
X654812Y-1525270D01*
X652018Y-1526743D01*
X648716Y-1528064D01*
X644804Y-1528826D01*
X640588Y-1529080D01*
X637336Y-1528876D01*
X634441Y-1528318D01*
X631850Y-1527352D01*
X629666Y-1526032D01*
X627888Y-1524457D01*
X626618Y-1522526D01*
X625856Y-1520291D01*
X625602Y-1517650D01*
X614024Y-1517650D01*
X614324Y-1521206D01*
X615645Y-1525473D01*
X617778Y-1529181D01*
X620776Y-1532382D01*
X624382Y-1535074D01*
X628599Y-1536954D01*
X633374Y-1538122D01*
X638810Y-1538478D01*
X642924Y-1538274D01*
X646633Y-1537563D01*
X649884Y-1536496D01*
X652780Y-1534922D01*
X655269Y-1532991D01*
X657352Y-1530654D01*
X659079Y-1528013D01*
X660400Y-1525016D01*
X661162Y-1525016D01*
X661670Y-1527454D01*
X662432Y-1529638D01*
X663448Y-1531620D01*
X664718Y-1533398D01*
X666343Y-1534820D01*
X668477Y-1535887D01*
X671068Y-1536496D01*
X674116Y-1536700D01*
X681736Y-1536700D01*
X681736Y-1526794D01*
X671576Y-1526794D01*
X671576Y-1487170D01*
X671118Y-1481734D01*
X669747Y-1476959D01*
X667410Y-1472742D01*
X664210Y-1469136D01*
X660095Y-1466342D01*
X655320Y-1464360D01*
X649935Y-1463192D01*
G37*
G36*
X899160Y-1462786D02*
G01*
X895553Y-1462938D01*
X892098Y-1463446D01*
X888847Y-1464208D01*
X885698Y-1465326D01*
X882751Y-1466850D01*
X880059Y-1468628D01*
X877569Y-1470660D01*
X875284Y-1472946D01*
X873252Y-1475587D01*
X871423Y-1478534D01*
X869797Y-1481683D01*
X868426Y-1485138D01*
X867410Y-1488694D01*
X866698Y-1492453D01*
X866433Y-1495044D01*
X877824Y-1495044D01*
X878179Y-1489405D01*
X879348Y-1485138D01*
X881380Y-1481531D01*
X883919Y-1478280D01*
X887018Y-1475740D01*
X890778Y-1473708D01*
X894791Y-1472387D01*
X896924Y-1472031D01*
X901395Y-1472031D01*
X905611Y-1472793D01*
X907542Y-1473454D01*
X910844Y-1475384D01*
X913637Y-1478026D01*
X916076Y-1481124D01*
X917702Y-1484884D01*
X918870Y-1488948D01*
X919226Y-1495044D01*
X866433Y-1495044D01*
X866140Y-1500632D01*
X866292Y-1504848D01*
X866698Y-1508810D01*
X867410Y-1512570D01*
X868426Y-1516126D01*
X869797Y-1519529D01*
X871423Y-1522679D01*
X873252Y-1525524D01*
X875284Y-1528064D01*
X877569Y-1530451D01*
X880110Y-1532534D01*
X882903Y-1534261D01*
X889101Y-1536903D01*
X892505Y-1537766D01*
X896112Y-1538325D01*
X899921Y-1538478D01*
X905154Y-1538173D01*
X909980Y-1537258D01*
X914298Y-1535785D01*
X918210Y-1533652D01*
X921715Y-1531213D01*
X924661Y-1528368D01*
X927049Y-1525219D01*
X928878Y-1521714D01*
X920750Y-1516126D01*
X919175Y-1518869D01*
X917295Y-1521307D01*
X915111Y-1523441D01*
X912621Y-1525270D01*
X909828Y-1526844D01*
X906780Y-1527911D01*
X903478Y-1528622D01*
X899921Y-1528826D01*
X897432Y-1528724D01*
X892860Y-1527810D01*
X888796Y-1526184D01*
X886968Y-1525168D01*
X883666Y-1522476D01*
X881176Y-1519377D01*
X879348Y-1515618D01*
X878179Y-1511350D01*
X877824Y-1506728D01*
X877824Y-1503426D01*
X931418Y-1503426D01*
X931265Y-1494332D01*
X930859Y-1490726D01*
X930148Y-1487220D01*
X929132Y-1483868D01*
X927862Y-1480769D01*
X926337Y-1477873D01*
X924560Y-1475181D01*
X922528Y-1472692D01*
X920394Y-1470507D01*
X917956Y-1468577D01*
X915263Y-1466850D01*
X912368Y-1465326D01*
X909370Y-1464208D01*
X906170Y-1463446D01*
X902766Y-1462938D01*
G37*
G36*
X1231900Y-1462786D02*
G01*
X1226616Y-1463090D01*
X1219758Y-1464614D01*
X1215694Y-1466138D01*
X1212240Y-1468170D01*
X1209344Y-1470558D01*
X1206906Y-1473200D01*
X1204214Y-1477264D01*
X1211834Y-1482852D01*
X1213358Y-1480566D01*
X1215085Y-1478534D01*
X1217015Y-1476756D01*
X1219200Y-1475232D01*
X1221740Y-1473911D01*
X1224584Y-1472946D01*
X1227734Y-1472387D01*
X1231138Y-1472184D01*
X1235100Y-1472438D01*
X1238504Y-1473200D01*
X1241450Y-1474470D01*
X1243838Y-1476248D01*
X1245819Y-1478534D01*
X1247292Y-1481277D01*
X1248105Y-1484477D01*
X1248410Y-1488186D01*
X1248410Y-1495298D01*
X1232916Y-1495298D01*
X1218895Y-1496720D01*
X1209294Y-1500886D01*
X1206093Y-1503832D01*
X1203756Y-1507439D01*
X1202385Y-1511604D01*
X1201928Y-1516380D01*
X1202034Y-1517650D01*
X1213612Y-1517650D01*
X1213612Y-1514602D01*
X1213916Y-1512163D01*
X1214831Y-1510030D01*
X1216304Y-1508099D01*
X1218438Y-1506474D01*
X1221079Y-1505254D01*
X1224330Y-1504391D01*
X1228293Y-1503832D01*
X1248410Y-1503680D01*
X1248308Y-1516989D01*
X1247546Y-1519682D01*
X1246073Y-1522171D01*
X1244041Y-1524355D01*
X1241450Y-1526032D01*
X1238300Y-1527403D01*
X1234643Y-1528521D01*
X1230731Y-1529029D01*
X1225346Y-1528876D01*
X1222451Y-1528318D01*
X1219860Y-1527352D01*
X1217676Y-1526032D01*
X1215898Y-1524457D01*
X1214628Y-1522526D01*
X1213866Y-1520291D01*
X1213612Y-1517650D01*
X1202034Y-1517650D01*
X1202334Y-1521206D01*
X1203604Y-1525473D01*
X1205636Y-1529181D01*
X1208532Y-1532382D01*
X1212240Y-1535074D01*
X1216507Y-1536954D01*
X1221384Y-1538122D01*
X1226820Y-1538478D01*
X1230934Y-1538274D01*
X1234643Y-1537563D01*
X1237894Y-1536496D01*
X1240790Y-1534922D01*
X1243279Y-1532991D01*
X1245362Y-1530654D01*
X1247089Y-1528013D01*
X1248410Y-1525016D01*
X1249172Y-1525016D01*
X1249680Y-1527454D01*
X1250442Y-1529638D01*
X1251458Y-1531620D01*
X1252728Y-1533398D01*
X1254353Y-1534820D01*
X1256385Y-1535887D01*
X1258925Y-1536496D01*
X1261872Y-1536700D01*
X1269746Y-1536700D01*
X1269746Y-1526794D01*
X1259586Y-1526794D01*
X1259586Y-1487170D01*
X1259128Y-1481734D01*
X1257757Y-1476959D01*
X1255420Y-1472742D01*
X1252220Y-1469136D01*
X1248105Y-1466342D01*
X1243330Y-1464360D01*
X1237945Y-1463192D01*
G37*
G36*
X1319276Y-1462786D02*
G01*
X1313180Y-1463090D01*
X1307592Y-1464056D01*
X1305001Y-1464767D01*
X1302613Y-1465681D01*
X1300429Y-1466799D01*
X1296568Y-1469593D01*
X1294892Y-1471218D01*
X1292352Y-1474978D01*
X1291336Y-1477010D01*
X1290624Y-1479245D01*
X1290218Y-1481683D01*
X1290066Y-1484376D01*
X1290218Y-1487170D01*
X1290675Y-1489659D01*
X1291488Y-1491843D01*
X1293926Y-1495552D01*
X1296974Y-1498498D01*
X1300530Y-1500682D01*
X1304594Y-1502308D01*
X1313027Y-1504035D01*
X1328623Y-1506474D01*
X1332077Y-1507388D01*
X1334109Y-1508252D01*
X1335887Y-1509420D01*
X1338072Y-1511808D01*
X1338834Y-1514043D01*
X1339088Y-1516634D01*
X1338732Y-1519580D01*
X1337665Y-1522171D01*
X1335938Y-1524304D01*
X1333500Y-1526032D01*
X1330655Y-1527352D01*
X1327404Y-1528318D01*
X1323797Y-1528876D01*
X1319784Y-1529080D01*
X1315618Y-1528876D01*
X1311757Y-1528318D01*
X1308252Y-1527352D01*
X1305052Y-1526032D01*
X1301953Y-1524457D01*
X1299006Y-1522526D01*
X1296263Y-1520291D01*
X1293622Y-1517650D01*
X1286002Y-1524254D01*
X1289050Y-1527251D01*
X1292402Y-1529994D01*
X1296060Y-1532331D01*
X1299972Y-1534414D01*
X1304239Y-1536192D01*
X1308912Y-1537462D01*
X1314043Y-1538224D01*
X1319530Y-1538478D01*
X1326134Y-1538122D01*
X1332026Y-1536954D01*
X1337208Y-1535023D01*
X1341628Y-1532382D01*
X1345285Y-1529181D01*
X1347927Y-1525320D01*
X1349502Y-1520901D01*
X1350010Y-1515872D01*
X1349857Y-1513078D01*
X1349451Y-1510538D01*
X1348740Y-1508252D01*
X1347724Y-1506220D01*
X1344930Y-1503070D01*
X1341628Y-1500632D01*
X1337665Y-1498650D01*
X1333500Y-1497330D01*
X1329334Y-1496415D01*
X1312773Y-1493875D01*
X1307033Y-1492300D01*
X1305052Y-1491234D01*
X1303477Y-1490014D01*
X1302258Y-1488440D01*
X1301496Y-1486204D01*
X1301242Y-1483614D01*
X1301546Y-1480972D01*
X1302359Y-1478686D01*
X1303832Y-1476654D01*
X1305814Y-1474978D01*
X1308354Y-1473758D01*
X1311351Y-1472895D01*
X1314805Y-1472336D01*
X1321104Y-1472234D01*
X1325270Y-1472590D01*
X1328978Y-1473454D01*
X1334871Y-1475892D01*
X1337259Y-1477264D01*
X1339189Y-1478889D01*
X1341374Y-1481328D01*
X1348740Y-1474470D01*
X1345946Y-1471828D01*
X1342948Y-1469491D01*
X1339748Y-1467510D01*
X1336294Y-1465834D01*
X1332585Y-1464513D01*
X1328470Y-1463548D01*
X1324051Y-1462989D01*
G37*
G36*
X1571244Y-1462786D02*
G01*
X1567637Y-1462938D01*
X1564182Y-1463446D01*
X1560931Y-1464208D01*
X1557782Y-1465326D01*
X1554835Y-1466850D01*
X1552143Y-1468628D01*
X1549654Y-1470660D01*
X1547368Y-1472946D01*
X1545336Y-1475587D01*
X1543507Y-1478534D01*
X1541881Y-1481683D01*
X1540510Y-1485138D01*
X1539392Y-1488694D01*
X1538298Y-1495044D01*
X1549908Y-1495044D01*
X1550263Y-1489405D01*
X1551432Y-1485138D01*
X1553362Y-1481531D01*
X1556004Y-1478280D01*
X1559052Y-1475740D01*
X1562608Y-1473708D01*
X1566773Y-1472387D01*
X1571244Y-1471930D01*
X1575562Y-1472336D01*
X1579372Y-1473454D01*
X1582877Y-1475384D01*
X1585722Y-1478026D01*
X1588008Y-1481124D01*
X1589786Y-1484884D01*
X1590954Y-1488948D01*
X1591310Y-1495044D01*
X1538298Y-1495044D01*
X1537970Y-1500632D01*
X1538122Y-1504848D01*
X1538579Y-1508810D01*
X1539392Y-1512570D01*
X1541780Y-1519529D01*
X1543354Y-1522679D01*
X1545234Y-1525524D01*
X1549654Y-1530451D01*
X1552143Y-1532534D01*
X1554835Y-1534261D01*
X1557782Y-1535684D01*
X1561033Y-1536903D01*
X1564487Y-1537766D01*
X1568145Y-1538325D01*
X1572006Y-1538478D01*
X1577136Y-1538173D01*
X1581912Y-1537258D01*
X1586280Y-1535785D01*
X1590294Y-1533652D01*
X1593697Y-1531213D01*
X1596644Y-1528368D01*
X1599082Y-1525219D01*
X1600962Y-1521714D01*
X1592580Y-1516126D01*
X1591005Y-1518869D01*
X1589176Y-1521307D01*
X1586941Y-1523441D01*
X1584452Y-1525270D01*
X1581658Y-1526844D01*
X1578660Y-1527911D01*
X1575460Y-1528622D01*
X1572006Y-1528826D01*
X1569516Y-1528724D01*
X1564944Y-1527810D01*
X1560779Y-1526184D01*
X1558950Y-1525168D01*
X1557223Y-1523898D01*
X1554429Y-1521002D01*
X1553260Y-1519377D01*
X1551432Y-1515618D01*
X1550263Y-1511350D01*
X1549908Y-1506728D01*
X1549908Y-1503426D01*
X1603248Y-1503426D01*
X1603095Y-1494332D01*
X1602689Y-1490726D01*
X1601978Y-1487220D01*
X1599793Y-1480769D01*
X1598371Y-1477873D01*
X1596644Y-1475181D01*
X1594612Y-1472692D01*
X1592478Y-1470507D01*
X1590040Y-1468577D01*
X1587347Y-1466850D01*
X1584452Y-1465326D01*
X1581454Y-1464208D01*
X1578254Y-1463446D01*
X1574850Y-1462938D01*
G37*
G36*
X1655318Y-1462786D02*
G01*
X1649222Y-1463090D01*
X1643634Y-1464056D01*
X1641043Y-1464767D01*
X1636471Y-1466799D01*
X1632610Y-1469593D01*
X1630933Y-1471218D01*
X1629511Y-1473047D01*
X1627378Y-1477010D01*
X1626666Y-1479245D01*
X1626260Y-1481683D01*
X1626107Y-1484376D01*
X1626260Y-1487170D01*
X1626768Y-1489659D01*
X1627530Y-1491843D01*
X1629867Y-1495552D01*
X1632915Y-1498498D01*
X1636572Y-1500682D01*
X1640484Y-1502308D01*
X1642618Y-1502918D01*
X1651000Y-1504442D01*
X1663446Y-1506220D01*
X1667002Y-1506982D01*
X1669186Y-1507794D01*
X1671066Y-1508760D01*
X1672640Y-1510131D01*
X1673860Y-1511808D01*
X1674622Y-1514043D01*
X1674875Y-1516634D01*
X1674520Y-1519580D01*
X1673555Y-1522171D01*
X1671878Y-1524304D01*
X1669542Y-1526032D01*
X1666697Y-1527352D01*
X1663446Y-1528318D01*
X1659839Y-1528876D01*
X1655825Y-1529080D01*
X1651660Y-1528876D01*
X1647850Y-1528318D01*
X1644294Y-1527352D01*
X1641093Y-1526032D01*
X1637995Y-1524457D01*
X1635048Y-1522526D01*
X1632305Y-1520291D01*
X1629664Y-1517650D01*
X1622044Y-1524254D01*
X1625092Y-1527251D01*
X1628444Y-1529994D01*
X1632102Y-1532331D01*
X1636014Y-1534414D01*
X1640281Y-1536192D01*
X1644954Y-1537462D01*
X1650085Y-1538224D01*
X1655572Y-1538478D01*
X1662074Y-1538122D01*
X1667967Y-1536954D01*
X1673148Y-1535023D01*
X1677670Y-1532382D01*
X1681327Y-1529181D01*
X1683969Y-1525320D01*
X1685543Y-1520901D01*
X1686052Y-1515872D01*
X1685899Y-1513078D01*
X1685442Y-1510538D01*
X1684629Y-1508252D01*
X1683512Y-1506220D01*
X1682292Y-1504543D01*
X1679244Y-1501749D01*
X1675587Y-1499565D01*
X1671675Y-1497939D01*
X1665274Y-1496415D01*
X1648714Y-1493875D01*
X1644040Y-1492707D01*
X1642008Y-1491843D01*
X1640230Y-1490675D01*
X1638858Y-1489303D01*
X1637842Y-1487373D01*
X1637334Y-1484985D01*
X1637283Y-1483614D01*
X1637588Y-1480972D01*
X1638452Y-1478686D01*
X1639874Y-1476654D01*
X1641856Y-1474978D01*
X1644294Y-1473758D01*
X1647240Y-1472895D01*
X1650746Y-1472336D01*
X1657146Y-1472234D01*
X1661312Y-1472590D01*
X1665020Y-1473454D01*
X1668170Y-1474622D01*
X1670862Y-1475892D01*
X1673148Y-1477264D01*
X1675079Y-1478889D01*
X1677416Y-1481328D01*
X1684782Y-1474470D01*
X1681988Y-1471828D01*
X1678990Y-1469491D01*
X1675790Y-1467510D01*
X1672336Y-1465834D01*
X1668525Y-1464513D01*
X1664411Y-1463548D01*
X1659991Y-1462989D01*
G37*
G36*
X699516Y-1464564D02*
G01*
X699516Y-1473962D01*
X720598Y-1473962D01*
X720598Y-1527302D01*
X699516Y-1527302D01*
X699516Y-1536700D01*
X759714Y-1536700D01*
X759714Y-1527302D01*
X731774Y-1527302D01*
X731774Y-1496060D01*
X732129Y-1491691D01*
X733298Y-1487779D01*
X735228Y-1484325D01*
X737870Y-1481328D01*
X741019Y-1478889D01*
X744677Y-1477111D01*
X748792Y-1476095D01*
X753364Y-1475740D01*
X767080Y-1475740D01*
X767080Y-1464564D01*
X756920Y-1464564D01*
X752297Y-1464868D01*
X748080Y-1465783D01*
X744321Y-1467256D01*
X740918Y-1469390D01*
X738124Y-1472031D01*
X735787Y-1475130D01*
X733907Y-1478635D01*
X732536Y-1482598D01*
X731774Y-1482598D01*
X731774Y-1464564D01*
G37*
G36*
X951484Y-1464564D02*
G01*
X951484Y-1473962D01*
X972566Y-1473962D01*
X972566Y-1527302D01*
X951484Y-1527302D01*
X951484Y-1536700D01*
X1011936Y-1536700D01*
X1011936Y-1527302D01*
X983742Y-1527302D01*
X983742Y-1496060D01*
X984097Y-1491691D01*
X985266Y-1487779D01*
X987196Y-1484325D01*
X989837Y-1481328D01*
X992987Y-1478889D01*
X996645Y-1477111D01*
X1000760Y-1476095D01*
X1005332Y-1475740D01*
X1019048Y-1475740D01*
X1019048Y-1464564D01*
X1008887Y-1464564D01*
X1004265Y-1464868D01*
X1000048Y-1465783D01*
X996289Y-1467256D01*
X992886Y-1469390D01*
X990092Y-1472031D01*
X987755Y-1475130D01*
X985875Y-1478635D01*
X984503Y-1482598D01*
X983742Y-1482598D01*
X983742Y-1464564D01*
G37*
G36*
X1375664Y-1464564D02*
G01*
X1375664Y-1473962D01*
X1401572Y-1473962D01*
X1401572Y-1527302D01*
X1375664Y-1527302D01*
X1375664Y-1536700D01*
X1437132Y-1536700D01*
X1437132Y-1527302D01*
X1412748Y-1527302D01*
X1412748Y-1464564D01*
G37*
G36*
X1795525Y-1464564D02*
G01*
X1795525Y-1473962D01*
X1821688Y-1473962D01*
X1821688Y-1527302D01*
X1795525Y-1527302D01*
X1795525Y-1536700D01*
X1857248Y-1536700D01*
X1857248Y-1527302D01*
X1832864Y-1527302D01*
X1832864Y-1464564D01*
G37*
G36*
X1593088Y-1067562D02*
G01*
X1593088Y-1081786D01*
X1586839Y-1082649D01*
X1581251Y-1084275D01*
X1576425Y-1086612D01*
X1572260Y-1089660D01*
X1568907Y-1093368D01*
X1566519Y-1097737D01*
X1565097Y-1102664D01*
X1564640Y-1108202D01*
X1575816Y-1108202D01*
X1576120Y-1104798D01*
X1576984Y-1101801D01*
X1578406Y-1099108D01*
X1580388Y-1096772D01*
X1582928Y-1094943D01*
X1585925Y-1093520D01*
X1589379Y-1092555D01*
X1593342Y-1091946D01*
X1593342Y-1124966D01*
X1588973Y-1123848D01*
X1585264Y-1122476D01*
X1582267Y-1120902D01*
X1579880Y-1119124D01*
X1578102Y-1116939D01*
X1576832Y-1114348D01*
X1576070Y-1111453D01*
X1575816Y-1108202D01*
X1564640Y-1108202D01*
X1564944Y-1112926D01*
X1565910Y-1117346D01*
X1567535Y-1121664D01*
X1569974Y-1125474D01*
X1571599Y-1127201D01*
X1575562Y-1130249D01*
X1577848Y-1131570D01*
X1583334Y-1133805D01*
X1593342Y-1136142D01*
X1593342Y-1137412D01*
X1601724Y-1137412D01*
X1606194Y-1138428D01*
X1610055Y-1139698D01*
X1613204Y-1141222D01*
X1615694Y-1143000D01*
X1617573Y-1145235D01*
X1618945Y-1147876D01*
X1619758Y-1150975D01*
X1620012Y-1154430D01*
X1619707Y-1158138D01*
X1618792Y-1161491D01*
X1617319Y-1164386D01*
X1615186Y-1166876D01*
X1612646Y-1168958D01*
X1609547Y-1170584D01*
X1605889Y-1171752D01*
X1601724Y-1172464D01*
X1601724Y-1137412D01*
X1593342Y-1137412D01*
X1593342Y-1172464D01*
X1589786Y-1172006D01*
X1586433Y-1171194D01*
X1583283Y-1169974D01*
X1580388Y-1168400D01*
X1577644Y-1166469D01*
X1574901Y-1164132D01*
X1569720Y-1158494D01*
X1561084Y-1165606D01*
X1563776Y-1168908D01*
X1566773Y-1171956D01*
X1570126Y-1174750D01*
X1573784Y-1177290D01*
X1577949Y-1179322D01*
X1582572Y-1180896D01*
X1587601Y-1182014D01*
X1593088Y-1182624D01*
X1593088Y-1196848D01*
X1601724Y-1196848D01*
X1601724Y-1182624D01*
X1608531Y-1181709D01*
X1614474Y-1179931D01*
X1619605Y-1177391D01*
X1623822Y-1173988D01*
X1627174Y-1170025D01*
X1629562Y-1165402D01*
X1630984Y-1160221D01*
X1631442Y-1154430D01*
X1631137Y-1149553D01*
X1630172Y-1145032D01*
X1628444Y-1140714D01*
X1627276Y-1138732D01*
X1624228Y-1135176D01*
X1620266Y-1132128D01*
X1617980Y-1130808D01*
X1612493Y-1128572D01*
X1601724Y-1126236D01*
X1601724Y-1091946D01*
X1605026Y-1092454D01*
X1608074Y-1093266D01*
X1610868Y-1094384D01*
X1613408Y-1095756D01*
X1615744Y-1097381D01*
X1620062Y-1101445D01*
X1622044Y-1103884D01*
X1630933Y-1097534D01*
X1628139Y-1094181D01*
X1625142Y-1091234D01*
X1621942Y-1088745D01*
X1618488Y-1086612D01*
X1614779Y-1084783D01*
X1610715Y-1083360D01*
X1606397Y-1082395D01*
X1601724Y-1081786D01*
X1601724Y-1067562D01*
G37*
G36*
X812800Y-1077468D02*
G01*
X812800Y-1181100D01*
X823976Y-1181100D01*
X823976Y-1154938D01*
X836421Y-1143508D01*
X864616Y-1181100D01*
X878586Y-1181100D01*
X845058Y-1137158D01*
X875030Y-1108964D01*
X861314Y-1108964D01*
X837184Y-1131062D01*
X824484Y-1143000D01*
X823976Y-1143000D01*
X823976Y-1077468D01*
G37*
G36*
X1315466Y-1077468D02*
G01*
X1315466Y-1157986D01*
X1326642Y-1157986D01*
X1326743Y-1130249D01*
X1326997Y-1128522D01*
X1328166Y-1125474D01*
X1329740Y-1123035D01*
X1331976Y-1120902D01*
X1334719Y-1119327D01*
X1337818Y-1118108D01*
X1341424Y-1117346D01*
X1345184Y-1117092D01*
X1349756Y-1117447D01*
X1353769Y-1118616D01*
X1357223Y-1120546D01*
X1360170Y-1123188D01*
X1362608Y-1126337D01*
X1364386Y-1130046D01*
X1365402Y-1134211D01*
X1365758Y-1138936D01*
X1365758Y-1151128D01*
X1365402Y-1155852D01*
X1364386Y-1160018D01*
X1362608Y-1163726D01*
X1360170Y-1166876D01*
X1357223Y-1169416D01*
X1353769Y-1171244D01*
X1349756Y-1172362D01*
X1345184Y-1172718D01*
X1341424Y-1172514D01*
X1337818Y-1171956D01*
X1334719Y-1170686D01*
X1331976Y-1168908D01*
X1329740Y-1166876D01*
X1328166Y-1164336D01*
X1326997Y-1161338D01*
X1326642Y-1157986D01*
X1315466Y-1157986D01*
X1315466Y-1181100D01*
X1326642Y-1181100D01*
X1326642Y-1169416D01*
X1327150Y-1169416D01*
X1336294Y-1179525D01*
X1349502Y-1182878D01*
X1361338Y-1180338D01*
X1370330Y-1172718D01*
X1375867Y-1160830D01*
X1377696Y-1145032D01*
X1375867Y-1129030D01*
X1370330Y-1117092D01*
X1361338Y-1109675D01*
X1349502Y-1107186D01*
X1336294Y-1110538D01*
X1327150Y-1120648D01*
X1326642Y-1120648D01*
X1326642Y-1077468D01*
G37*
G36*
X1092200Y-1081786D02*
G01*
X1088237Y-1081938D01*
X1084529Y-1082497D01*
X1081024Y-1083360D01*
X1077722Y-1084580D01*
X1074775Y-1086256D01*
X1072083Y-1088390D01*
X1069594Y-1091031D01*
X1067308Y-1094232D01*
X1065377Y-1097788D01*
X1063701Y-1101902D01*
X1062228Y-1106576D01*
X1060958Y-1111758D01*
X1059230Y-1124204D01*
X1058672Y-1139190D01*
X1058773Y-1146200D01*
X1059789Y-1158748D01*
X1061770Y-1169568D01*
X1063193Y-1174292D01*
X1064920Y-1178560D01*
X1067054Y-1182370D01*
X1069390Y-1185824D01*
X1072083Y-1188770D01*
X1075080Y-1191260D01*
X1078484Y-1193292D01*
X1082395Y-1194866D01*
X1086662Y-1195984D01*
X1091387Y-1196644D01*
X1096518Y-1196848D01*
X1113536Y-1196848D01*
X1113536Y-1187704D01*
X1092504Y-1187551D01*
X1088898Y-1186992D01*
X1085646Y-1186129D01*
X1082802Y-1184910D01*
X1080262Y-1183233D01*
X1078026Y-1181303D01*
X1076096Y-1179068D01*
X1074420Y-1176528D01*
X1073099Y-1173784D01*
X1071981Y-1170838D01*
X1070356Y-1164336D01*
X1069594Y-1156970D01*
X1069340Y-1149096D01*
X1069340Y-1131062D01*
X1070660Y-1112723D01*
X1074674Y-1100328D01*
X1077772Y-1096111D01*
X1081786Y-1093063D01*
X1086662Y-1091285D01*
X1092454Y-1090676D01*
X1097686Y-1091082D01*
X1102106Y-1092403D01*
X1105763Y-1094536D01*
X1108710Y-1097534D01*
X1110843Y-1101293D01*
X1112316Y-1105662D01*
X1113231Y-1110691D01*
X1113536Y-1119632D01*
X1113028Y-1119632D01*
X1111250Y-1116076D01*
X1109218Y-1113790D01*
X1107541Y-1112418D01*
X1105509Y-1111250D01*
X1103223Y-1110386D01*
X1099058Y-1109980D01*
X1094943Y-1110437D01*
X1091336Y-1111808D01*
X1088085Y-1114145D01*
X1085342Y-1117346D01*
X1083106Y-1121460D01*
X1081532Y-1126642D01*
X1080566Y-1132890D01*
X1080262Y-1140206D01*
X1080433Y-1144270D01*
X1090676Y-1144270D01*
X1090676Y-1135634D01*
X1090879Y-1131265D01*
X1091438Y-1127658D01*
X1092403Y-1124661D01*
X1093724Y-1122426D01*
X1095400Y-1120648D01*
X1097483Y-1119378D01*
X1099870Y-1118616D01*
X1102614Y-1118362D01*
X1105052Y-1118514D01*
X1107186Y-1119073D01*
X1109065Y-1119936D01*
X1110742Y-1121156D01*
X1111961Y-1122730D01*
X1112824Y-1124559D01*
X1113383Y-1126794D01*
X1113536Y-1129284D01*
X1113536Y-1150620D01*
X1113383Y-1153109D01*
X1112824Y-1155293D01*
X1111961Y-1157173D01*
X1110742Y-1158748D01*
X1109065Y-1159967D01*
X1107186Y-1160830D01*
X1105052Y-1161389D01*
X1102614Y-1161542D01*
X1099870Y-1161288D01*
X1097483Y-1160576D01*
X1095400Y-1159408D01*
X1093724Y-1157732D01*
X1092403Y-1155344D01*
X1091438Y-1152347D01*
X1090879Y-1148638D01*
X1090676Y-1144270D01*
X1080433Y-1144270D01*
X1080566Y-1147419D01*
X1081532Y-1153617D01*
X1083106Y-1158748D01*
X1085342Y-1162812D01*
X1088085Y-1165910D01*
X1091285Y-1168146D01*
X1094943Y-1169466D01*
X1099058Y-1169924D01*
X1101953Y-1169771D01*
X1104442Y-1169212D01*
X1106627Y-1168349D01*
X1108456Y-1167130D01*
X1111097Y-1163878D01*
X1113028Y-1160272D01*
X1113536Y-1160272D01*
X1113536Y-1168400D01*
X1123696Y-1168400D01*
X1123594Y-1112723D01*
X1122680Y-1105865D01*
X1121918Y-1102614D01*
X1120902Y-1099566D01*
X1119632Y-1096721D01*
X1118108Y-1094079D01*
X1116330Y-1091692D01*
X1114298Y-1089507D01*
X1112012Y-1087577D01*
X1109472Y-1085850D01*
X1106678Y-1084326D01*
X1103477Y-1083208D01*
X1100023Y-1082446D01*
X1096264Y-1081938D01*
G37*
G36*
X593344Y-1107186D02*
G01*
X580186Y-1110538D01*
X571246Y-1120648D01*
X570484Y-1120648D01*
X570484Y-1108964D01*
X559308Y-1108964D01*
X559308Y-1157986D01*
X570484Y-1157986D01*
X570585Y-1130249D01*
X571347Y-1126947D01*
X572008Y-1125474D01*
X573786Y-1123035D01*
X576072Y-1120902D01*
X578815Y-1119327D01*
X581914Y-1118108D01*
X585368Y-1117346D01*
X589026Y-1117092D01*
X593699Y-1117447D01*
X597814Y-1118616D01*
X601319Y-1120546D01*
X604266Y-1123188D01*
X606602Y-1126337D01*
X608279Y-1130046D01*
X609244Y-1134211D01*
X609600Y-1138936D01*
X609600Y-1151128D01*
X609244Y-1155852D01*
X608279Y-1160018D01*
X606602Y-1163726D01*
X604266Y-1166876D01*
X601319Y-1169416D01*
X597763Y-1171244D01*
X593699Y-1172362D01*
X589026Y-1172718D01*
X585368Y-1172514D01*
X581914Y-1171956D01*
X578815Y-1170686D01*
X576072Y-1168908D01*
X573786Y-1166876D01*
X572008Y-1164336D01*
X570890Y-1161338D01*
X570484Y-1157986D01*
X559308Y-1157986D01*
X559308Y-1209040D01*
X570484Y-1209040D01*
X570484Y-1169416D01*
X571246Y-1169416D01*
X580186Y-1179525D01*
X593344Y-1182878D01*
X605282Y-1180338D01*
X614172Y-1172718D01*
X619912Y-1160830D01*
X621792Y-1145032D01*
X619861Y-1129030D01*
X614172Y-1117092D01*
X605282Y-1109675D01*
G37*
G36*
X669290Y-1107186D02*
G01*
X664159Y-1107490D01*
X659384Y-1108456D01*
X655066Y-1109726D01*
X651256Y-1111504D01*
X648157Y-1113739D01*
X645414Y-1116330D01*
X643331Y-1118920D01*
X641604Y-1121664D01*
X649224Y-1127252D01*
X650748Y-1124966D01*
X652475Y-1122934D01*
X654405Y-1121156D01*
X656590Y-1119632D01*
X659130Y-1118311D01*
X661974Y-1117346D01*
X665124Y-1116787D01*
X668528Y-1116584D01*
X672490Y-1116838D01*
X675894Y-1117600D01*
X678840Y-1118870D01*
X681228Y-1120648D01*
X683209Y-1122934D01*
X684631Y-1125677D01*
X685495Y-1128877D01*
X685800Y-1132586D01*
X685800Y-1139698D01*
X670306Y-1139698D01*
X656285Y-1141120D01*
X646684Y-1145286D01*
X643483Y-1148232D01*
X641146Y-1151839D01*
X639775Y-1156004D01*
X639318Y-1160780D01*
X639424Y-1162050D01*
X651002Y-1162050D01*
X651002Y-1159002D01*
X651306Y-1156563D01*
X652221Y-1154430D01*
X653694Y-1152499D01*
X655828Y-1150874D01*
X658469Y-1149654D01*
X661720Y-1148791D01*
X665683Y-1148232D01*
X685800Y-1148080D01*
X685698Y-1161389D01*
X685444Y-1162761D01*
X684276Y-1165352D01*
X682650Y-1167688D01*
X680212Y-1169670D01*
X677418Y-1171143D01*
X674116Y-1172464D01*
X670204Y-1173226D01*
X665988Y-1173480D01*
X662736Y-1173276D01*
X659841Y-1172718D01*
X657250Y-1171752D01*
X655066Y-1170432D01*
X653288Y-1168857D01*
X652018Y-1166926D01*
X651256Y-1164691D01*
X651002Y-1162050D01*
X639424Y-1162050D01*
X639724Y-1165606D01*
X641045Y-1169873D01*
X643178Y-1173581D01*
X646176Y-1176782D01*
X649782Y-1179474D01*
X653999Y-1181354D01*
X658774Y-1182522D01*
X664210Y-1182878D01*
X668324Y-1182674D01*
X672033Y-1181963D01*
X675284Y-1180896D01*
X678180Y-1179322D01*
X680669Y-1177391D01*
X682752Y-1175054D01*
X684479Y-1172413D01*
X685800Y-1169416D01*
X686562Y-1169416D01*
X687070Y-1171854D01*
X687832Y-1174038D01*
X688848Y-1176020D01*
X690118Y-1177798D01*
X691743Y-1179220D01*
X693877Y-1180287D01*
X696468Y-1180896D01*
X699516Y-1181100D01*
X707136Y-1181100D01*
X707136Y-1171194D01*
X696976Y-1171194D01*
X696976Y-1131570D01*
X696518Y-1126134D01*
X695147Y-1121359D01*
X692810Y-1117142D01*
X689610Y-1113536D01*
X685495Y-1110742D01*
X680720Y-1108760D01*
X675335Y-1107592D01*
G37*
G36*
X924560Y-1107186D02*
G01*
X920953Y-1107338D01*
X917498Y-1107846D01*
X914247Y-1108608D01*
X911098Y-1109726D01*
X908151Y-1111250D01*
X905459Y-1113028D01*
X902969Y-1115060D01*
X900684Y-1117346D01*
X898652Y-1119987D01*
X896823Y-1122934D01*
X895197Y-1126083D01*
X893826Y-1129538D01*
X892810Y-1133094D01*
X892098Y-1136853D01*
X891833Y-1139444D01*
X903224Y-1139444D01*
X903579Y-1133805D01*
X904748Y-1129538D01*
X906780Y-1125931D01*
X909319Y-1122680D01*
X912418Y-1120140D01*
X916178Y-1118108D01*
X920191Y-1116787D01*
X922324Y-1116431D01*
X926795Y-1116431D01*
X931011Y-1117193D01*
X932942Y-1117854D01*
X936244Y-1119784D01*
X939037Y-1122426D01*
X941476Y-1125524D01*
X943102Y-1129284D01*
X944270Y-1133348D01*
X944626Y-1139444D01*
X891833Y-1139444D01*
X891540Y-1145032D01*
X891692Y-1149248D01*
X892098Y-1153210D01*
X892810Y-1156970D01*
X893826Y-1160526D01*
X895197Y-1163929D01*
X896823Y-1167079D01*
X898652Y-1169924D01*
X900684Y-1172464D01*
X902969Y-1174851D01*
X905510Y-1176934D01*
X908303Y-1178661D01*
X914501Y-1181303D01*
X917905Y-1182166D01*
X921512Y-1182725D01*
X925321Y-1182878D01*
X930554Y-1182573D01*
X935380Y-1181658D01*
X939698Y-1180185D01*
X943610Y-1178052D01*
X947115Y-1175613D01*
X950061Y-1172768D01*
X952449Y-1169619D01*
X954278Y-1166114D01*
X946150Y-1160526D01*
X944575Y-1163269D01*
X942695Y-1165707D01*
X940511Y-1167841D01*
X938021Y-1169670D01*
X935228Y-1171244D01*
X932180Y-1172311D01*
X928878Y-1173022D01*
X925321Y-1173226D01*
X922832Y-1173124D01*
X918260Y-1172210D01*
X914196Y-1170584D01*
X912368Y-1169568D01*
X909066Y-1166876D01*
X906576Y-1163777D01*
X904748Y-1160018D01*
X903579Y-1155750D01*
X903224Y-1151128D01*
X903224Y-1147826D01*
X956818Y-1147826D01*
X956665Y-1138732D01*
X956259Y-1135126D01*
X955548Y-1131620D01*
X954532Y-1128268D01*
X953262Y-1125169D01*
X951737Y-1122273D01*
X949960Y-1119581D01*
X947928Y-1117092D01*
X945794Y-1114907D01*
X943356Y-1112977D01*
X940663Y-1111250D01*
X937768Y-1109726D01*
X934770Y-1108608D01*
X931570Y-1107846D01*
X928166Y-1107338D01*
G37*
G36*
X1181354Y-1107186D02*
G01*
X1168196Y-1110538D01*
X1159256Y-1120648D01*
X1158494Y-1120648D01*
X1158494Y-1108964D01*
X1147318Y-1108964D01*
X1147318Y-1157986D01*
X1158494Y-1157986D01*
X1158595Y-1130249D01*
X1159357Y-1126947D01*
X1160018Y-1125474D01*
X1161796Y-1123035D01*
X1164082Y-1120902D01*
X1166825Y-1119327D01*
X1169924Y-1118108D01*
X1173378Y-1117346D01*
X1177036Y-1117092D01*
X1181709Y-1117447D01*
X1185773Y-1118616D01*
X1189329Y-1120546D01*
X1192276Y-1123188D01*
X1194612Y-1126337D01*
X1196289Y-1130046D01*
X1197254Y-1134211D01*
X1197610Y-1138936D01*
X1197610Y-1151128D01*
X1197254Y-1155852D01*
X1196289Y-1160018D01*
X1194612Y-1163726D01*
X1192276Y-1166876D01*
X1189329Y-1169416D01*
X1185773Y-1171244D01*
X1181709Y-1172362D01*
X1177036Y-1172718D01*
X1173378Y-1172514D01*
X1169924Y-1171956D01*
X1166825Y-1170686D01*
X1164082Y-1168908D01*
X1161796Y-1166876D01*
X1160018Y-1164336D01*
X1158900Y-1161338D01*
X1158494Y-1157986D01*
X1147318Y-1157986D01*
X1147318Y-1209040D01*
X1158494Y-1209040D01*
X1158494Y-1169416D01*
X1159256Y-1169416D01*
X1168196Y-1179525D01*
X1181354Y-1182878D01*
X1193292Y-1180338D01*
X1202182Y-1172718D01*
X1207871Y-1160830D01*
X1209802Y-1145032D01*
X1207922Y-1129030D01*
X1202182Y-1117092D01*
X1193292Y-1109675D01*
G37*
G36*
X1262380Y-1107186D02*
G01*
X1258671Y-1107338D01*
X1255115Y-1107846D01*
X1251813Y-1108608D01*
X1248664Y-1109726D01*
X1245819Y-1111250D01*
X1243177Y-1113028D01*
X1240739Y-1115060D01*
X1238504Y-1117346D01*
X1236573Y-1119987D01*
X1234897Y-1122934D01*
X1233424Y-1126083D01*
X1232154Y-1129538D01*
X1231138Y-1133094D01*
X1230426Y-1136853D01*
X1230020Y-1140815D01*
X1229868Y-1145032D01*
X1230020Y-1149146D01*
X1230426Y-1153109D01*
X1231138Y-1156868D01*
X1233322Y-1163929D01*
X1234744Y-1167079D01*
X1236472Y-1169924D01*
X1238504Y-1172464D01*
X1240688Y-1174750D01*
X1243076Y-1176782D01*
X1245768Y-1178560D01*
X1248664Y-1180084D01*
X1251813Y-1181303D01*
X1255217Y-1182166D01*
X1258824Y-1182725D01*
X1262634Y-1182878D01*
X1267815Y-1182573D01*
X1272540Y-1181658D01*
X1276705Y-1180185D01*
X1280414Y-1178052D01*
X1283512Y-1175461D01*
X1286205Y-1172565D01*
X1288440Y-1169365D01*
X1290320Y-1165860D01*
X1282446Y-1160526D01*
X1280922Y-1163269D01*
X1279144Y-1165707D01*
X1277112Y-1167841D01*
X1274826Y-1169670D01*
X1272235Y-1171244D01*
X1269339Y-1172311D01*
X1266139Y-1173022D01*
X1262634Y-1173226D01*
X1260246Y-1173124D01*
X1255826Y-1172210D01*
X1251915Y-1170584D01*
X1250188Y-1169568D01*
X1247140Y-1166876D01*
X1244904Y-1163777D01*
X1243330Y-1160018D01*
X1242161Y-1155750D01*
X1241806Y-1151128D01*
X1241907Y-1136548D01*
X1242161Y-1134313D01*
X1243330Y-1130046D01*
X1244904Y-1126236D01*
X1247140Y-1122934D01*
X1250188Y-1120394D01*
X1253744Y-1118362D01*
X1257808Y-1117244D01*
X1262380Y-1116838D01*
X1265682Y-1117041D01*
X1268679Y-1117600D01*
X1271371Y-1118565D01*
X1273810Y-1119886D01*
X1275943Y-1121562D01*
X1277670Y-1123594D01*
X1279093Y-1125880D01*
X1280160Y-1128522D01*
X1289304Y-1123950D01*
X1287576Y-1120343D01*
X1285392Y-1117092D01*
X1282750Y-1114247D01*
X1279652Y-1111758D01*
X1276096Y-1109776D01*
X1272032Y-1108354D01*
X1267460Y-1107490D01*
G37*
G36*
X1768093Y-1107186D02*
G01*
X1763979Y-1107440D01*
X1760220Y-1108202D01*
X1757172Y-1109624D01*
X1754632Y-1111250D01*
X1752295Y-1113231D01*
X1750314Y-1115568D01*
X1748840Y-1117955D01*
X1747520Y-1120648D01*
X1747012Y-1120648D01*
X1747012Y-1108964D01*
X1735836Y-1108964D01*
X1735836Y-1181100D01*
X1747012Y-1181100D01*
X1747113Y-1129334D01*
X1747875Y-1126134D01*
X1749348Y-1123492D01*
X1751380Y-1121308D01*
X1753920Y-1119682D01*
X1756816Y-1118412D01*
X1760016Y-1117498D01*
X1765046Y-1117092D01*
X1768957Y-1117396D01*
X1772412Y-1118311D01*
X1775307Y-1119784D01*
X1777746Y-1121918D01*
X1779625Y-1124661D01*
X1780997Y-1128014D01*
X1781810Y-1132027D01*
X1782064Y-1136650D01*
X1782064Y-1181100D01*
X1793239Y-1181100D01*
X1793239Y-1134872D01*
X1792833Y-1128623D01*
X1791512Y-1123137D01*
X1789379Y-1118362D01*
X1786382Y-1114298D01*
X1782673Y-1111199D01*
X1778355Y-1108964D01*
X1773529Y-1107643D01*
G37*
G36*
X1845310Y-1107186D02*
G01*
X1840026Y-1107490D01*
X1833168Y-1109014D01*
X1829104Y-1110538D01*
X1825650Y-1112570D01*
X1822754Y-1114958D01*
X1820316Y-1117600D01*
X1817624Y-1121664D01*
X1825243Y-1127252D01*
X1826768Y-1124966D01*
X1828495Y-1122934D01*
X1830425Y-1121156D01*
X1832610Y-1119632D01*
X1835150Y-1118311D01*
X1837994Y-1117346D01*
X1841144Y-1116787D01*
X1844548Y-1116584D01*
X1848459Y-1116838D01*
X1851914Y-1117600D01*
X1854860Y-1118870D01*
X1857248Y-1120648D01*
X1859229Y-1122934D01*
X1860702Y-1125677D01*
X1861515Y-1128877D01*
X1861820Y-1132586D01*
X1861820Y-1139698D01*
X1846325Y-1139698D01*
X1832305Y-1141120D01*
X1822704Y-1145286D01*
X1819503Y-1148232D01*
X1817166Y-1151839D01*
X1815795Y-1156004D01*
X1815338Y-1160780D01*
X1815444Y-1162050D01*
X1827022Y-1162050D01*
X1827022Y-1159002D01*
X1827326Y-1156563D01*
X1828139Y-1154430D01*
X1829612Y-1152499D01*
X1831593Y-1150874D01*
X1834337Y-1149654D01*
X1837689Y-1148791D01*
X1841703Y-1148232D01*
X1861820Y-1148080D01*
X1861718Y-1161389D01*
X1860956Y-1164082D01*
X1859483Y-1166571D01*
X1857451Y-1168755D01*
X1854809Y-1170432D01*
X1851609Y-1171803D01*
X1848053Y-1172921D01*
X1844141Y-1173429D01*
X1838756Y-1173276D01*
X1835861Y-1172718D01*
X1833270Y-1171752D01*
X1831086Y-1170432D01*
X1829307Y-1168857D01*
X1828038Y-1166926D01*
X1827275Y-1164691D01*
X1827022Y-1162050D01*
X1815444Y-1162050D01*
X1815744Y-1165606D01*
X1816963Y-1169873D01*
X1819046Y-1173581D01*
X1821942Y-1176782D01*
X1825650Y-1179474D01*
X1829968Y-1181354D01*
X1834794Y-1182522D01*
X1840230Y-1182878D01*
X1844344Y-1182674D01*
X1848053Y-1181963D01*
X1851304Y-1180896D01*
X1854200Y-1179322D01*
X1856689Y-1177391D01*
X1858772Y-1175054D01*
X1860499Y-1172413D01*
X1861820Y-1169416D01*
X1862582Y-1169416D01*
X1863089Y-1171854D01*
X1863852Y-1174038D01*
X1864868Y-1176020D01*
X1866138Y-1177798D01*
X1867763Y-1179220D01*
X1869795Y-1180287D01*
X1872335Y-1180896D01*
X1875282Y-1181100D01*
X1883156Y-1181100D01*
X1883156Y-1171194D01*
X1872996Y-1171194D01*
X1872996Y-1131570D01*
X1872538Y-1126134D01*
X1871167Y-1121359D01*
X1868830Y-1117142D01*
X1865630Y-1113536D01*
X1861515Y-1110742D01*
X1856739Y-1108760D01*
X1851355Y-1107592D01*
G37*
G36*
X1922525Y-1107186D02*
G01*
X1919681Y-1107389D01*
X1917192Y-1107948D01*
X1915109Y-1108913D01*
X1913382Y-1110234D01*
X1910638Y-1113434D01*
X1908556Y-1117346D01*
X1908048Y-1117346D01*
X1908048Y-1108964D01*
X1897634Y-1108964D01*
X1897634Y-1181100D01*
X1908048Y-1181100D01*
X1908048Y-1128014D01*
X1908200Y-1125270D01*
X1908759Y-1122934D01*
X1909622Y-1120952D01*
X1910842Y-1119378D01*
X1912366Y-1118057D01*
X1914093Y-1117092D01*
X1916023Y-1116533D01*
X1918207Y-1116330D01*
X1920443Y-1116533D01*
X1922322Y-1117193D01*
X1923897Y-1118311D01*
X1925066Y-1119886D01*
X1925828Y-1122019D01*
X1926386Y-1124915D01*
X1926742Y-1128522D01*
X1926843Y-1181100D01*
X1937257Y-1181100D01*
X1937257Y-1128014D01*
X1937410Y-1125270D01*
X1937969Y-1122934D01*
X1938832Y-1120952D01*
X1940052Y-1119378D01*
X1941575Y-1118057D01*
X1943303Y-1117092D01*
X1945233Y-1116533D01*
X1947418Y-1116330D01*
X1949754Y-1116533D01*
X1951685Y-1117193D01*
X1953158Y-1118311D01*
X1954275Y-1119886D01*
X1955038Y-1122019D01*
X1955596Y-1124915D01*
X1955952Y-1128522D01*
X1956054Y-1181100D01*
X1966468Y-1181100D01*
X1966468Y-1131062D01*
X1966264Y-1125575D01*
X1965706Y-1120800D01*
X1964740Y-1116685D01*
X1963420Y-1113282D01*
X1961642Y-1110640D01*
X1959102Y-1108710D01*
X1955800Y-1107592D01*
X1951736Y-1107186D01*
X1948637Y-1107389D01*
X1945893Y-1107998D01*
X1943557Y-1109065D01*
X1941575Y-1110488D01*
X1939899Y-1112113D01*
X1938375Y-1114044D01*
X1935988Y-1118616D01*
X1935480Y-1118616D01*
X1935073Y-1116177D01*
X1934362Y-1113993D01*
X1933295Y-1112012D01*
X1931924Y-1110234D01*
X1930095Y-1108913D01*
X1927910Y-1107948D01*
X1925421Y-1107389D01*
G37*
G36*
X2016760Y-1107186D02*
G01*
X2013051Y-1107338D01*
X2009495Y-1107846D01*
X2006193Y-1108608D01*
X2003043Y-1109726D01*
X2000097Y-1111250D01*
X1997405Y-1113028D01*
X1994916Y-1115060D01*
X1992630Y-1117346D01*
X1990598Y-1119987D01*
X1988820Y-1122934D01*
X1987296Y-1126083D01*
X1984908Y-1133094D01*
X1984095Y-1136853D01*
X1983796Y-1139444D01*
X1995170Y-1139444D01*
X1995271Y-1136040D01*
X1996186Y-1131620D01*
X1997811Y-1127658D01*
X1999945Y-1124254D01*
X2001266Y-1122680D01*
X2004517Y-1120140D01*
X2008124Y-1118108D01*
X2012188Y-1116787D01*
X2014423Y-1116431D01*
X2018893Y-1116431D01*
X2022957Y-1117193D01*
X2024888Y-1117854D01*
X2028240Y-1119784D01*
X2031238Y-1122426D01*
X2033524Y-1125524D01*
X2035302Y-1129284D01*
X2036267Y-1133348D01*
X2036572Y-1139444D01*
X1983796Y-1139444D01*
X1983486Y-1145032D01*
X1983638Y-1149248D01*
X1984044Y-1153210D01*
X1984756Y-1156970D01*
X1985772Y-1160526D01*
X1987143Y-1163929D01*
X1988769Y-1167079D01*
X1990598Y-1169924D01*
X1992630Y-1172464D01*
X1994916Y-1174851D01*
X1997456Y-1176934D01*
X2000250Y-1178661D01*
X2006447Y-1181303D01*
X2009851Y-1182166D01*
X2013457Y-1182725D01*
X2017268Y-1182878D01*
X2022500Y-1182573D01*
X2027326Y-1181658D01*
X2031644Y-1180185D01*
X2035556Y-1178052D01*
X2039061Y-1175613D01*
X2042007Y-1172768D01*
X2044395Y-1169619D01*
X2046224Y-1166114D01*
X2038096Y-1160526D01*
X2036521Y-1163269D01*
X2034641Y-1165707D01*
X2032457Y-1167841D01*
X2029968Y-1169670D01*
X2027174Y-1171244D01*
X2024125Y-1172311D01*
X2020824Y-1173022D01*
X2017268Y-1173226D01*
X2014880Y-1173124D01*
X2010308Y-1172210D01*
X2006193Y-1170584D01*
X2004364Y-1169568D01*
X2001266Y-1166876D01*
X1998624Y-1163777D01*
X1996693Y-1160018D01*
X1995576Y-1155750D01*
X1995170Y-1151128D01*
X1995170Y-1147826D01*
X2048764Y-1147826D01*
X2048611Y-1138732D01*
X2048205Y-1135126D01*
X2047493Y-1131620D01*
X2046478Y-1128268D01*
X2045207Y-1125169D01*
X2043734Y-1122273D01*
X2042058Y-1119581D01*
X2040128Y-1117092D01*
X2037892Y-1114907D01*
X2035454Y-1112977D01*
X2032812Y-1111250D01*
X2029968Y-1109726D01*
X2026869Y-1108608D01*
X2023618Y-1107846D01*
X2020265Y-1107338D01*
G37*
G36*
X1427988Y-1107694D02*
G01*
X1425397Y-1107846D01*
X1423212Y-1108252D01*
X1421485Y-1108964D01*
X1420114Y-1109980D01*
X1419098Y-1111199D01*
X1418386Y-1112672D01*
X1417980Y-1114247D01*
X1417828Y-1118616D01*
X1417980Y-1120292D01*
X1418386Y-1121867D01*
X1419098Y-1123238D01*
X1420114Y-1124458D01*
X1421485Y-1125575D01*
X1423212Y-1126388D01*
X1425397Y-1126845D01*
X1427988Y-1126998D01*
X1430680Y-1126845D01*
X1432915Y-1126388D01*
X1434744Y-1125575D01*
X1436116Y-1124458D01*
X1437132Y-1123238D01*
X1437843Y-1121867D01*
X1438249Y-1120292D01*
X1438402Y-1116076D01*
X1438249Y-1114247D01*
X1437843Y-1112621D01*
X1437132Y-1111199D01*
X1436116Y-1109980D01*
X1434744Y-1108964D01*
X1432915Y-1108252D01*
X1430680Y-1107846D01*
G37*
G36*
X724916Y-1108964D02*
G01*
X724916Y-1118362D01*
X745998Y-1118362D01*
X745998Y-1171702D01*
X724916Y-1171702D01*
X724916Y-1181100D01*
X785114Y-1181100D01*
X785114Y-1171702D01*
X757174Y-1171702D01*
X757174Y-1140460D01*
X757529Y-1136091D01*
X758698Y-1132179D01*
X760628Y-1128725D01*
X763270Y-1125728D01*
X766419Y-1123289D01*
X770077Y-1121511D01*
X774192Y-1120495D01*
X778764Y-1120140D01*
X792480Y-1120140D01*
X792480Y-1108964D01*
X782320Y-1108964D01*
X777697Y-1109268D01*
X773480Y-1110183D01*
X769721Y-1111656D01*
X766318Y-1113790D01*
X763524Y-1116431D01*
X761187Y-1119530D01*
X759307Y-1123035D01*
X757936Y-1126998D01*
X757174Y-1126998D01*
X757174Y-1108964D01*
G37*
G36*
X976884Y-1108964D02*
G01*
X976884Y-1118362D01*
X997966Y-1118362D01*
X997966Y-1171702D01*
X976884Y-1171702D01*
X976884Y-1181100D01*
X1037336Y-1181100D01*
X1037336Y-1171702D01*
X1009142Y-1171702D01*
X1009142Y-1140460D01*
X1009497Y-1136091D01*
X1010666Y-1132179D01*
X1012596Y-1128725D01*
X1015237Y-1125728D01*
X1018387Y-1123289D01*
X1022045Y-1121511D01*
X1026160Y-1120495D01*
X1030732Y-1120140D01*
X1044448Y-1120140D01*
X1044448Y-1108964D01*
X1034287Y-1108964D01*
X1029665Y-1109268D01*
X1025448Y-1110183D01*
X1021689Y-1111656D01*
X1018286Y-1113790D01*
X1015492Y-1116431D01*
X1013155Y-1119530D01*
X1011275Y-1123035D01*
X1009903Y-1126998D01*
X1009142Y-1126998D01*
X1009142Y-1108964D01*
G37*
G36*
X1497838Y-1123188D02*
G01*
X1493875Y-1123645D01*
X1490319Y-1124966D01*
X1487271Y-1127201D01*
X1484630Y-1130300D01*
X1482344Y-1134110D01*
X1480362Y-1138682D01*
X1478686Y-1144016D01*
X1477264Y-1150112D01*
X1485900Y-1152144D01*
X1487068Y-1147114D01*
X1488338Y-1142847D01*
X1489608Y-1139494D01*
X1490980Y-1136904D01*
X1492351Y-1135024D01*
X1493926Y-1133652D01*
X1495653Y-1132840D01*
X1497584Y-1132586D01*
X1499006Y-1132738D01*
X1500378Y-1133297D01*
X1501749Y-1134160D01*
X1504594Y-1136802D01*
X1511554Y-1145032D01*
X1515465Y-1148994D01*
X1517396Y-1150620D01*
X1519275Y-1151839D01*
X1521409Y-1152702D01*
X1523746Y-1153261D01*
X1526286Y-1153414D01*
X1529842Y-1153058D01*
X1533093Y-1151940D01*
X1536039Y-1150112D01*
X1538732Y-1147572D01*
X1541170Y-1144066D01*
X1543304Y-1139444D01*
X1545234Y-1133652D01*
X1546860Y-1126744D01*
X1538224Y-1124712D01*
X1537309Y-1128928D01*
X1535125Y-1135888D01*
X1533906Y-1138682D01*
X1532382Y-1141018D01*
X1530654Y-1142695D01*
X1528724Y-1143660D01*
X1526540Y-1144016D01*
X1525168Y-1143863D01*
X1523746Y-1143406D01*
X1522323Y-1142593D01*
X1519478Y-1140053D01*
X1512468Y-1131671D01*
X1508658Y-1127861D01*
X1504848Y-1124915D01*
X1502714Y-1123950D01*
X1500378Y-1123391D01*
G37*
G36*
X1427988Y-1163066D02*
G01*
X1425397Y-1163218D01*
X1423212Y-1163624D01*
X1421485Y-1164336D01*
X1420114Y-1165352D01*
X1419098Y-1166672D01*
X1418386Y-1168146D01*
X1417980Y-1169720D01*
X1417828Y-1173988D01*
X1417980Y-1175715D01*
X1418386Y-1177290D01*
X1419098Y-1178763D01*
X1420114Y-1180084D01*
X1421485Y-1181100D01*
X1423212Y-1181811D01*
X1425397Y-1182217D01*
X1427988Y-1182370D01*
X1430680Y-1182217D01*
X1432915Y-1181811D01*
X1434744Y-1181100D01*
X1436116Y-1180084D01*
X1437132Y-1178763D01*
X1437843Y-1177290D01*
X1438249Y-1175715D01*
X1438402Y-1171448D01*
X1438249Y-1169720D01*
X1437843Y-1168146D01*
X1437132Y-1166672D01*
X1436116Y-1165352D01*
X1434744Y-1164336D01*
X1432915Y-1163624D01*
X1430680Y-1163218D01*
G37*
D10*
X5423408Y-2592578D02*
G01*
X5433822Y-2587244D01*
X5444236Y-2576829D01*
X5449315Y-2566670D01*
X5449315Y-2545842D01*
X5444236Y-2535428D01*
X5433822Y-2525013D01*
X5423408Y-2519679D01*
X5407659Y-2514600D01*
X5381752Y-2514600D01*
X5366258Y-2519679D01*
X5355843Y-2525013D01*
X5345429Y-2535428D01*
X5340350Y-2545842D01*
X5340350Y-2566670D01*
X5345429Y-2576829D01*
X5355843Y-2587244D01*
X5366258Y-2592578D01*
X5428488Y-2626868D02*
G01*
X5433822Y-2637281D01*
X5449315Y-2652776D01*
X5340350Y-2652776D01*
X5116449Y-2210688D02*
G01*
X5116449Y-2101722D01*
X5116449Y-2101722D02*
G01*
X5054218Y-2101722D01*
X5019929Y-2210688D02*
G01*
X5019929Y-2101722D01*
X5019929Y-2210688D02*
G01*
X4952365Y-2210688D01*
X5019929Y-2158872D02*
G01*
X4978272Y-2158872D01*
X5019929Y-2101722D02*
G01*
X4952365Y-2101722D01*
X4918075Y-2210688D02*
G01*
X4918075Y-2101722D01*
X4918075Y-2210688D02*
G01*
X4881499Y-2210688D01*
X4866004Y-2205609D01*
X4855590Y-2195195D01*
X4850511Y-2184780D01*
X4845177Y-2169032D01*
X4845177Y-2143125D01*
X4850511Y-2127630D01*
X4855590Y-2117217D01*
X4866004Y-2106803D01*
X4881499Y-2101722D01*
X4918075Y-2101722D01*
X4810886Y-2189861D02*
G01*
X4800472Y-2195195D01*
X4784979Y-2210688D01*
X4784979Y-2101722D01*
X5169915Y-2527300D02*
G01*
X5060950Y-2527300D01*
X5169915Y-2527300D02*
G01*
X5169915Y-2574036D01*
X5164836Y-2589529D01*
X5159502Y-2594863D01*
X5149088Y-2599944D01*
X5138674Y-2599944D01*
X5128259Y-2594863D01*
X5123179Y-2589529D01*
X5118100Y-2574036D01*
X5118100Y-2527300D01*
X5118100Y-2563621D02*
G01*
X5060950Y-2599944D01*
X5149088Y-2634234D02*
G01*
X5154422Y-2644647D01*
X5169915Y-2660395D01*
X5060950Y-2660395D01*
X5859696Y-2485240D02*
G01*
X5781718Y-2485240D01*
X5766224Y-2490320D01*
X5755810Y-2500734D01*
X5750730Y-2516482D01*
X5750730Y-2526896D01*
X5755810Y-2542390D01*
X5766224Y-2552804D01*
X5781718Y-2557884D01*
X5859696Y-2557884D01*
X5838868Y-2592174D02*
G01*
X5844202Y-2602588D01*
X5859696Y-2618336D01*
X5750730Y-2618336D01*
X5993384Y-2514600D02*
G01*
X6071361Y-2514600D01*
X6086856Y-2509520D01*
X6097270Y-2499105D01*
X6102350Y-2483357D01*
X6102350Y-2472944D01*
X6097270Y-2457450D01*
X6086856Y-2447036D01*
X6071361Y-2441955D01*
X5993384Y-2441955D01*
X6019291Y-2402331D02*
G01*
X6014211Y-2402331D01*
X6003797Y-2397252D01*
X5998463Y-2391918D01*
X5993384Y-2381504D01*
X5993384Y-2360929D01*
X5998463Y-2350515D01*
X6003797Y-2345181D01*
X6014211Y-2340102D01*
X6024625Y-2340102D01*
X6035040Y-2345181D01*
X6050534Y-2355595D01*
X6102350Y-2407665D01*
X6102350Y-2334768D01*
D11*
X5161442Y-2486581D02*
G01*
X5161442Y-2406583D01*
X5161396Y-2542626D02*
G01*
X5161396Y-2622623D01*
X5303410Y-2486581D02*
G01*
X5303410Y-2406583D01*
X5303362Y-2542626D02*
G01*
X5303362Y-2622623D01*
X5192425Y-2375608D02*
G01*
X5272430Y-2375608D01*
X5272377Y-2653601D02*
G01*
X5192374Y-2653601D01*
X5072700Y-2018499D02*
G01*
X5112699Y-1978499D01*
X5122699Y-1968500D01*
X5112699Y-1958474D01*
X5072700Y-1918474D01*
X5072700Y-2018499D02*
G01*
X5072700Y-1918474D01*
X5048377Y-1866772D02*
G01*
X4893436Y-1866772D01*
X4893436Y-2069972D01*
X5048377Y-2069972D01*
X5127116Y-1864232D02*
G01*
X5274436Y-1864232D01*
X5315077Y-1904872D01*
X5315077Y-2031872D01*
X5276977Y-2069972D01*
X5124577Y-2069972D01*
D10*
X4886939Y-2569921D02*
G01*
X4886939Y-2665808D01*
X5019060Y-2665808D01*
X5019060Y-2569921D01*
X4886939Y-2484678D02*
G01*
X4886939Y-2388791D01*
X5019060Y-2388791D01*
X5019060Y-2484678D01*
D11*
X5527593Y-2627312D02*
G01*
X5513405Y-2627312D01*
X5713407Y-2559819D02*
G01*
X5713407Y-2627312D01*
X5699211Y-2627312D01*
X5699211Y-2427312D02*
G01*
X5713407Y-2427312D01*
X5713407Y-2494810D01*
X5513405Y-2427312D02*
G01*
X5527593Y-2427312D01*
X5513405Y-2494810D02*
G01*
X5513405Y-2427312D01*
X5513405Y-2627312D02*
G01*
X5513405Y-2559819D01*
G75*
G01*
X5303363Y-2622619D02*
G02*
X5272377Y-2653601I-30983J0D01*
G75*
G01*
X5192380Y-2653601D02*
G02*
X5161397Y-2622619I0J30982D01*
G75*
G01*
X5161443Y-2406589D02*
G02*
X5192425Y-2375609I30982J-3D01*
G75*
G01*
X5272423Y-2375609D02*
G02*
X5303411Y-2406589I5J-30983D01*
G75*
G01
X5670525Y-2400300D02*
G03X5670525Y-2400300I-6350J0D01*
M02*
